<?xml version="1.0" encoding="utf-8"?>
<!-- Generator: Adobe Illustrator 16.0.4, SVG Export Plug-In . SVG Version: 6.00 Build 0)  -->
<!DOCTYPE svg PUBLIC "-//W3C//DTD SVG 1.1//EN" "http://www.w3.org/Graphics/SVG/1.1/DTD/svg11.dtd">
<svg version="1.1" id="图层_1" xmlns="http://www.w3.org/2000/svg" xmlns:xlink="http://www.w3.org/1999/xlink" x="0px" y="0px"
	 width="117px" height="37px" viewBox="0 0 117 37" enable-background="new 0 0 117 37" xml:space="preserve">
<polygon stroke="#000000" stroke-width="1.3835" stroke-miterlimit="10" points="28.771,18.015 11.771,18.015 11.771,7.388 
	8.385,4.198 8.385,33.25 11.771,35.54 11.771,21.121 28.771,21.121 28.771,33.25 32.166,35.54 32.166,7.203 28.771,4.278 "/>
<path stroke="#000000" stroke-width="1.3835" stroke-miterlimit="10" d="M54.542,7.211l2.318-0.096L44.58,36h3.644l4.045-9.254
	h13.655L69.83,36h3.795L58.502,1.267L54.542,7.211z M64.55,23.644H53.51l5.518-13.296L64.55,23.644z"/>
<polygon stroke="#000000" stroke-width="1.3835" stroke-miterlimit="10" points="107.834,4.999 83.444,4.999 85.159,8.103 
	94.283,8.103 94.283,35.706 97.671,32.84 97.671,8.103 109.55,8.103 "/>
</svg>
