<?xml version="1.0" encoding="utf-8"?>
<!-- Generator: Adobe Illustrator 16.0.4, SVG Export Plug-In . SVG Version: 6.00 Build 0)  -->
<!DOCTYPE svg PUBLIC "-//W3C//DTD SVG 1.1//EN" "http://www.w3.org/Graphics/SVG/1.1/DTD/svg11.dtd">
<svg version="1.1" id="图层_1" xmlns="http://www.w3.org/2000/svg" xmlns:xlink="http://www.w3.org/1999/xlink" x="0px" y="0px"
	 width="117px" height="37px" viewBox="0 0 117 37" enable-background="new 0 0 117 37" xml:space="preserve">
<g>
	<polygon fill="#FFFFFF" points="28.079,17.323 12.463,17.323 12.463,7.089 7.693,2.596 7.693,33.617 12.463,36.843 12.463,21.812 
		28.079,21.812 28.079,33.618 32.858,36.841 32.858,6.886 28.079,2.769 	"/>
	<path fill="#FFFFFF" d="M53.213,7.958l2.583-0.106l-12.261,28.84h5.143l4.045-9.254h12.743l3.906,9.254h5.31L58.63-0.172
		L53.213,7.958z M63.514,22.953h-8.968l4.481-10.801L63.514,22.953z"/>
	<polygon fill="#FFFFFF" points="108.242,4.307 82.271,4.307 84.751,8.795 93.592,8.795 93.592,37.197 98.362,33.161 98.362,8.795 
		110.723,8.795 	"/>
</g>
</svg>
