<svg xmlns="http://www.w3.org/2000/svg" width="505" height="137"><path fill="#FED100" d="M84.194 129.574c-4.104.338-6.916-.497-11.237-1.027-1.11-.22-2.27-.38-3.48-.47-2.446-.17-5.42-.066-8.202 1.596-2.824 1.343-4.916 6.063-3.077 7.327.34-.6.37-1.423.817-1.956.002.297.132.67.127.98.106-.252.244-.512.296-.774-.03.23.016.486.167.645.14-.278.167-.772.188-1.066.026-.154-.012-1.067.225-1.163-.052.663-.053 1.438.135 1.974l.278-.395c.053.266-.085.614.08.807.18-.333.25-.692.473-1.035.157-.29.416-.438.54-.752-.142.383-.343.84-.17 1.25.156-.087.195-.267.263-.415l.062.09.188-.147.127.102-.086-.078h.086c.296-.192.43-.543.64-.816.45-.657 1.366-.21 1.853-.732.766-.608 1.79-.148 2.758-.437 1.823-.56 4.04-.95 6.09-.413 3.702 1.223 8.09 1.18 12.05 1.142 2.353.122 4.746-.107 6.71-.276 1.536-.336 4.21.383 5.664-.185-1.77-.017-3.364-.586-5.134-.758 3.72-.525 7.574.62 11.617 1.472-3.735-.92-7.132-1.935-10.602-2.388-3.485-.432-7.485-.387-11.253-1.22 4.158-.133 9.25-.572 13.75.317 4.52.98 8.817 2.736 13.214 3.168.66.063 1.428.068 2.05-.012-4.563.01-8.833-1.847-13.29-3.113-4.408-1.422-9.575-1.415-13.916-1.24m-21.507-17.786c1.64.395 3.436.634 5.077.482 1.214-.138 3.628.32 4.692-.518-1.4.255-2.85-.064-4.242-.396 3.034-.28 6.17-.143 9.223-.557-5.7.488-11.104-.396-16.896-2.644 6.634.42 14.14 2.71 20.628 1.043.51-.134 1.1-.313 1.585-.537-6.817 2.214-13.887-.408-20.786-1.215-3.068-.335-6.275-.408-9.47.733-.898.21-1.806.51-2.727.95-1.7.83-4.32 2.295-4.858 5.934-.363 3.584 2.732 6.258 4.396 5.124-.283-.44-.88-.674-1.066-1.19.25.07.566.085.805.16-.146-.146-.24-.352-.433-.45.17.075.368.12.57.03-.113-.202-.52-.316-.74-.412-.128-.037-.837-.266-.822-.484.497.255 1.126.41 1.644.393-.053-.108-.146-.192-.172-.31.23.02.44.2.67.112-.173-.21-.423-.344-.582-.59-.1-.206-.13-.398-.33-.555.29.17.494.414.913.377-.008-.134-.107-.206-.17-.28l.108-.035-.03-.148.15-.07-.11.05.043-.058c-.06-.227-.17-.375-.298-.528-.328-.432.57-.536.36-.85-.083-.573.77-.56 1.116-1.097.674-1.08 1.943-2.286 3.47-2.444 2.863-.273 5.445-.72 8.283-.02m155.38 15.55c-3.32-1.204-6.395-2.866-9.823-3.693-3.477-.946-7.208-.288-10.31.56-5.933 1.734-10.8 3.828-16.323 4.216-1.54.136-3.07.13-4.584.183-3.117.028-6.164-.258-9.16-.697-2.74-.228-7.072-2.123-9.008-.833.81.45 1.833.652 2.58 1.15-.372.027-.814.07-1.23.012.35.158.708.395 1.077.437-.307-.026-.632-.034-.818.1.406.235 1.104.274 1.502.256.227 0 1.305-.13 1.537.03-.79.118-1.813.212-2.528.36l.686.32c-.363.088-.93-.133-1.173.033.59.266 1.178.328 1.808.544.508.182.958.374 1.482.437-.64-.023-1.468-.172-1.996 0 .245.164.55.224.85.284l-.098.08.41.178-.042.16.043-.11.082.094c.622.28 1.29.455 1.95.473 1.385.065 2.32 1.213 3.72 1.08 1.704-.06 3.28.738 5.055.593 3.225-.377 6.388-1.11 9.55-1.295 6.205-.078 11.39-3.166 16.643-4.15 3.303-.62 5.89-.896 8.56-.43 2.04.202 6.545 2.33 9.103 2.163-3.06-.605-5.675-1.966-8.078-2.855 2.86.51 5.467 1.588 9.17 2.508 3.242.41 6.475.724 9.627.525-2.947.094-5.89-.177-8.798-.647-3.338-.666-5.686-1.906-8.29-2.82-4.853-2.335-10.217-1.7-15.83-.728 2.96-.973 6.318-1.942 9.773-1.97 3.47.165 6.688 1.533 9.956 2.823 6.81 2.745 14.112 2.792 20.15 1.447.916-.192 1.93-.58 2.686-.924-5.922 2.005-13.03 2.024-19.912.107m-58.67-4.984c4.092-.44 7.63 3.135 13.27 3.51-5.142-.414-8.706-3.588-12.218-3.69-3.825-.362-7.895.368-11.96 1.305-7.933 1.665-17.013 5.138-24.405 2.23 8.718 2.273 19.48-3.25 29.664-4.557 5.34-.913 10 .02 14.673 2.6 5.212 1.91 10.26 1.198 14.794.475 1.377-.25 2.895-.658 4.03-1.054-4.44 1.17-9.336 1.956-14.452 1.402-5.462-.505-9.35-4.68-14.734-4.16-10.353 0-20.895 5.086-29.897 5.076-8.3.192-13.333-8.165-23.65-10.784-2.3-.59-5.05-1.353-7.632-1.498-5.378-.53-10.88-.03-15.97 1.48-4.593 1.157-12.175 4.777-12.69 7.395 1.33-.57 2.66-1.496 3.968-1.98-.396.397-.844.87-1.342 1.246.527-.264 1.137-.487 1.58-.836-.362.3-.724.616-.792.88.64-.282 1.43-.96 1.906-1.263.27-.184 1.49-1.19 1.922-1.275-.9.78-2.07 1.623-2.7 2.396.35-.14.692-.3 1.05-.4-.357.328-1.143.74-1.245 1.082.822-.455 1.562-.832 2.462-1.198.732-.292 1.402-.523 2.063-.908-.772.51-1.847 1.08-2.29 1.618.412-.078.794-.28 1.174-.48l-.042.137.595-.204.066.15-.03-.117h.165c.894-.328 1.81-.622 2.633-1.018 1.78-.86 3.552-.424 5.31-1.082 2.243-.824 4.63-.455 7.01-.762 4.41-.763 9.19-.505 13.51 1.048 7.63 2.97 13.3 10.742 24.013 10.688 5.57-.042 11.21-1.84 16.028-3.485 3.606-1.39 10.53-2.695 13.242-3.364-3.75.322-7.993 1.13-12.125 2.05 4.353-1.47 8.823-2.753 13.05-2.65m241.32 11.416c.882 0 1.436-.023 1.564-.023-.13 0-.682.022-1.563.022m-16.043-2.523c-.848-.297-1.692-.625-2.524-.99.83.365 1.676.693 2.524.99m62.87-3.588c-.28-.447-.606-.8-1.01-1.118.522.336 1.206.848 1.657 1.096-.072-.308-.263-.557-.515-.75l.133-.018-.274-.36.123-.113-.102.066-.02-.125c-.43-.55-.916-1.102-1.537-1.36-1.18-.7-1.798-1.923-3.164-2.26-1.652-.28-3.025-1.336-4.76-1.372-3.14.023-6.09.782-9.06 1-2.823.232-5.484.903-8.054 2-2.768 1.185-4.78 3.01-6.95 3.69-2.603 1.062-5.518 1.86-8.187 2.615-1.98.648-6.073.635-7.88 1.25 2.392-.095 4.87-.092 7.29-.173-5.11 1.3-10.703.882-15.84-.393 9.588 2.567 19.537 2.016 29.304-1.92-7.95 5.233-18.566 5.704-27.68 3.488h-.01c-2.85-.694-5.557-1.65-7.988-2.804-.855-.322-1.75-.803-2.537-1.107 2.363 1.265 4.92 2.377 7.6 3.28-.985-.247-1.98-.536-2.973-.866.99.33 1.99.62 2.978.866 9.098 3.06 19.61 3.654 28.655-.772 2.73-1.414 4.68-2.973 6.842-3.614 2.254-.814 4.684-1.363 7.134-1.717 1.342-.082 2.688-.14 4.005-.063 2.69.127 5.286.658 7.332 1.648 2.112.726 3.39 3.532 5.532 4.297-.2-.774-.54-1.604-.793-2.317.335.167.647.408.852.726-.082-.337-.146-.73-.434-.945.227.185.474.377.683.416-.09-.437-.705-.82-.95-1.05-.156-.148-.95-.63-1.088-.81.77.183 1.353.814 2.084 1.1-.102-.225-.242-.42-.317-.654.297.172.644.655.938.702-.328-.554-.716-.984-1.02-1.556m-56.527 5.244h.004c3.667.666 6.95.835 9.014.86-2.064-.025-5.348-.194-9.017-.86m-5.903-1.498c-.154-.053-.295-.11-.44-.16.145.05.286.107.44.16m74.776-21.112c-1.006-1.89-2.68-2.827-3.885-4.02-2.573-2.332-5.172-2.845-8.507-4.11-1.948-.573-3.982-.66-5.748-.245-1.28.287-3.987.428-4.847 1.596 1.37-.69 2.997-.713 4.502-.625-3.11.797-6.372 1.588-9.078 3.477 5.04-3.02 11.844-3.637 16.643-.195-5.38-1.792-14.834-1.776-18.857 3.612-.282.41-.456.96-.525 1.395 2.84-6.373 12.61-6.038 18.08-4.623 2.405.885 4.93 2.16 6.388 3.298.327.398.575.768.76 1.105.28.71.355 1.316.303 2.302.01.89-.958 2.442.16 4.195.317-.302.448-.806.777-1.063.072.23.146.515.118.738.108-.147.288-.272.28-.488.013.18.037.38.16.543.19-.155.104-.605.095-.812-.003-.135-.163-.754-.054-.83.206.48.24 1.028.467 1.554l.23-.308c.075.23-.035.527.11.74.165-.3.212-.62.4-.907.155-.23.284-.46.312-.746.023.368-.057.828.093 1.187.15-.09.21-.247.24-.42l.08.09.134-.208.15.068-.102-.054.085-.03c.207-.31.34-.67.34-1.058.042-.762.985-1.207.834-2.064-.262-.99.416-2.048-.137-3.096m-64.626 7.343c3.23-.232 6.435-.04 9.63.5 2.866.347 7.665 2.306 9.634 1.04-.875-.473-1.973-.693-2.787-1.214.4-.016.866-.057 1.31.008-.378-.158-.77-.408-1.16-.455.326.03.673.044.866-.095-.433-.252-1.19-.27-1.602-.268-.247-.008-1.387.094-1.634-.08.843-.102 1.9-.133 2.674-.308l-.744-.318c.38-.07 1 .115 1.245-.033-.63-.277-1.263-.318-1.926-.576-.54-.195-1.013-.408-1.564-.486.674.047 1.55.224 2.1.065-.264-.18-.585-.245-.895-.315l.098-.078-.435-.187.042-.16-.042.107-.096-.1c-.646-.318-1.38-.418-2.073-.493-1.444-.19-2.486-1.193-3.97-1.17-1.815.088-3.533-.76-5.44-.523-3.486.424-6.807 1.537-10.155 2.086-6.403 1.085-11.588 3.488-17.587 4.276-3.476.538-7.306 1.303-10.718 2.297-2.522.718-7.625 1.306-9.65 2.32 2.828-.6 5.917-.874 8.874-1.22-4.88 1.297-9.98 2.288-14.776 2.22 9.966.328 20.622-2.654 30.878-3.09-12.944 2.417-30.043 7.682-42.006 1.348-.887-.493-1.98-.995-2.783-1.42 9.683 6.85 22.873 4.96 34.722 2.847-3.327.793-7.673 1.727-12.337 2.455 4.668-.73 9.01-1.662 12.34-2.455 2.5-.445 4.937-.895 7.268-1.282 6.204-1.204 12.22-3.312 17.948-4.648 1.59-.276 3.176-.473 4.75-.598m-50.782 6.844c-1.334-.042-2.652-.144-3.956-.317 1.29.2 2.612.297 3.956.317m80.34-11.236c1.886.89 3.992 1.646 6.046 1.953-2.05-.305-4.16-1.062-6.047-1.952M245.7 64.44s-.066.222-.066.567c0-.345.065-.566.067-.566m73.238-21.45c.03-.006.052-.01.047-.032.2-.11.074-.058-.047.03M104.196 70.43l-.022.097c.048-.034.037-.065.022-.096M413.07 97.426c0-2.01.192-3.43.196-3.43-.003 0-.196 1.42-.196 3.43m.504 5.126c.08.385.176.78.286 1.163-.11-.383-.206-.778-.286-1.163m1.124-27.98c.07 1.455.22 2.97-.09 4.407-.587 2.71-.826 5.204-1.592 7.813-.428 1.52-.74 3.27-.826 4.897-.052 1.186-.39 3.597-.012 4.64-.076-1.378.163-2.813.423-4.146-.086 2.952-.256 6.034.113 8.944-.545-5.46.438-10.94 2.384-15.723-.937 4.315-2.12 9.73-1.916 14.597-.083-.918-.11-1.795-.11-2.577 0 .788.027 1.66.11 2.577.067 1.52.26 2.986.644 4.35.12.426.293.9.47 1.256-.44-1.165-.708-2.41-.853-3.7.04.217.086.434.135.644-.05-.21-.095-.427-.134-.645-.558-4.93.733-10.53 1.783-15.122.613-2.67 1.174-5.37 1.463-8.148l.33-2.264c.203-1.553.385-3.113.447-4.68.05-1.394.22-3.87-.74-4.478-.076.44.003.943-.105 1.362l-.217-.56c-.01.183-.062.386-.015.555-.043-.144-.092-.29-.19-.354-.046.213.075.535.12.715.027.102.226.585.18.713-.165-.36-.307-.81-.513-1.105l-.044.35c-.077-.15-.09-.43-.21-.513-.01.294.036.562 0 .866-.02.244-.06.468-.02.71-.065-.294-.1-.68-.25-.89-.05.128-.038.27-.03.4l-.056-.025-.027.192h-.09l.062.005-.034.047c-.056.3-.047.61-.017.902.064.625-.384 1.104-.3 1.72.043.3.004.593-.06.884-.09.456-.232.903-.208 1.386m-20.823 16.392c.03-1.07.096-1.735.104-1.735-.01 0-.074.666-.105 1.736m-12.985 2.83c0-1.174.043-1.978.05-2.162-.007.184-.05.988-.05 2.162m-235.488-.094l-.016.185c.04-.063.03-.122.016-.185M92.975 95.89c0 .033-.005.166-.002.38 0-.214.002-.347.002-.38m-8.713-6.625c.302 2.93 1.27 6.276 4.058 7.646-2.787-1.37-3.757-4.717-4.058-7.645m218.344-11.077c0 .005.464.008 1.346.008-.882 0-1.346-.004-1.346-.008m-207.172 3.33l-.02.093c.055-.034.044-.062.02-.093M315.07 105.4c-11.763.41-23.058.558-33.035.558 9.978 0 21.273-.146 33.036-.557m-216.878 3.122l-.026.187c.058-.063.05-.125.026-.188m-4.887-8.593c-.26-1.46-.322-2.678-.333-3.388.01.71.073 1.928.333 3.387m182.586-24.2c.114.376.244.76.398 1.13-.154-.37-.284-.754-.397-1.13M149.498 62.68c-.05.422-.1.935-.1 1.47 0-.536.05-1.048.1-1.47m188.157 13.437c-19.16.35-38.488.57-54.647.694 16.16-.123 35.487-.344 54.647-.693m-61.908-.888c0 .002.005.002.005.002.04.164.095.33.14.497-.045-.168-.1-.334-.144-.5M160.41 65.59c.034-.82.282-1.658.53-2.27-.248.612-.496 1.45-.53 2.27m182.16.545c1.46-.097 2.895-.195 4.298-.302-1.403.106-2.84.205-4.298.302m4.298-.302c9.136-.687 17.04-1.665 22.807-3.012-5.768 1.348-13.67 2.326-22.807 3.013m-15.75 35.41c-3.002-.64-5.088-4.35-6.53-7.86 1.442 3.51 3.528 7.22 6.53 7.86m103.19 15.134c1.32-.312 2.546-.907 3.477-1.89-.93.983-2.158 1.577-3.477 1.89m-203.973-11.213c4.46.258 9.042.518 13.723.775.263.384.542.77.847 1.156-4.913-.576-9.778-1.214-14.57-1.932m-57.875-4.208c-6.36-.302-12.76-.536-19.146-.752-11.475-.382-23.03-.658-34.533-.682.448-3.362 1.38-6.73 2.035-9.89.568-2.722 1.035-5.453 1.023-8.19 2.49-.035 4.978.017 7.495.066.008.03.012.072.02.104l.002-.104c.112.003.222.003.334.008-.063 1.91-.088 3.823.02 5.68-.058-1.9 0-3.794.14-5.675l.67.01c-.31 3.315-.366 6.59.123 9.503.084.518.22 1.09.375 1.527-.806-3.387-.714-7.197-.27-11.023 2.282.03 4.584.042 6.93-.067 12.25-.53 24.874-1.357 37.288-1.2 18.766.204 36.156 0 53.934.235.494 1.742 1.163 3.277 2.16 4.19-.548-1.34-.897-2.742-1.126-4.175.534.005 1.06.013 1.594.023.56 2.273 1.148 4.544 1.796 6.79-12.695-1.333-25.502-2.387-38.507-2.54-4.247-.273-8.522-.453-12.792-.55-8.765-.21-17.587-.38-26.35.026-7.777.37-21.653.728-24.516 4.806 2.484.112 5.23-.41 7.63-.166-.9.377-1.93.837-2.995 1.098 1.022-.026 2.152.088 3.096-.153-.783.22-1.58.486-1.872.9 1.225.09 2.95-.526 3.908-.784.563-.152 3.148-1.14 3.89-.992-1.915.8-4.335 1.545-5.89 2.492.668.023 1.325-.045 1.972.03-.793.375-2.354.544-2.752 1.028 1.65-.076 3.108-.36 4.817-.37 1.392-.002 2.645.055 3.972-.185-1.586.388-3.71.67-4.8 1.358.738.147 1.51.045 2.262-.05-.09.07-.143.147-.163.23.335-.018.78.073 1.13.04.005.054.02.1.036.15v-.05l.278.12c1.696.1 3.42-.068 5.038-.31 3.45-.514 6.353 1.053 9.72.475 4.224-.702 8.383.685 12.78.232 8.072-.843 16.414-2.01 24.588-1.21 13.427 1.228 25.804 1.61 38.585 3.223.173.416.33.84.514 1.246-.16-.406-.3-.825-.455-1.238.947.12 1.895.247 2.847.38.987 2.684 2.185 5.24 3.63 7.626-.365-.023-.74-.047-1.11-.065-22.89-1.38-45.923-2.818-69.357-3.174m-55.364-1.438c.2-3.84 1.197-7.645 3.155-11.33-.624 3.51-1.575 7.45-1.92 11.335-.41 0-.823-.005-1.234-.005m-.978 0c-.164-1.29.138-2.61.48-3.875.078 1.28.116 2.577.176 3.875h-.656zm-2.213 0c-3.118.013-6.896.005-10.838.073-1.223-2.912-.774-6.343-.05-9.526.258-1.137.55-2.247.81-3.285.48-1.813.887-3.616.993-5.42 4.513-.077 8.482.482 12.96.24-.497 2.92-.432 5.56-1.346 8.372-.545 1.657-.882 3.49-.747 5.19.083 1.102-.28 3.154.247 4.355-.674 0-1.35-.007-2.03 0m-20.08.383c-.162-3.943.696-8.074 1.162-11.82.277-2.212.476-4.437.36-6.637h.035c.01.023.035.047.054.073l.007-.028.422.062c1.58.03 3.172.008 4.74-.04-.31 1.93-.374 3.74-1.15 5.687-.52 1.345-.737 2.866-.537 4.24.152.998-.118 3.076.835 3.853-.402-1.123-.187-2.375.094-3.532.385 2.47.564 5.066 1.714 7.405-1.78-4.417-1.045-9.213 1.704-13.502-.928 4.184-2.346 9.688-.408 13.932-2.994.05-6.07.14-9.03.308m2.16 7.514c-.104-.164-.202-.333-.302-.497 1.666.045 3.236.094 4.878-.055-1.402.186-3.082.333-4.576.552m-1.4-2.965c-.035-.123-.074-.248-.113-.37.014-.006.03-.006.04-.01 1.21-.21 2.445-.38 2.994-.29-.92.227-1.915.443-2.92.67m-1.28-4.52l-.992.06c-.554-4.397.075-8.852 1.983-13.253-.368 4.055-1.185 8.783-.82 13.185-.058 0-.115.007-.17.007m4.49-19.277c-.776.06-1.63.114-2.487.174l-.006-.09c.823-.016 1.647-.037 2.492-.084m-1.765-12.22c-.995.11-2.013.232-2.4.436 1.55.06 3.75-.23 4.972-.353.715-.07 4.003-.533 4.942-.452-2.438.377-5.517.726-7.512 1.18.845.017 1.68-.007 2.5.043-1.017.17-2.996.24-3.517.483 2.1-.02 3.95-.155 6.125-.137 1.758.016 3.343.052 5.03-.05-2.013.177-4.718.294-6.11.627.93.083 1.912.04 2.868 0-.113.036-.186.073-.207.112.425 0 .988.047 1.43.033.007.023.027.053.046.073l.002-.023.35.064c2.15.067 4.344.002 6.4-.11 2.51-.127 4.788.097 7.075.253.03.127.052.26.046.396-.014.264-.047.504.055.764-.176-.31-.3-.724-.633-.94-.082.14-.033.29.002.436l-.11-.036-.036.22h-.164l.123.004-.068.052c-.064.328.002.663.108.976.23.666-.593 1.22-.307 1.873.353.77-.23 1.53-.077 2.33-1.96.035-3.92.064-5.875.108-1.826.03-3.874.062-6.046.096.026-.95-.006-1.91-.135-2.853-.16-1.15-.28-3.2-2.307-3.644-.067.372.185.783.052 1.142-.185-.138-.41-.29-.54-.45.015.15-.053.323.066.46-.106-.113-.236-.233-.442-.277-.052.186.248.446.375.586.076.092.56.474.485.583-.39-.284-.758-.648-1.223-.883-.016.1.018.2-.026.297-.18-.12-.26-.352-.502-.416.03.252.17.47.167.728-.004.208-.037.398.075.596-.185-.24-.32-.557-.66-.72-.074.11-.024.23.015.343l-.106-.028-.033.174-.162.007.117.002-.06.038c-.057.258.02.518.138.76.244.52-.56.965-.27 1.472.366.633-.313 1.272-.066 1.93.03.086.062.172.093.248-1.67.04-3.368.078-5.06.13-.003-.02-.003-.045-.007-.07-.14-1.607-.35-3.226-.75-4.79-.295-1.127-.666-2.98-1.898-3.768 1.218-.002 2.534.053 3.654-.056m23.178 2.25c.11.146.51.585.437.715-.234-.227-.46-.49-.702-.727l.265.01m4.075-.007c2.306-.177 4.6-.148 6.907-.094-.41 1.77-.718 3.784-.783 5.654-.003.078-.01.18-.015.266-2.457.026-4.91.057-7.36.096 0-1.048-.043-2.096-.13-3.13-.06-.75-.107-1.8-.418-2.728.59-.005 1.186-.022 1.8-.064m8.546-.05c.092.003.183.006.273.006-.31 1.864-.646 3.833-.95 5.85-.227.002-.452.005-.682.01.346-2 .796-3.965 1.36-5.866m.484-21.86c.002.01 0 .018.002.028-.016.018-.036.023-.056.047.018-.026.04-.048.054-.075m.185-.24c0 .06.006.116.01.175-.038.002-.07.002-.107.02-.012-.015-.022-.02-.032-.036.044-.057.085-.11.13-.158m.056 22.12c2.28.064 4.583.11 6.942-.004 10.234-.502 20.787-1.2 31.15-1.037 10.056.177 19.623.2 29.105.29 8.974.08 17.88.214 27.058.583.04.003.08.006.115.006.094.476.19.957.305 1.428.282 1.132.505 2.694.78 4.352-19.092-.2-38.317-.266-57.785.018-6.43-.01-12.9.02-19.354.065-6.44.028-12.905.07-19.37.133.346-2.015.724-3.976 1.056-5.835m.224-22.455c.023.188.034.372.036.55-.045-.007-.088-.015-.135-.027l-.125-.25c.07-.085.15-.17.225-.273m-.062-.684c.002.023.002.047.005.068-.008 0-.01.005-.016.01l.01-.078zm17.027 13.44c-.47 1.375-1.19 3.09-.953 4.63h-.572c-.353-1.593.234-3.18 1.525-4.63m-.398-5.377l.113.098c-.056-.03-.11-.062-.167-.09.02-.006.037-.01.054-.01m.577-.64c.138-.04.776-.29.96-.26-.275.12-.587.24-.878.36-.05-.03-.102-.052-.156-.073.024-.01.05-.017.074-.028m.567.723c-.025-.06-.05-.12-.08-.175.012 0 .02-.005.033-.005.346-.003.655.005.983-.062-.29.08-.66.14-.935.242m1.45 9.925h-.327c-.026-.336.11-.674.27-.996.026.327.03.66.058.995m.823 0h-.643c.12-1.043.74-2.05 1.774-2.908-.412.838-.96 1.878-1.13 2.908m6.923.013h-.568c-.065-1.508.89-2.824 2.467-3.65-.77.932-1.822 2.303-1.9 3.65m8.938-.013c-.014.008-.023.008-.035.008-.078-.312-.104-.596-.104-.832 0 .237.026.52.104.833-.177 0-.356 0-.53.003-.224-1.438.387-2.84 1.743-4.115-.51 1.236-1.29 2.717-1.178 4.105m5.077-.047h-.246c.045-.23.113-.466.19-.69.02.23.037.462.056.69m-18.915-9.677c1.047-.205 2.085.112 3.177-.033 1.994-.27 4.06-.622 6.093-.452 3.83.288 7.31.28 11.002.774.124.015.264.03.392.05l-.012.043-.048-.028-.034.07-.082-.02.06.018-.036.01c-.062.105-.056.23-.027.357.052.263-.386.343-.312.61.105.328-.303.526-.264.85.042.592.234 1.19.044 1.72-.41 1.002-.514 1.946-1.12 2.945-.316.585-.477 1.267-.422 1.898.018.22-.016.55-.01.87-1.47.012-2.94.027-4.41.043-.017-1.248.737-2.546 1.274-3.683.367-.812.686-1.642.694-2.487l.12-.696c.06-.474.082-.95.007-1.423-.06-.424-.1-1.173-1.105-1.334-.037.135.083.283.01.41l-.26-.163.026.17c-.055-.043-.115-.085-.22-.103l.18.213.235.21c-.196-.105-.37-.233-.598-.32l-.018.103c-.088-.04-.125-.125-.25-.148.014.092.084.172.076.26-.006.08-.023.144.033.217-.087-.086-.157-.203-.32-.263v.124l-.053-.014-.016.065h-.083.06l-.033.013c-.03.09.003.185.06.273.116.183-.294.34-.156.52.175.23-.166.45-.054.686.21.437.5.89.33 1.326-.316.822-.338 1.576-.857 2.354-.312.452-.516.975-.482 1.462.02.355-.223 1.063.207 1.39-.14-.417.033-.842.235-1.234.05.685.04 1.39.198 2.084l-1.324.013-6.28-.007h-.56c.103-.793.565-1.587 1.09-2.27.254-.34.526-.648.775-.922.573-.675 1.088-1.367 1.328-2.197l.29-.652c.168-.465.32-.933.34-1.445.008-.458.103-1.267-.87-1.56-.056.13.038.296-.053.413l-.23-.2v.17c-.05-.054-.105-.105-.2-.137l.145.24.192.25c-.17-.138-.325-.3-.538-.42l-.033.105c-.083-.058-.104-.148-.22-.188 0 .088.054.174.033.265-.016.068-.043.13-.002.21-.075-.1-.118-.22-.275-.303l-.018.11-.055-.02-.02.062-.084-.02.06.014-.03.008c-.05.078-.027.175.012.27.083.2-.335.256-.233.46.12.252-.268.382-.208.63.104.456.287.966.003 1.338-.52.694-.74 1.418-1.457 2.05-.41.377-.726.874-.81 1.38-.052.368-.414 1.112-.04 1.51-.07-.46.176-.89.444-1.267-.078.687-.203 1.402-.127 2.112l-6.067-.01c.217-.88.722-1.765 1.128-2.498.42-.758.79-1.51.852-2.303l.165-.64c.09-.445.152-.895.116-1.353-.03-.4-.01-1.12-1-1.365-.05.124.06.274-.02.395l-.248-.183.01.16c-.048-.043-.108-.093-.208-.118l.16.22.22.222c-.182-.114-.35-.257-.57-.358l-.024.1c-.086-.053-.116-.134-.235-.167.005.087.067.17.054.258-.01.07-.037.133.016.203-.086-.085-.138-.202-.3-.274l-.007.117-.055-.02-.018.06-.086-.004.06.004-.03.01c-.04.087-.013.178.037.27.1.187-.316.296-.19.485.155.23-.21.41-.112.65.174.434.43.892.234 1.3-.37.772-.437 1.498-1.01 2.236-.317.432-.52.955-.485 1.443.016.277-.13.795.034 1.146h-.95c-.53-.005-1.057 0-1.584 0-.095-.944.2-1.95.556-2.895.17-.444.35-.876.51-1.276.355-.91.647-1.836.632-2.772l.088-.772c.03-.536.013-1.077-.088-1.603-.03-.138-.06-.304-.11-.48.092-.004.183-.018.274-.027l-.04.055.284.008.005.083.002-.06.07.028c.418.02.848-.026 1.248-.097.848-.138 1.578.247 2.41.084m20.952.367c-.005.006 0 .008-.005.008-.026.097-.062.172-.034.273-.04-.09-.067-.198-.128-.3.053.006.108.014.168.02m-1.1 9.303c-.216 0-.434 0-.647.006.174-1.154.723-2.283 1.615-3.243-.37.933-.793 2.08-.968 3.238m4.736-.012h-.564c-.08-1.363.762-2.547 2.275-3.444-.678.973-1.64 2.193-1.71 3.444m5.232.002c-.1-.002-.196-.002-.29-.002.04-.23.127-.463.232-.682.024.22.038.455.057.684m.892.003c-.217 0-.436 0-.654-.003.16-.93.766-1.825 1.696-2.543-.387.702-.866 1.628-1.042 2.546m-8.734-5.597c.09-.255.108-.53.22-.772.186-.508.337-1.018.397-1.554.03-.312.104-.774-.1-1.212 1.532.133 3.112.2 4.61.164 1.646-.044 4.976.16 6.385-.29-1.894.163-3.886.015-5.743-.165 4.042-.1 8.26-.114 12.236-.643.02.078.04.16.013.24l-.28-.167.047.2-.23-.1c-.02.084.14.183.205.237l.258.236c-.204-.114-.397-.255-.632-.33l-.006.128c-.095-.042-.14-.136-.265-.148.024.106.1.19.106.3.003.085-.01.163.055.243-.103-.093-.178-.22-.353-.272l.017.142-.053-.008-.012.07-.083.008.062-.003-.032.018c-.022.106.023.205.09.304.127.208-.24.396-.113.6.17.262-.183.514-.076.784.21.505.468 1.063.224 1.563-.4.93-.593 1.81-1.263 2.628-.402.48-.72 1.054-.792 1.634-.06.42-.463 1.235-.11 1.693-.04-.52.225-1 .512-1.434-.064.503-.157 1.016-.212 1.536-1.915-.014-3.83-.026-5.75-.03-.118-.004-.233-.004-.352-.004.212-.777.636-1.553 1.016-2.156.43-.707.806-1.407.883-2.146l.18-.6c.11-.42.187-.842.17-1.28-.012-.386.038-1.064-.943-1.358-.053.122.052.27-.034.377l-.242-.19.006.16c-.047-.05-.104-.097-.206-.128l.156.22.208.228c-.177-.122-.34-.27-.56-.38l-.025.094c-.087-.054-.112-.135-.225-.17 0 .082.057.16.042.248-.014.065-.042.123.002.198-.08-.09-.128-.206-.288-.286l-.012.114-.052-.016-.022.05-.083-.008.06.008-.033.013c-.042.078-.02.166.023.255.095.188-.33.27-.21.458.148.23-.223.388-.137.62.155.428.39.878.192 1.268-.39.73-.464 1.43-1.052 2.144-.33.42-.5.952-.46 1.43.017.204-.05.53-.02.828-1.518-.006-3.037-.006-4.556 0 .157-1.103 1.05-2.156 1.73-3.025.5-.663.95-1.347 1.102-2.104l.218-.607c.125-.427.22-.863.213-1.313-.004-.396.066-1.09-.908-1.38-.056.118.04.272-.05.376l-.233-.188v.156c-.043-.047-.102-.097-.2-.125l.15.218.2.224c-.17-.12-.33-.268-.546-.377l-.03.09c-.088-.046-.11-.132-.228-.165 0 .08.058.16.042.24-.017.066-.044.126 0 .2-.078-.095-.123-.207-.28-.285l-.017.115-.052-.02-.022.05-.084-.012.056.013-.03.007c-.043.078-.022.166.022.252.088.184-.335.257-.224.437.143.236-.228.37-.148.603.148.425.372.882.127 1.24-.45.683-.59 1.35-1.237 1.962-.376.354-.645.807-.682 1.262-.03.33-.373.95.01 1.31-.082-.402.15-.767.405-1.097-.05.632-.164 1.277-.08 1.943l-3.856.013c.207-.965.585-1.92.913-2.726.466-.97.864-1.9.958-2.88m-.466-3.633l.155.31c-.087-.1-.17-.208-.255-.322.033.004.066.01.1.012m16.326 9.27c-.21-.002-.42-.002-.635-.007.327-1.355 1.178-2.552 2.464-3.605-.583 1.08-1.413 2.323-1.83 3.613m6.23-1.163c-.034.41-.086.82-.133 1.226-.106 0-.206-.003-.31-.006-.048-.442.204-.822.443-1.22m2.128-2.188c-.436 1.15-1.038 2.27-1.443 3.423-.213-.002-.43-.002-.64-.002.332-1.152.98-2.27 2.083-3.42m15.82 4.562c.004.023.01.04.012.06-.406-.02-.81-.042-1.212-.067.397.002.8.007 1.2.007m-.176-2.086c.044.412.064.828.093 1.244-.102 0-.204-.005-.31-.005-.114-.423.033-.84.216-1.24m.787 2.09c0 .033.006.064.006.096-.186-.01-.37-.023-.557-.034v-.064c.185.002.37.002.55.002m1.135-4.336c-.36 1.11-.894 2.307-1.07 3.506-.203-.003-.4-.008-.598-.013.103-1.182.606-2.347 1.67-3.493m7.872 4.45c.016.17.034.34.053.507l-8.903-.514v-.102c2.894.018 5.846.057 8.85.11m3.202 5.935c.295 1.145.577 2.306.86 3.47-.3-.002-.595-.004-.895-.01-.025-1.162-.003-2.325.036-3.46m1.09 4.412c-.366-.023-.738-.04-1.1-.057 0-.008 0-.023-.003-.037.356.008.723.008 1.083.014.008.03.016.055.02.08m4.265-6.492c.065 1.865.164 3.735.31 5.61-1.045-.013-2.088-.03-3.132-.04-.13-1.884-.183-3.77-.15-5.66.982.034 1.973.062 2.973.09m-2.817-3.737c.906.023 1.818.042 2.73.07.003.263.01.522.012.785-.934-.052-1.854-.1-2.79-.153.02-.233.03-.465.048-.702m3.003-15.598c-.163 4.658-.327 9.717-.282 14.91-.893-.02-1.784-.046-2.672-.063.407-4.986 1.373-9.962 2.954-14.847m.21 26.06c-1.06-.05-2.103-.107-3.154-.156-.005-.05-.008-.095-.01-.142 1.04.013 2.088.018 3.145.033.005.09.013.178.018.264m-1.503 11.71c-.153-.036-.315-.07-.47-.104.148.014.3.03.45.047.012.018.016.04.02.057m2.957-1.465c-1.006-.107-2.012-.217-3.02-.323-.52-2.255-.946-4.533-1.246-6.827 1.045.018 2.088.04 3.135.057.282 2.395.65 4.767 1.13 7.092m24.757-16.61c3.296-.013 7.922.067 12.756.114.004.014.005.023.01.037v-.036c.105.006.206.006.312.006.044 1.183.13 2.366.354 3.5-.175-1.157-.238-2.33-.213-3.498.15 0 .304 0 .457.006h.163c-.042.826-.042 1.65.015 2.455-.13-.918-.174-1.764-.178-2.455.004.69.05 1.54.178 2.455.085 1.11.278 2.185.623 3.18-1.204.01-2.38.014-3.544.027-11.056-.153-21.853-.325-32.155-.48-1.262-.018-2.523-.03-3.786-.046-.07-1.862-.096-3.728-.09-5.587 8.266.226 16.922.362 25.097.323m12.57-.502c-3.14-.112-6.248-.242-9.287-.377 3.065-.018 6.146-.02 9.244-.02.01.132.025.27.044.398m-37.623-3.486c3.345.086 6.735.188 10.16.29.065.05.136.1.205.142-.055-.047-.1-.09-.152-.14 8.956.272 18.147.585 27.394.84-.012.38-.043.84-.046 1.292-12.735-.356-25.313-.93-37.574-1.59.002-.28.008-.555.013-.834M274.32 70.2h.312c.008.132.01.275.012.41-.11 0-.22-.005-.334-.01 0-.132.005-.268.01-.4m.258-1.94h.01l.03 1.295c-.084-.003-.17-.005-.248-.005.05-.44.124-.872.208-1.29m.27 1.94h.43c0 .124-.01.275-.01.432 0-.156.01-.308.01-.432h.217c-.014.146-.02.29-.03.44-.064 0-.133-.007-.197-.01-.145-.002-.29-.007-.44-.013.007-.14.008-.28.02-.417m.25-1.93c.21.006.414.01.633.02-.066.428-.124.857-.168 1.294-.08-.005-.155-.005-.232-.008l-.413-.016c.04-.432.103-.86.182-1.29m.65-2.614c.017-.003.04-.006.062-.016l.418-.128c-.15.72-.292 1.465-.414 2.222-.207-.008-.41-.014-.613-.02.14-.695.326-1.385.548-2.058m62.43 2.1c-.057 1.03-.128 2.066-.23 3.12-.164 1.657-.266 3.454-.295 5.24-.003.362-.008.724-.008 1.077-20.375.175-41.242 0-61.328-.26h-.16c-.005-.02-.014-.044-.022-.07-.168-.525-.3-1.07-.386-1.63-.005 0-.005-.004-.005-.004-.21-1.288-.225-2.646-.113-4.003 7.058.06 14.36.036 18.475-.44-6.043.148-12.28.058-18.42-.14.014-.15.027-.3.046-.447 17.368-.003 35.11.072 52.012-.82-17.37.71-34.792.66-51.926.206.063-.432.134-.863.21-1.293 21.31.567 42.806.786 62.148-.538m-.128 13.304c.025-.48.055-.955.083-1.42.02.473.033.956.05 1.437-.04-.01-.088-.015-.133-.018m.29 4.46c.067 1.87.156 3.74.282 5.586-1.232.226-2.467.444-3.723.637.172-.33.347-.66.326-1.04-.086-1.46-.2-3.137.73-4.216.887-.96 1.466-1.324 1.9-1.257.054.438.123.82.208 1.126-.035-.355-.046-.723-.06-1.084.122.05.232.133.338.25m.786 1.503c.013 1.334.037 2.655.09 3.96-.187.035-.37.076-.555.107-.096-1.786-.142-3.573-.153-5.353.208.31.406.75.618 1.285m-.445-8.185c.207-.005.415-.008.618-.016-.028.827-.068 1.657-.09 2.492-.197-.073-.414-.128-.64-.177.033-.768.07-1.536.113-2.3m.087-37.41c.007.035.026.084.04.14-.033.038-.06.06-.087.077-.012-.026-.02-.055-.03-.078.02-.05.05-.095.077-.14m1.064 26.85c-.124 2.447-.278 5.077-.41 7.8-.182.008-.366.01-.543.01.178 0 .362-.002.544-.01l-.053 1.1c-.193.006-.39.006-.585.006.03-.364.062-.726.096-1.095.22-2.66.534-5.277.954-7.81m1.082 15.283c1.33 1.958 2.137 4.19 2.83 6.463-.39.09-.777.172-1.168.26-.496-2.124-.947-4.346-1.662-6.723m-.48 7.184c-.356.075-.714.144-1.07.21-.035-1.112-.047-2.24-.04-3.375.262 1.022.604 2.127 1.11 3.165m-1.13-12.07c-.205.005-.407.007-.61.01.02-.377.04-.762.064-1.145.197-.005.397-.005.596-.01-.016.377-.032.76-.05 1.144M266.02 92.35c0 .77-.052 1.938 1.337 2.567-9.968-1.113-19.746-2.72-29.206-4.773-.042-.194-.077-.396-.112-.596 8.824.92 18.274 1.946 27.98 2.802m24.23 1.64c1.512.06 3.02.112 4.522.156-.087.814-.11 1.764.278 2.528-1.503-.026-3.01-.06-4.514-.106-.144-.84-.234-1.7-.285-2.578m-1.08 3.307l1.19-.016c.116.45.26.893.432 1.324-.375.006-.746.016-1.122.016-.193-.444-.362-.887-.5-1.323m.612-3.33c.093.882.217 1.748.396 2.594-.41-.012-.827-.022-1.238-.038-.23-.87-.377-1.737-.46-2.61.433.016.87.037 1.302.055m-1.376-.996c-.13-2.348.08-4.813.177-7.68.81 2.495.894 5.166 1.113 7.762-.427-.027-.862-.055-1.29-.08m-1.058-.07c.007-.246.017-.485.026-.728.095.242.185.494.267.75-.097-.008-.196-.016-.292-.02m-2.774-5.53c2.158-1.615.97-.905 1.37 1.02-.052 1.13.01 2.5.47 3.672.08.21.145.483.208.785-1.075-.074-2.16-.15-3.23-.228-.164-.684.627-1.097.584-1.755-.09-1.225-.232-2.645.598-3.493m-3.994 7.995c.08.14.176.288.37.374.09-.172-.147-.495-.237-.66-.054-.107-.442-.594-.34-.69.314.372.59.812 1 1.145.034-.1.023-.206.09-.295.15.16.172.406.393.52.03-.26-.06-.5 0-.756.053-.215.125-.392.058-.61.133.276.188.622.483.854.104-.09.078-.216.062-.34l.1.05.068-.168.164.04-.118-.034.07-.023c.115-.238.098-.51.04-.773-.036-.148.008-.273.083-.39 1.325.077 2.65.152 3.98.215.177.697.445 1.376.975 1.696-.278-.518-.4-1.087-.45-1.667.19.01.387.017.583.026.265.866.526 1.75.83 2.633-2.946-.113-5.876-.267-8.805-.467.017-.26-.007-.54.133-.763.15.17.34.372.425.562.024-.163.125-.314.042-.483m8.49 1.927c.167.447.36.89.566 1.326-5.12-.008-10.315-.44-15.308-.963-.066-.085-.13-.166-.19-.25 4.933-.04 9.924-.064 14.933-.113m-15.72-1.777c-.156-.812-.137-1.677-.03-2.562 1.693.13 3.384.252 5.076.367-.054.943.063 1.99.86 2.676-1.978-.14-3.944-.295-5.906-.48m.582 1.89c.06.076.116.15.18.225-.644-.067-1.29-.136-1.927-.206.582-.006 1.167-.01 1.747-.02m-.74-10.096c.112 1.477-.102 2.965-.255 4.4-.386-.036-.77-.073-1.155-.112.286-1.27.8-2.652 1.41-4.288m-1.543 1.128c.258-.14.415-.17 0 0m-.068 4.378c.42.03.834.067 1.258.104-.05.885-.018 1.75.186 2.573-.403-.04-.813-.068-1.21-.107-.257-.864-.32-1.7-.234-2.57m-3.165 1.618c.087.088.202.194.4.255.072-.115-.195-.33-.302-.45-.067-.065-.498-.403-.41-.463.35.252.672.55 1.108.777l.055-.192c.168.106.22.275.448.35 0-.168-.113-.337-.075-.51.023-.137.076-.256-.012-.404.16.19.254.422.573.58.086-.06.053-.145.022-.23l.108.036.022-.052c.097.102.212.192.36.255-.088-.145-.145-.292-.184-.443.016-.11-.01-.22-.062-.34-.008-.107-.008-.21 0-.315.114-.17.39-.302.438-.483.24.836.445 1.71.78 2.565-1.27-.122-2.535-.257-3.797-.397.016-.195-.086-.427.058-.6.164.113.37.254.472.38.014-.104.103-.208 0-.32m28.102 2.252c-.044 0-.085-.003-.13-.005.018-.037.02-.076.042-.107.028.034.06.076.087.112m.394.003h-.01c-.003-.01-.003-.02-.01-.03.007.012.015.02.02.03m-.216-1.043c.274.34.526.73.855 1.05l-.342-.002c-.057-.128-.14-.255-.18-.338-.054-.1-.433-.61-.332-.71m1.193 1.053h-.173c.01-.062.023-.12.063-.174.047.048.078.11.11.173m7.356-2.427c.432 0 .867-.002 1.302-.008.07.788.156 1.566.277 2.333-.424.007-.845.027-1.265.035-.155-.78-.255-1.563-.314-2.36m.036-8.342c.858 2.47.996 5.113 1.208 7.69-.426 0-.852 0-1.282-.002-.112-2.36.065-4.84.074-7.687m-1.12 7.675c.007-.203.01-.398.022-.593.076.194.14.397.206.593h-.23m-3.065-5.207c.744-.798 1.72-1.362 1.69-.964-.412.062-.005.59-.073 1.65-.035 1.158.04 2.594.504 3.8.074.19.13.44.188.71-1.216-.022-2.432-.054-3.65-.087.09-.534.653-.925.634-1.5-.067-1.273-.156-2.722.707-3.61m-2.852 7.255c.126.283.18.637.474.88.103-.097.084-.225.067-.352l.106.05.063-.17.16.04-.117-.035.076-.025c.115-.245.104-.523.05-.8-.08-.423.372-.667.567-.992 1.292.02 2.58.03 3.86.034.19.872.452 1.803 1.095 2.22-.353-.692-.462-1.447-.485-2.217.15 0 .297-.003.448-.003.24.772.472 1.566.714 2.36-2.39.054-4.778.07-7.158.06-.01-.14-.022-.282.016-.423.052-.212.127-.398.063-.625m14.432.715c-1.82.092-3.638.164-5.46.216-.086-.762-.143-1.537-.177-2.32 1.376-.015 2.743-.038 4.102-.08.112.88.48 1.737 1.535 2.184m3.357-3.732c-.254-.665.537-1.107.445-1.745-.176-1.146-.392-2.525.396-3.285 1.643-1.26 1.37-.46 1.98 1.402.122 1.082.392 2.338 1.016 3.37.134.22.262.544.402.898-1.536.09-3.082.166-4.635.216.196-.276.524-.517.395-.856m5.3.578c-.132.002-.257.016-.383.02-.054-.31-.09-.626-.12-.928.17.292.343.598.502.908m-.434-7.7c1.288 2.34 1.772 5.01 2.427 7.552-.432.034-.864.07-1.303.1-.53-2.29-.697-4.765-1.124-7.65m-48.375-8.628c1.16-.014 2.336-.02 3.54-.023.01.023.013.047.022.067-1.193-.02-2.375-.035-3.562-.044m3.837.72c.07.132.14.272.214.39-.06-.13-.106-.263-.162-.39 20.166.155 41.058.21 61.24-.055.002.387.003.774.02 1.154-34.546.646-68.902.337-101.043-1.18-.006-.106-.01-.213-.014-.316 12.595.133 26 .287 39.744.395m-39.04 12.34c-1.027-.226-2.044-.45-3.057-.686-.01-.036-.022-.073-.027-.11.975.1 1.97.204 2.97.306.04.166.075.33.113.49m-.49-9.31c1.775.037 3.548.076 5.33.128 13.115.35 28.007.47 41.714.143 10.033-.262 30.32-.085 38.912-1.09-11.526.478-23.664.293-34.993.12 16.41-.387 33.277-.654 49.878-1.07v.02c.028.57.028 1.325.03 2.134-.163-.01-.332-.02-.508-.02-3.12.52-4.38 2.748-5.13 4.228-.52.846-.884 1.696-1.187 2.53-.575 1.566-.934 3.13-1.098 4.68-1.768.208-3.553.39-5.355.54-.2.017-.405.035-.6.048-.255-1.212-.466-2.46-.738-3.704.365 1.054.805 2.33 1.338 3.657-.533-1.326-.973-2.606-1.338-3.66-.23-1.073-.51-2.143-.898-3.18-.57-1.13-1.39-2.856-3.987-3.29-2.98-.237-4.646 2.135-5.156 3.328-.458.725-.775 1.444-1.035 2.14-.53 1.433-.82 2.832-.882 4.203-.016.327-.035.7-.027 1.087-1.357.02-2.72.026-4.09.02-.08-2.233-.078-4.53-.5-6.764-.31-1.02-1.076-3.948-4.742-3.654-2.882.704-3.743 2.483-4.49 3.732-.47.696-.833 1.4-1.14 2.104-.628 1.415-1.055 2.846-1.258 4.28-1.556-.07-3.112-.155-4.674-.248-.084-2.27-.042-4.61-.46-6.893-.44-1.098-.63-3.493-4.253-3.878-3.242.47-4.017 2.482-4.743 3.647-.465.692-.797 1.38-1.087 2.06-.597 1.4-.992 2.8-1.156 4.206-1.675-.146-3.346-.294-5.008-.452.212-1.237.486-2.517.56-3.805-.26-.574.687-2.99-3.572-3.454-3.513 1.663-2.73 2.67-3.38 3.572-.245.47-.436.944-.586 1.407-.175.512-.306 1.023-.394 1.536-8.652-.913-17.085-1.935-25.046-2.843-1.12-.125-2.245-.247-3.368-.372-.404-2.358-.69-4.756-.884-7.17m129.534-3.717c-.344 2.575-.36 4.93-.854 7.44-.28 1.476-.4 3.17-.318 4.717.07 1.13.033 3.45.532 4.383-.24-1.288-.176-2.677-.07-3.96.252 2.797.45 5.73 1.22 8.418-1.306-5.06-.905-10.388.572-15.057-.693 5.42-1.478 12.805.992 17.903.188.382.424.8.65 1.1-2.978-4.908-2.15-12.175-1.385-17.712.322-2.414.607-4.836.687-7.302 4.2-.143 8.34-.312 12.383-.5-.146 2.295-.248 4.5-.623 6.803-.29 1.825-.472 3.904-.426 5.818.038 1.4-.178 4.23.27 5.426-.158-1.606 0-3.302.183-4.878.103 3.467.087 7.082.497 10.492-.59-6.39-.093-12.854 1.414-18.722-.5 5.124-1.265 11.39-.993 17.044-.157-1.735-.205-3.34-.205-4.54 0 1.2.048 2.808.205 4.543.077 1.588.24 3.117.506 4.568-18.82 1.852-38.773 3.826-59.303 3.972-27.068.422-54.42-1.186-78.968-2.663-1.382-2.396-2.506-4.927-3.406-7.556.71.105 1.418.203 2.124.318 8.626 1.34 18.45 2.24 27.504 2.205 5.296-.033 14.91.593 21.482-.02.378.823.858 1.616 1.508 2.35.286.333.672.692 1.058.942-1.104-1.004-1.832-2.12-2.33-3.313 1.562-.154 2.947-.378 4.045-.703-1.407.096-2.828.138-4.254.16-.15-.432-.277-.876-.38-1.323 1.577-.02 3.16-.044 4.74-.07.21.22.468.41.797.56.07-.177.077-.378.08-.575 3.047-.065 6.087-.148 9.117-.273.358 1.144.77 2.288 1.334 3.383-.54-1.15-.896-2.272-1.138-3.394.42-.017.84-.032 1.252-.054.364 2.144 1.034 4.162 2.526 5.9.28.345.67.728 1.056.99-2.086-1.99-2.873-4.364-3.2-6.908 4.95-.23 9.854-.564 14.674-1.072-3.032.26-6.07.448-9.1.6.09-.31-.05-.698.13-1 .156.153.354.34.453.516.017-.15.11-.305.017-.458.086.13.195.266.39.34.08-.17-.174-.468-.277-.63-.06-.093-.48-.542-.384-.64.342.34.647.75 1.068 1.047.033-.096.014-.19.072-.283.162.146.2.388.43.487.012-.255-.096-.487-.05-.742.038-.208.097-.382.018-.587.15.252.23.585.538.798.093-.096.066-.22.042-.333l.103.037.057-.16.166.022-.117-.022.066-.028c.09-.227.06-.477-.01-.716 1.658-.078 3.3-.174 4.924-.286.297.716.676 1.444 1.32 1.688-.397-.51-.612-1.108-.743-1.728.175-.013.35-.03.526-.044.84 1.62 1.625 3.366 2.84 4.893-1.162-1.618-1.827-3.235-2.266-4.94.438-.04.872-.07 1.306-.11.704 2.624 1.648 5.074 3.928 6.824.333.26.772.526 1.194.678-2.99-1.776-3.99-4.528-4.65-7.54.225-.023.45-.045.68-.065 1.732-.166 3.453-.356 5.148-.577-.003.034-.012.072-.012.104-.133 1.535-.376 4.095 1.524 4.888.146-.424-.023-.957.18-1.38.153.193.346.415.44.63.02-.187.117-.384.028-.57.084.155.185.32.384.407.082-.22-.164-.58-.263-.775-.056-.116-.458-.663-.357-.793.328.416.618.913 1.032 1.27.037-.12.026-.246.082-.357.155.174.19.474.416.583.02-.312-.073-.596-.02-.91.04-.253.11-.477.038-.736.133.314.204.726.51.975.097-.122.07-.27.05-.413l.106.048.06-.202.167.018-.12-.018.072-.047c.11-.295.084-.62.018-.933-.13-.658.75-1.043.585-1.686-.075-.303-.01-.573.092-.83 1.313-.22 2.614-.45 3.894-.708.067.907.13 1.81.214 2.697-.07-.9-.123-1.807-.174-2.704l.55-.104c.122 2.812.362 5.53.794 8.023.125.7.293 1.48.465 2.07-.685-3.12-1.006-6.564-1.118-10.12.16-.036.324-.064.48-.096.23-.05.47-.103.705-.152.093.177.176.36.277.536.572.976 1.117 3.27 2.3 3.9-.798-1.148-1.056-2.563-1.3-3.89 1.43 2.494 2.513 5.412 4.273 7.94-1.907-2.924-2.745-5.85-3.48-8.97.396-.105.783-.207 1.17-.313 1.296 4.287 2.223 8.7 5.516 11.682.368.347.845.703 1.29.92-4.156-3.042-4.996-7.908-6.235-12.76.922-.262 1.8-.532 2.575-.813-.864.233-1.736.454-2.61.665-.486-1.89-1.035-3.77-1.873-5.535-.57-.944-1.362-2.266-2.97-2.923.04-.877.086-1.745.135-2.61 7.873-.204 15.687-.438 23.347-.742-7.77.24-15.56.44-23.34.598.02-.385.04-.762.064-1.145 9.09-.132 18.026-.32 26.668-.605m15.98 5.993c.243-2.208.452-4.43.564-6.67 2.462-.12 4.898-.246 7.292-.387 1.325-.08 2.71-.162 4.084-.25-.23 1.99-.426 3.908-.876 5.906-.355 1.654-.58 3.545-.58 5.295 0 1.278-.285 3.86.125 4.967-.112-1.475.087-3.02.31-4.45.002 3.163-.09 6.466.308 9.582-.56-5.838.156-11.74 1.85-17.014-.92 6.203-2.267 14.325-.772 20.484.098.414.235.864.383 1.238-4.38.406-8.83.835-13.35 1.282-.12-.69-.213-1.396-.284-2.112.102.658.222 1.32.366 1.978-.145-.658-.265-1.32-.366-1.982-.576-5.798.34-12.342.948-17.868m-293.697-2.5c-.936.144-2.566.227-3.54.372.006-.275 0-.546-.012-.82 1.354-.087 2.716-.24 3.628-.316.38-.04 1.35-.15 2.413-.263.018.066.02.135.03.202-2.007.252-4.014.51-5.508.807 1.012.01 2.01-.023 2.99.016m-3.575-.793c.193-.013.39-.02.57-.034-.188.02-.377.036-.566.057 0-.008 0-.02-.004-.024m-.063-.515c.17.002.342.002.5.013-.153.022-.325.043-.488.065 0-.022-.006-.05-.012-.077m203.85 33.17c24.63-.84 50.487-2.156 74.46-4.99-39.8 4.404-80.545 4.218-118.133-.16-.273-.388-.545-.777-.8-1.17 20.788 1.13 43.54 2.125 66.23 1.945 24.768 0 49.166-2.284 71.05-4.658.04.19.068.38.115.566.11.51.274 1.078.445 1.505-.197-.67-.353-1.366-.48-2.078 2.84-.308 5.647-.617 8.408-.924 3.65-.424 7.754-.76 10.9-1.23-1.985.17-3.994.35-6.013.536-1.473-4.81-.883-10.712-.078-16.096-.09 1.212-.17 2.622-.22 4.128.05-1.506.13-2.92.22-4.128.21-1.428.437-2.822.644-4.148.33-1.956.623-3.922.834-5.91 1.644-.11 3.216-.236 4.58-.37-1.51.103-3.03.202-4.575.298.034-.34.066-.68.095-1.014.054-.62.098-1.233.13-1.86l.24-2.44c.157-1.674.276-3.356.307-5.034.024-1.49.148-4.14-.826-4.783-.064.476.022 1.012-.076 1.467l-.226-.6c-.012.2-.057.415-.012.6-.045-.156-.1-.312-.196-.377-.04.23.085.574.14.765.03.11.235.627.186.765-.17-.38-.32-.86-.53-1.18l-.042.378c-.076-.16-.098-.462-.206-.55-.012.322.04.604.014.937-.02.263-.055.502-.014.765-.073-.312-.11-.726-.266-.952-.048.14-.032.29-.024.437l-.054-.033-.027.216-.08-.003.058.008-.032.055c-.055.322-.035.658 0 .973.075.674-.367 1.202-.268 1.862.126.827-.266 1.607-.205 2.463.115 1.568.31 3.187.086 4.755-.075.5-.137.983-.2 1.467-.04.354-.088.697-.127 1.043-3.722.214-7.512.414-11.374.583.018-.388.03-.77.04-1.157.022-.605.038-1.206.038-1.812l.104-2.705c.048-1.842.062-3.704-.016-5.548-.074-1.642-.125-4.557-1.13-5.182-.038.523.085 1.105.018 1.61l-.266-.637c.004.213-.028.457.027.657-.048-.17-.114-.338-.218-.4-.026.255.122.624.186.825.034.12.275.67.236.83-.19-.41-.375-.924-.605-1.255l-.017.417c-.092-.17-.13-.502-.248-.588.014.35.082.66.082 1.02-.007.296-.03.562.03.843-.093-.336-.154-.788-.326-1.02-.04.155-.013.32.008.48l-.057-.033-.018.233-.08.006.058.006-.03.06c-.028.356.01.72.065 1.066.114.73-.29 1.343-.145 2.055.176.896-.165 1.776-.043 2.708.215 1.706.514 3.472.353 5.2l-.104 1.24c-3.987.135-8.133.265-12.392.39 4.258-.125 8.404-.252 12.392-.39-.03.393-.057.782-.084 1.17-4.064.17-8.194.32-12.38.44.003-.092.006-.183.013-.28l.06-.94.083-1.215c.07-1.478.117-2.965.054-4.447-.06-1.32-.092-3.67-1.098-4.167-.04.42.078.887.006 1.287l-.26-.507c.003.17-.038.364.024.52-.05-.13-.117-.265-.217-.316-.027.208.12.502.174.663.042.096.275.538.233.663-.188-.325-.365-.74-.597-1.01l-.016.334c-.086-.136-.125-.396-.242-.466.007.278.074.528.066.816-.003.234-.022.447.03.67-.09-.27-.155-.628-.315-.812-.04.12-.02.252 0 .377l-.057-.026-.017.19h-.083l.06.004-.03.05c-.03.283 0 .577.056.85.114.588-.295 1.07-.16 1.642.17.72-.188 1.415-.08 2.164.128.918.28 1.854.32 2.79-6.43.178-13.092.34-19.848.48 6.756-.14 13.418-.302 19.85-.48.02.412.01.82-.03 1.23-8.704.24-17.63.396-26.665.48.02-.37.044-.733.067-1.098.117-1.915.243-3.784.354-5.574.055-.968.11-1.935.155-2.908 3.463-.257 6.86-.566 10.163-.934 3.054-.275 6.434-.843 8.972-1.298-6.114.916-12.52 1.582-19.12 2.053.017-.384.032-.764.05-1.146.137-3.062.216-6.14.14-9.25l.017-3.718c-.013-2.55-.07-5.11-.23-7.65-.036-.673-.087-1.498-.16-2.354.198-.333.4-.705.615-1.136-.208-.135-.48-.065-.734-.058-.026-.236-.057-.46-.088-.69.118-.15.237-.29.355-.387-.138-.02-.28-.134-.436-.072-.002-.018-.005-.03-.012-.052.148-.156.3-.354.426-.663-.12-.1-.324.044-.512.22-.027-.134-.06-.264-.092-.39.144-.205.28-.42.417-.644-.12-.063-.258-.035-.364-.15.218-.32.556-.386.748-.834-.353-.034-.698.154-1.053.115-.294-.046-.56-.142-.85.053.356-.335.85-.543 1.21-1.18-.146-.175-.34-.103-.526-.04l.06-.213c-.074.003-.17-.106-.258-.088l.034-.333-.028.236-.057-.13c-.396-.148-.822-.083-1.22.17-.776.54-1.673-1.12-2.458-.327-.877.873-2.25-.066-3.13.818-1.44 1.667-1.994 3.61-3.633 4.13-3.03 1.02-5.025 2.947-7.73 2.24-.75-.25-1.36-.43-1.765-.633-.368-.03-.245-.174-.108-.273-.307.013-2.307-.905-4.032.556 2.087-.424 3.256.466 3.883 1.21-1.103.18-7.48-.72-10.225 2.286 2.657-2.393 8.057-2.042 9.598-.656 1.447 1.31 3.94 2.442 8.255 3.03-3.627 1.215-7.363.476-10.233-1.184-3.587-1.604-8.215.305-9.245 4.206-.2.588-.34 1.374-.373 2.156.616-4.64 4.207-6.96 8.064-5.948 1.776.518 3.09 1.605 4.95 2.292 1.978.697 4.177.54 6.114.245 3.62-.666 6.697-2.2 8.438-3.62.608-.232 1.124-.454 1.552-.612.91-.322 1.302-.377 1.744-.76.098-.122.257-.205.477-.34-.045.406-.08.814-.002 1.25.215 1.224-.096 2.444.058 3.718.278 2.347.638 4.766.53 7.15-.128 2.92-.145 5.665-.252 8.42-.013.39-.03.78-.05 1.173-19.646 1.272-41.007.887-62.053.188.158-.808.337-1.602.517-2.366 1.554-.496 3.162-.962 4.77-.702 3.57.492 6.81.52 10.232 1.543 1.995.6 4.275.985 6.377.9 1.533-.063 4.68.358 6-.523-1.776.31-3.652 0-5.395-.372 3.822-.183 7.836-.172 11.588-1.113-7.077 1.448-14.177.234-20.59-2.765 7.476 1.353 17.385 3.862 24.66.34.545-.268 1.14-.634 1.577-1.003-7.075 4.473-16.822 1.754-24.455.145-3.548-.73-7.148-1.32-10.834-1.19-.934-.084-1.883-.115-2.83-.095.14-.723.268-1.446.366-2.177l.326-1.595c.25-1.082.422-2.182.59-3.274.167-.962.535-2.656-.343-3.316-.107.305-.076.684-.218.965l-.162-.456c-.026.135-.094.266-.066.4-.027-.11-.068-.228-.154-.296-.063.15.026.41.055.545.016.083.168.465.11.55-.128-.29-.23-.638-.405-.9l-.074.25c-.063-.128-.047-.34-.154-.422-.034.216-.02.42-.077.64-.047.174-.1.333-.092.516-.038-.228-.033-.517-.162-.698-.06.083-.062.19-.068.294l-.045-.04-.052.144-.082-.02.055.017-.034.03c-.087.212-.107.443-.103.667.012.47-.498.752-.435 1.223.078.585-.354 1.062-.34 1.662.017 1.092.135 2.21-.13 3.258-.21.716-.355 1.407-.486 2.097-1.413.055-2.83.153-4.23.413-1.824.364-5.102.866-5.472 2.944.588 0 1.19-.32 1.764-.255-.18.208-.387.458-.622.614.235-.038.51-.004.705-.143-.165.125-.33.27-.37.484.287.017.645-.327.853-.473.118-.09.655-.637.843-.58-.4.435-.91.86-1.212 1.365.16-.002.302-.052.46-.023-.162.2-.51.316-.568.566.372-.075.688-.25 1.08-.29.32-.027.612-.032.904-.18-.346.228-.815.418-1.018.78.167.057.346-.012.508-.07l-.02.113.26-.006.025.166-.012-.116.07.052c.39.01.77-.106 1.124-.268.767-.323 1.5.382 2.24.033.483-.215.984-.15 1.497-.082-.13.67-.213 1.355-.22 2.023-9.48-.324-18.878-.706-28.006-1.014-.674-1.345.333-2.876.992-4.125.373-.717.693-1.447.706-2.196l.122-.614c.058-.416.083-.84.01-1.26-.064-.37-.096-1.037-1.102-1.177-.04.12.08.25.01.366l-.263-.147.026.146c-.053-.037-.115-.076-.217-.092l.177.188.23.19c-.187-.095-.364-.212-.597-.287l-.015.093c-.09-.036-.125-.11-.246-.133.01.078.08.148.072.23l.03.19c-.09-.076-.154-.178-.32-.232v.11l-.052-.01-.02.056h-.082.062l-.03.01c-.035.086 0 .167.055.242.116.164-.297.297-.152.46.172.198-.177.394-.06.602.205.388.493.785.324 1.17-.32.726-.343 1.384-.866 2.065-.3.397-.495.87-.456 1.31.03.316-.202.956.23 1.24-.146-.373.02-.753.212-1.11.08.792.055 1.616.437 2.39-.55-1.454-.018-2.916 1.522-4.175-.622 1.334-1.63 3.056-.84 4.494-3.205-.11-6.373-.208-9.505-.297.107-3.878.305-7.675.49-11.293.374-7.993.654-15.89-.13-23.64.03-2.135.018-4.255-.02-6.362-.053-4.315-.098-8.578-.33-12.727-.314-3.808.385-9.774-3.952-12.34-.402 1.18-.157 2.597-.623 3.72-.364-.512-.846-1.13-1.02-1.708-.1.5-.32 1.048-.122 1.568-.195-.435-.44-.895-.902-1.134-.217.608.357 1.604.585 2.126.112.315 1.11 1.75.89 2.097-.853-1.064-1.517-2.4-2.503-3.397-.086.34-.068.692-.225 1.014-.37-.48-.424-1.326-.965-1.638-.062.892.133 1.706-.005 2.606-.094.73-.24 1.378-.047 2.104-.352-.874-.563-2.04-1.29-2.74-.25.378-.164.805-.116 1.224l-.256-.12c-.006.185-.146.408-.133.6h-.18l.06.01-.165.134c-.243.903-.164 1.86.07 2.747.446 1.875-1.564 3.348-.91 5.19.846 2.262-.796 4.496-.13 6.83 1.217 4.26 2.997 8.444 2.664 12.765-.59 8.167.49 15.4-.618 23.447-.386 2.79-.505 5.77-.305 8.69-.355-.012-.717-.017-1.07-.024-2.53-.058-5.062-.114-7.603-.17.24-1.034.757-2.06 1.128-3.063.328-.905.603-1.81.572-2.73l.09-.75c.038-.502.038-1.004-.057-1.506-.077-.44-.147-1.23-1.162-1.404-.028.146.1.302.03.445l-.27-.177.035.183c-.056-.044-.12-.094-.223-.112-.025.077.124.176.187.23l.24.224c-.193-.106-.376-.247-.612-.34l-.007.116c-.094-.047-.13-.136-.252-.16.015.095.087.18.082.282 0 .083-.02.153.04.23-.092-.093-.16-.215-.33-.28l.007.136-.058-.013-.013.067h-.08.057l-.026.02c-.03.1.01.2.068.298.125.202-.278.374-.13.574.183.242-.153.494-.028.755.23.467.535.945.39 1.424-.278.902-.257 1.72-.74 2.588-.295.497-.492 1.04-.445 1.553.027.352-.166 1.025.184 1.387-5.394-.112-10.79-.208-16.21-.28-.125 0-.25 0-.376-.006.23-.528.506-1.054.782-1.587-.13.45-.276.993-.406 1.59.134-.597.28-1.14.406-1.59.226-.433.45-.877.655-1.335.407-.954.756-1.953.734-2.957l.1-.827c.032-.56.03-1.123-.066-1.674-.088-.486-.18-1.355-1.198-1.496-.028.16.1.325.04.48l-.275-.18.04.194-.224-.11c-.02.08.13.184.198.238l.246.233c-.202-.11-.386-.257-.62-.343l-.01.125c-.092-.047-.136-.144-.258-.167.02.11.094.195.094.302 0 .083-.013.164.047.247-.1-.097-.167-.23-.34-.292l.01.148-.056-.01-.01.07-.084.002h.06l-.03.02c-.024.107.016.212.077.31.13.214-.267.41-.118.612.185.257-.148.522-.023.796.236.494.54 1.012.372 1.516-.287.952-.35 1.816-.898 2.674-.33.497-.597 1.027-.598 1.553.016.397-.362 1.014-.04 1.437-1.838-.02-3.683-.04-5.526-.057.434-1.088 1.182-2.128 1.758-3.064.54-.918 1.03-1.886 1.14-2.968.088-.286.17-.566.197-.876.065-.614.13-1.233.03-1.86-.113-.562-.247-1.573-1.263-1.61-.007.09.023.175.048.264-7.48.832-15.042.195-21.9-1.23 6.017.48 13.404 1.25 20.05.855-1.542.154-3.008.232-4.24.27 1.232-.037 2.697-.115 4.24-.27 2.24-.137 4.393-.4 6.38-.852.594-.128 1.253-.308 1.753-.492-1.657.474-3.434.78-5.27.98 1.318-.207 2.64-.475 3.894-.828-1.254.354-2.575.62-3.893.827-6.8.736-14.53-.13-21.016-.75-3.79-.343-7.617-.626-11.5-.61-1.053-.052-2.12-.075-3.18-.062-2.178.005-4.366.047-6.543.182-1.927.117-5.366.258-6.055 1.285.62.016 1.298-.125 1.894-.067l-.74.283c.256-.013.536.013.77-.05-.193.058-.392.125-.46.232.153.005.336-.026.51-.073.023.075.037.15.014.22-.006.004-.014.007-.017.01l-.26-.154.042.184-.228-.097c-.02.075.13.17.196.22l.097.087c-.013.008-.028.016-.04.026-.135-.078-.27-.153-.436-.203l-.003.117c-.092-.044-.135-.133-.256-.148.018.097.092.177.092.278 0 .084-.013.156.046.23-.098-.087-.168-.207-.34-.26l.013.13-.054-.004-.01.07-.084.002h.06l-.03.016c-.026.104.013.2.076.292.13.2-.268.39-.115.58.19.24-.142.494-.013.75.242.462.564.948.4 1.435-.3.92-.3 1.748-.8 2.624-.292.515-.47 1.112-.415 1.653.043.393-.167 1.204.276 1.537-.155-.452-.004-.938.178-1.386.077.75.1 1.537.315 2.3-4.934-.006-9.877.015-14.823.06.208-1.616.36-3.24.427-4.886l.203-2.68c.11-1.835.17-3.69.088-5.54-.023-1.06-.107-2.71-.476-3.877.01-.033.026-.056.038-.095-.018 0-.045.01-.066.016-.126-.376-.283-.693-.484-.925.008-.01.016-.02.016-.03-.044-.07-.093-.093-.146-.1-.06-.053-.13-.1-.203-.14l.005-.012-.195-.085.005-.33-.005.236-.047-.133c-.3-.116-.624.063-.89.313-.51.54-1.324-1.045-1.806-.338-.453.887-1.567-.218-2.07.48-.782 1.292-1.17 2.794-2.293 2.628-2.132-.356-2.85-.367-3.877-2.398-1.04-1.256-2.5-2.078-4.383-1.74-1.25.18-4.476.132-4.607 2.192.92-1.1 2.826-.892 4.316-.375-3.36.845-5.572 2.234-5.965 3.88.44-1.21 2.463-2.556 5.41-2.088 2.803.52 4.125 2.906 5.926 5.86-2.214-1.262-3.972-3.625-6.988-3.487-3.278.236-3.234 1.506-5.927 4.04-.467.376-1.05.815-1.67 1.312 4.24-2.485 3.924-4.337 6.817-4.407 2.707-.314 4.85 1.89 6.577 3.57 2.233 1.718 6.298 1.853 8.14.83.534-.023 1.256-.247 1.56-.27.255-.058.462-.102.632-.144.177 1.455.335 2.943.13 4.4-.216 1.492-.363 2.926-.532 4.34-4.574.048-9.15.105-13.708.17-9.797.106-27.267.138-31.026 2.14 3.148.087 6.627-.15 9.654 0-1.082.17-2.314.373-3.594.495-.278-.17-.6-.29-.973-.33 0 .463.317.928.25 1.383-.207-.135-.453-.294-.608-.47.04.184.002.402.143.556-.127-.13-.277-.252-.49-.275-.012.23.33.498.475.654.093.094.638.494.583.64-.437-.29-.86-.68-1.362-.895 0 .124.052.235.025.36-.204-.117-.32-.388-.57-.43.075.3.25.545.288.856.034.255.034.49.178.716-.223-.27-.41-.63-.775-.78-.055.146.013.275.074.408l-.116-.014.007.214-.166.025.115-.013-.053.06c-.012.315.11.62.268.897.334.592-.39 1.242-.013 1.812.468.718-.1 1.576.257 2.338.167.364.346.736.52 1.105-1.947.083-3.834.182-5.604.3-.035-.308-.083-.617-.146-.916-.208-1.028-.442-2.06-.943-2.987-.437-.827-1.077-2.36-3.08-1.966.03.29.367.51.328.82-.207-.04-.455-.074-.612-.15.045.107.023.253.17.315-.13-.05-.28-.094-.48-.052-.005.146.338.233.49.296.092.037.644.156.597.266-.44-.08-.872-.22-1.364-.234.008.076.062.133.044.22-.2-.024-.328-.167-.572-.128.09.166.27.278.328.465.044.148.057.29.215.396-.23-.108-.438-.29-.792-.293-.048.104.026.167.093.234l-.114.022.014.128-.157.06.115-.036-.048.047c.002.2.135.36.302.495.355.288-.308.845.084 1.11.48.346-.05.993.317 1.39.256.288.544.574.793.876-2.948.31-5.238.716-6.405 1.246 2.26.034 4.666-.044 7.007-.09.03.137.04.277.023.43-.008.043-.008.082-.01.124-.01 0-.018.005-.027.005h.028c-.13 1.76.14 3.27-.533 5.025-.403 1.045-.614 2.158-.35 3.12.185.708-.08 2.222.883 2.74-.414-.797-.208-1.712.05-2.586.436 1.778.643 3.664 1.6 5.4-1.454-3.305-.915-6.644 1.427-10.366-.557 3.987-2.32 8.822.94 12.223.248.258.595.54.948.752-4.093-3.345-2.01-8.062-1.207-12.198.186-.95.335-1.917.37-2.866 2.055-.047 3.97-.146 6.096-.164-.01.156-.017.31-.022.46-.253.034-.485.076-.696.12.227.016.458.023.688.028-.103 2.56.092 4.9-.52 7.447-.4 1.63-.584 3.44-.305 5.06.204 1.19-.05 3.63.926 4.59-.425-1.354-.23-2.818.02-4.21.297 1.894.5 3.842.852 5.76-6.93.473-12.94 1.414-15.125 3.336 3.725.206 7.86-.205 11.444.133-1.36.34-2.925.756-4.536.982 1.526.008 3.224.174 4.647-.036-1.18.192-2.393.43-2.848.824 1.836.14 4.447-.406 5.897-.63.403-.062 1.49-.296 2.643-.5.043.123.095.248.14.373-2.118.47-4.27.96-5.845 1.548.998.047 1.988.01 2.957.11-1.21.343-3.562.45-4.18.92 2.485-.013 4.685-.244 7.256-.182.328.01.64.018.957.03.114.173.24.347.37.508-1.022.153-1.954.338-2.62.6 1.097.173 2.26.103 3.4.046-.14.064-.225.14-.252.218.507-.002 1.17.107 1.693.09.004.05.03.095.048.147l.012-.055.41.138c2.547.17 5.146.07 7.584-.106 4.787-.35 8.832 1.066 13.404.93.1.193.21.386.325.558-.087-.188-.156-.377-.23-.562.363-.013.726-.036 1.098-.07 6.365-.588 12.59.905 19.21.56 12.15-.633 24.688-1.6 36.965-.768 23.155 1.563 44.21 1.773 66.58 3.75 13 1.176 27.813 1.715 41.44 1.272 9.963-.338 30.173-.067 38.65-2.23-11.436 1.083-23.524.828-34.777.334m115.92-34.392c-.44 2.843-.567 5.44-1.21 8.185-.354 1.593-.578 3.42-.578 5.105 0 1.228-.282 3.717.127 4.778-.117-1.415.084-2.9.31-4.284 0 3.047-.09 6.226.307 9.23-.564-5.624.15-11.307 1.847-16.384-.92 5.972-2.266 13.79-.775 19.723.01.025.013.046.02.066-1.608-.14-3.223-.135-4.82.05-1.23.005-2.446.15-3.663.29-2.486.362-4.967.958-7.31 1.91-2.072.757-5.815 2.643-5.5 4.85.65-.25 1.203-.875 1.872-1.005-.15.264-.315.583-.51.84.238-.147.548-.212.736-.43-.153.19-.295.395-.274.61.32-.09.617-.552.808-.775.107-.135.563-.87.79-.863-.345.543-.792 1.176-.977 1.76.167-.06.312-.16.49-.197-.116.255-.465.497-.455.76.38-.208.676-.494 1.092-.67.337-.15.663-.23.947-.464-.325.33-.8.646-.917 1.083.203-.005.365-.136.534-.242l.004.115.282-.078.067.15-.037-.108.09.027c.433-.104.815-.343 1.17-.6.785-.516 1.74-.024 2.5-.53.955-.68 2.193-.276 3.242-.78 1.95-.872 4.062-1.832 6.248-1.702 4.044.29 7.818.49 11.014 2.463 1.776 1.046 3.523 2.455 5.883 3.556 1.584.76 4.785 2.863 6.694 2.685-2.16-.587-4.022-1.9-5.645-3.16 3.995 1.822 8.533 4.26 13.57 3.98-9.813-.08-15.072-7.215-21.84-11.358 4.545 1.382 8.234 5.005 12.668 7.49 4.18 2.584 10.245 4.13 14.02 1.275.546-.372 1.058-.924 1.344-1.467-1.076 1.492-2.752 2.312-4.638 2.608-2.83.442-6.14-.297-8.66-1.803-4.57-2.275-7.946-6.02-12.49-8.12-2.596-1.154-5.407-1.888-8.263-2.143-1.368-5.686-.05-12.678.878-18.365.49-2.812.926-5.64 1.06-8.53l.24-2.348c.042-.43.07-.856.105-1.288.1-1.18.183-2.372.2-3.56.026-1.432.15-3.983-.82-4.61-.07.46.024.976-.075 1.413l-.23-.575c-.01.185-.05.39-.01.572-.04-.15-.096-.302-.197-.364-.037.224.09.554.137.738.032.107.238.602.188.74-.166-.373-.318-.833-.528-1.143l-.04.363c-.082-.153-.094-.444-.21-.53-.01.307.04.583.014.9-.023.257-.053.488-.013.738-.074-.3-.11-.702-.263-.915-.05.13-.035.274-.025.417l-.058-.033-.025.21-.086-.005.063.007-.038.047c-.052.317-.032.638 0 .94.078.65-.36 1.16-.263 1.796.126.8-.267 1.545-.2 2.37.012.213.03.42.05.64-2.566.147-5.304.296-8.208.44 2.904-.145 5.642-.293 8.208-.44.105 1.308.218 2.64.03 3.946"/></svg>