<svg xmlns="http://www.w3.org/2000/svg" width="505" height="137"><path fill="#FED100" d="M24.36 85.107h19.177v1.304H24.36v-1.303z"/><path fill="#FED100" d="M102.74 85.902v-.85l-59.203.055v.336m230.598-27.61h62.868v.992h-62.868v-.992zm.403 2.59h3.078v2.09h-3.078v-2.09zm8.426 0h3.08v2.09h-3.08v-2.09zm4.214 0h3.078v2.09h-3.078v-2.09zm4.213 0h3.08v2.09h-3.08v-2.09zm4.215 0h3.078v2.09h-3.076l-.002-2.09zm4.21 0h3.08v2.09h-3.08v-2.09zm4.21 0h3.086v2.09h-3.08l-.003-2.09h-.002zm4.216 0h3.08v2.09h-3.08v-2.09zm4.213 0h3.08v2.09h-3.08v-2.09zm4.215 0h3.08v2.09h-3.08v-2.09zm4.21 0h3.084v2.09h-3.08l-.002-2.09h-.002zm4.216 0h3.08v2.09h-3.08v-2.09zm4.215 0h3.08v2.09h-3.08v-2.09zm4.21 0h3.08v2.09h-3.08v-2.09zm-54.902 0h3.35v2.09h-3.35v-2.09zm-165.655 18.62h7.41v1.534h-7.41v-1.534zm14.184.027h7.357v1.5h-7.357v-1.5zm-28.93-.028h7.422v1.535h-7.423v-1.535zm-14.918 0h7.673v1.535H83.3v-1.535zm-14.19 0h7.417v1.535H69.11v-1.535zm-13.99 0h7.41v1.535h-7.41v-1.535zm-14.837 0h7.41v1.535h-7.41v-1.535zm33.554 25.354l.047 1.52h11.8l.066-1.506H75.51M41.164 67.664h1.385v7.327H41.16v-7.325h.002z"/><path fill="#FED100" d="M134.272 76.12h1.648v6.073h-1.648V76.12zM424.2 79.162h42.917v1.39H424.2v-1.39zm-1.04 8.084c.04 3.904.686 18.553.686 18.553h1.744V85.075h-13.896l-.014.83-2.203 2.043.404 17.91h11.22v-1.466h-8.478v-1.38h8.48l.413-12.65h-9.632v1.614h8.242v9.647h-7.504v-1.374h6.184v-6.994h-6.183V91.98h-.737v-3.29h9.68s.1-1.345.072-1.393c-.47-.168-.73-.307-.95-.56-.21-.26-.506-.805-.253-.896l3.65.007s.51.12.218.506c-.17.34-.423.554-.637.685-.212.128-.5.207-.5.206l-.003.002z"/><path fill="#FED100" d="M425.552 85.078h53.77v1.39H425.55l.002-1.39zm-16.092 2.178c-.007-.062.423 18.607.423 18.607h1.812V85.078h-19.002v2.838h1.205l-.022 1.582h-1.147l-.026 10.04 1.628-.007.028 6.334h12.83l.06-1.468h-8.774v-1.38h8.773l.41-12.65h-8.34v1.616h5.93v9.646h-7.51v-1.374h6.186V93.26h-6.188v-1.275h1.58v-3.29h8.434s0-1.38.024-1.354c-.558-.295-.735-.426-.995-.722-.237-.29-.253-.506-.037-.762l3.65-.008c.256.22.22.424.174.55-.176.3-.35.38-.508.554-.35.17-.607.307-.607.307h.004l.003-.004zM71.132 105.93l.08-1.5-12.208-.033.048 1.52M466.42 76.142h7.994v3.022h-7.994v-3.02zm.082 4.412h8v1.688h-8v-1.688z"/><path fill="#FED100" d="M88.547 104.396l.094 1.467h307.11v-1.467M26.908 82.223V80.57h6.052v-1.5h-6.055v-1.605h108.99v-1.39H25.515v6.147H24.34v1.39h455.022v-1.39m-40.327-6.08h26.58v1.905h-26.58V76.14v.003z"/><path fill="#FED100" d="M410.49 66.8c0-.864-.69-1.54-1.536-1.54-.85 0-1.537.676-1.537 1.54 0 .58.33 1.088.82 1.348v14.708h1.51V68.104c.444-.27.742-.756.743-1.304zm14.46 0c0-.864-.688-1.54-1.538-1.54-.85 0-1.537.676-1.537 1.54 0 .58.338 1.088.82 1.348v14.708h1.514V68.104c.44-.27.74-.756.74-1.304zm14.922 0c0-.864-.688-1.54-1.535-1.54-.854 0-1.538.676-1.538 1.54 0 .58.33 1.088.82 1.348v14.708h1.51V68.104c.444-.27.74-.756.742-1.304zm14.698 0c0-.864-.688-1.54-1.534-1.54-.85 0-1.534.676-1.534 1.54 0 .58.335 1.088.818 1.348v14.708h1.513V68.104c.442-.27.738-.756.737-1.304zm13.27 0c0-.864-.685-1.54-1.538-1.54-.85 0-1.535.676-1.535 1.54 0 .58.335 1.088.825 1.348v14.708h1.507V68.104c.44-.27.74-.756.74-1.304zm8.37 0c0-.864-.69-1.54-1.54-1.54-.846 0-1.534.676-1.534 1.54 0 .58.334 1.088.822 1.348v14.708h1.51V68.104c.445-.27.74-.756.74-1.305h.002zm-82.85-15.268l-.37-.67h-.02l-2.482-4.23h-18.2V26.85h-1.573v35.662h1.402v-10.26h1.546v5.235h2.438V52.27h1.54v10.24h5.186v-7.78h2.083v2.784h2.28V54.73h2.21v7.78h1.615v-10.1h2.86l-.515-.878zm-21.57-.67v-2.827h17.96l1.598 2.826-19.558.003zm-34.96-11.685c0-.107-.078-.72-.025-.72.727-.256 2.518-.94 4.146-.592 6.368 1.193 13.63 1.005 16.52-.777.26-.162-.14-1.932.173-1.932h.105c4.01-.238 10.734.034 11.847.82v-8.494c-1.192-1.564-16.413-1.66-16.413-.036 0 1.453.035 5.53.01 7.268l.015.423c-2.567.305-3.95.305-6.867.125-3.832-.477-10.625.218-10.625.868v2c-.54.15-.784.133-1.208.24-1.245.29-1.75.263-3.703.085h-.057c-.895-.072-.834-.23-1.53-.283-.323-.205-1.133-.018-1.335.48 0 0 .707.19.926.217.29-.02.47.06.47.06 3.33 1.24 4.327 1.31 7.557.246h-.005z"/><path fill="#FED100" d="M453.786 81.75h11.844v.473h-11.844v-.473zm-16.173-5.61h-41.297v-8.476l.034-1.693 2.524.016v-1.91H44.292L39 64.04l.024 1.623h2.14v2h353.744v9.204h-259v1.758h258.99v4.23h4.42v-5.592h38.295M88.717 43.705c.025.84.08 1.672.14 2.025.73.522 1.328 1.8.462 1.933-.894-.56-5.22-.316-8.228.045-1.3.145-2.477.524-2.823.732-.73.408-.95.065-1.66 1.312-.015.64-.047.296-.12.66-.097.46-.37.16-.65.27-4.634-.582-4.89-.833-5.503.162.797-.307 2.18.503 2.555.685 2.725 1.1 4.08.866 4.826-.147l.19-1c.057.16-.074-.85.4-.752 2.93.55 10.12 1.12 13.032.045.964-.353 1.152-.306 1.756-1.49.07-.344-.203-1.248-.037-1.682.094-.253.72-.06.69-.253 4.962 0 4.73 0 8.762.508V41.4c-3.272-.604-10.426-.75-12.78.055-1.066.072-1.016.91-1.016 2.205M230.053 1.22l-5.415-.01v11.12h2.414v50.205h-3.915V0h15.23v62.532h-8.185V12.336h.148l6.856-.01c.175-.145.315-.37-.154-.406l-5.835-.958s5.622-.54 5.813-.57c.25-.024.25-.75 0-.76l-5.813-.794 5.813-.496c.253-.12.253-.522 0-.573l-5.813-.92 5.875-.707c.246-.025.246-.515 0-.506l-5.88-.967 5.82-.7c.223-.052.223-.485.053-.53l-5.874-.756s5.667-1.044 5.82-1.05c.255-.013.255-.47 0-.45l-6.324.034h-.63l-.002.002zm-17.3 61.263v-7.61c0-3.513 2.59-4.866 4.452-4.772.335.02 1.678.96 1.8 1.57l-.946 4.51c-1.14-.455-2.28-.06-2.335.56-.04.46-.01.604-.02 1.473v4.274h-2.955l.003-.004zM119.616 45.18h74.99v1.31h-74.99v-1.31zm68.823 5.068h4.35v5.342h-4.35v-5.342zm0 6.912h4.35v5.34h-4.35v-5.34zm-5.958-6.912h4.35v5.342h-4.35v-5.342zm0 6.912h4.35v5.34h-4.35v-5.34zm-59.51-9.036h69.824v2.114h-69.824v-2.114zM453.137 87.64c1.12 0 2.033-.507 2.033-1.144 0-.625-.913-1.13-2.033-1.13-1.136 0-2.053.505-2.053 1.13 0 .637.917 1.143 2.053 1.143z"/><path fill="#FED100" d="M452.305 87.02l-.586 18.84h2.88l-.715-18.84m12.547.62c1.127 0 2.04-.507 2.04-1.144 0-.625-.913-1.13-2.04-1.13-1.123 0-2.03.505-2.03 1.13 0 .637.908 1.143 2.03 1.143z"/><path fill="#FED100" d="M465.607 87.02l-.586 18.84h2.876l-.705-18.84m7.31.62c1.123 0 2.036-.507 2.036-1.144 0-.625-.913-1.13-2.034-1.13-1.127 0-2.037.505-2.037 1.13 0 .637.91 1.143 2.04 1.143h-.003z"/><path fill="#FED100" d="M473.68 87.02l-.588 18.84h2.875l-.715-18.84m-36.908.62c1.117 0 2.04-.507 2.04-1.144 0-.625-.923-1.13-2.04-1.13-1.12 0-2.034.505-2.034 1.13 0 .637.913 1.143 2.034 1.143z"/><path fill="#FED100" d="M437.52 87.02l-.588 18.84h2.888l-.718-18.84M88.528 101.628l.055 1.39h307.165v-1.39"/><g fill="#FED100"><path d="M33.702 87.547c1.126 0 2.032-.52 2.032-1.14 0-.624-.906-.858-2.032-.858-1.123 0-2.04.23-2.04.856 0 .62.917 1.14 2.04 1.14z"/><path d="M32.88 87.3l-.587 20.363h2.877L34.458 87.3"/></g><path fill="#FED100" d="M389.824 99.346h-3.122v-9.712l.233.054c.325.072 2.414 1.32 2.89 2.547v7.11zM245.89 62.54v-7.612c.275-3.525 2.874-4.87 4.737-4.77.328.017 1.67.956 1.79 1.565l-.932 4.508c-1.146-.455-2.284-.06-2.338.56-.04.47-.02.61-.022 1.478v4.274h-3.235v-.002zm41.156-6.246v-6.452c0-4.177 4.058-5.94 6.263-5.795.296.01 1.652.627 1.798 1.337l-1.2 5.54c-1.356-.824-2.843.29-3.1.983-.183.5-.245.863-.257 1.883v2.503h-3.504zM0 122.468s1.87-1.21 4.818-1.21c2.948 0 7.447.088 7.447.088l2.223-.214 13.828.35c-6.553.213-21.686.875-28.316.986zm74.75 13.077c8.14.154 13.323-2.036 21.298-2.44-8.894 2.483-12.887 3.485-21.298 2.44zm-21.757-5.535c7.124-.26 9.535.068 16.28.564l9.68.088 13.19-.145c-15.47 3.663-28.04-.398-39.15-.507zm13.014-2.084c6.24-.842 16.57-1.566 25.97.27-8.126.6-17.17-.016-25.97-.27zm7.263-3.054c4.72-1.573 8.707-1.058 12.058.332l-12.058-.332zm-28.34-.995c7.213.688 16.79.656 28.264-.617-12.143 2.774-17.544 3.438-28.264.617zm-.255 8.303c7.834 0 15.462.178 22.245 2.36-6.35.242-16.204-1.5-22.245-2.36zm-21.098-1.616c9.335-1.11 19.35-2.9 30.258-2.666-9.722.554-18.9 3.086-30.258 2.666zM0 124.834v-.225c9.125-.08 27.952-1.048 31.957-1.048 2.23 0 6.088 1.043 6.088 1.043C26.635 124 11.062 126.86 0 124.83v.004zm9.678 4.273L0 128.06c9.866 0 24.578-1.555 35.11-.74-8.703.21-15.24 1.3-25.432 1.787zm215.057-6.64c8.043 1.834 14.428-1.636 21.58-.523-5.868 1.093-12.752 2.637-21.58.523zm-19.73 1.953c6.105-.742 14.463-1.16 19.88 1.018-6.793-.38-13.57-1.084-19.88-1.018zm-5.282-2.16c5.557-.818 14.535-2.71 19.86-.463-6.083-.75-13.88.67-19.86.463zm-75.667 1.238c7.042-2.006 15.365-1.348 21.51 0h-21.51zm-36.958.132c7.045-.142 12.58-2.69 20.84-1.4-6.9.518-14.135 2.92-20.84 1.4zm324.765-.006c-2.993.495-6.342 1.048-8.15 1.41 8.955-4.767 21.95-3.827 32.252-.997-9.146-1-21.113-.912-24.102-.413zm-7.033 8.08c6.974-1.626 14.527-3.84 22.41-3.14-7.334.52-14.636 3.49-22.41 3.14zm96.232-10.08c-9.16-.272-16.29-.82-21.248-1.235h24.547l-3.298 1.234zm-27.262 3.41c-5.662-2.165-9.435-3.312-11.4-3.9-5.26-1.19-9.652-.665-14.4.816 7.34-4.374 18.03-1.86 25.444 2.006 9.362 3.442 15.838 1.7 25.29 2.616-10.1 0-16.657 1.137-24.934-1.54v.002zm-1.976 6.388c-3.228-.04-11.777-2.213-12.75-2.492-10.688-1.666-19.11 5.906-26.95 1.707 10.412 2.206 16.396-4.46 26.046-3.13 4.393 1.06 9.2 2.685 13.63 3.083 5.338.48 10.6-.527 15.785-.417l5.2 1.077c-8.672-1.21-9.022.29-20.96.172z"/><path fill="#FED100" d="M450.52 123.08c7.035-2.005 18.93 2.482 25.186 5.115-7.17-.802-17.915-6.523-25.186-5.115zm-49.455.254c-3.037-.586-8.304-2.325-10.902-2.62 3.82-.163 9.88.815 13.215 2.08-.578.113-1.902.577-2.313.54zm-4.638 1.918c-5.196-1.412-10.312-3.122-16.32-2.677 6.15-.59 13.13.53 18.614 2.087l-2.293.59zm-30.863 8.527l-8.236-.1c12.453-1.038 29.447-4.194 42.062-1.528-11.28-2.075-22.024 2.143-33.826 1.627zm-18.212-3.387c9.276.666 21.23-2.627 30.42-1.662-9.055 1.41-21.69 3.74-30.42 1.663zm-5.402-3.354c-8.048-1.685-22.25-4.097-30.92-4.247 15.136-2.65 31.036 5.93 43.803 2.656 3.248-.826 11.022-2.552 14.462-1.75-8.477.924-18.117 5.243-27.345 3.34z"/><path fill="#FED100" d="M325.807 120.297c8.38.23 14.66 3.346 23.482 2.53 2.742-.3 6.26-.372 8.925-.372-12.156 3.986-20.848-.143-32.41-2.158h.002zm-1.067 7.232c-5.266-1.026-18.454-2.498-18.454-2.498 11.464-.16 27.66 2.88 37.817 5.323-4.49.666-13.783-1.744-19.363-2.828v.002zm-9.773 7.11c5.272-.598 22.5-2.177 27.686-2.25-5.155 1.58-22.62 3.56-27.686 2.25zm-9.496-2.55c.98.06-2-.18.318-.17 4.83-.254 15.502-2.36 22.403-.86-5.958.86-16.048 1.83-22.718 1.03zm-12.697-2.695c7.69-1.303 11.27-2.697 20.705-.746-4.6.22-15.886 1.043-20.705.745zm-13.253-2.784c5.713-.81 15.336-1.578 21.717-2.173-6.004 1.407-16.812 3.595-21.717 2.17v.004zm-6.99-2.526c7.05.957 14.63-3.71 21.7-.96-7.392-.256-14.95 2.813-21.7.96zm6.156 10.514c5.79-1.785 17.21-3.744 23.03-2.166-6.31.444-16.874 1.21-23.03 2.166zm-35.415 1.36c-2.987 0-5.896-.515-5.896-.515 13.795-.523 29.235-6.252 43.474-3.51-14.686-.43-34.58 4.023-37.577 4.024zm14.585.646c4.1-.846 11.144-2.742 15.713-.414l-15.713.412v.002zM233 131.69c-7.39-1.45-14.117-3.73-21.235-3.802 11.658-1.734 21.94 4.344 33.83 3.008 4.854-.533 15.828-2.086 23.62-2.015-11.006-.06-23.395 5.343-36.215 2.81z"/><path fill="#FED100" d="M239.2 128.69c10.012-.956 20.83-4.02 31.442-3.206-9.996.803-20.72 4.04-31.443 3.207zm-9.472-3.58c8.154 1.497 20.28-2.316 28.347-1.486-7.572 1.265-21.038 3.905-28.347 1.487zm-19.414 8.257c-9.508.107-23.584 2.312-35.447.53 12.803.544 26.334-2.802 41.264-1.61 5.63.523 11.31 1.23 16.58 2.495-2.472.632-17.003-1.47-22.396-1.415zm-35.986-9.592c-4.416.664-8.59 1.28-13.344.85 8.826-.523 17.94-3.254 26.307-1.732 6.93 1.262 13.916 3.7 21.407 3.17-11.46 2.548-23.18-3.956-34.37-2.288zm-3.792 6.743c8.227.3 24.524-2.403 32.17-1.41-7.9 1.915-24.162 2.235-32.17 1.41zm-8.698-2.765c7.97.208 16.144-2.32 25.806-.67-9.452.606-17.268 1.248-25.806.67zm-27.4 5.872c5.507-1.525 21.632.06 34.27-1.86-7.235 1.674-17.962 4.825-34.27 1.86zm-2.39-6.182c8.56 2.324 20.033 1.75 27.01.834-5.648 3.244-18.698 3.325-27.01-.834zm1.827-1.905l21.723-.01s-.107.67-4.652 1.005c-4.548.332-17.07-.995-17.07-.995zm-26.855 9.97l25.938-3.572c-2.304.806-19.64 5.658-25.938 3.572zm-6.902-3.572l30.68-2.826c-3.393 2.13-20.76 4.244-30.68 2.826zm-4.32-3.163c7.045-.885 25.3-2.006 32.424-2.075-16.63 2.495-28.378 2.844-32.424 2.075zm-.328-2.794c7.565-1.106 18.537-2.528 25.937-1.693-8.094 1.73-17.92 1.47-25.938 1.692zm340.495 2.213c-1.798.045-4.5-.72-6.306-1.05-1.377-.232-1.876-.263-3.83-.495-11.05-.74-20.875 3.576-31.268 1.41-9.258-1.925-22.205-1.897-33.26-.418 11.856-3.404 22.74-2.816 37.746-.162 10.074 1.78 19.047-3.815 34.336-.65 8.975 1.19 16.912-3.646 25.807-1.14-8.566-1.522-14.976 2.492-23.225 2.505zm39.4-5.838c-5.646-1.59-15.68-7.937-25.925-3.265l-3.948 1.282c4.303-2.296 10.43-6.975 28.71.175 4.79 2.06 12.22 3.007 23.99 3.75l4.44.73c-6.268-.7-18.622-.138-27.267-2.672zm-432.13-37.25l.03 20.81h1.4s.533-14.212.57-18.623c-.323-.11-.613-.21-.996-.717-.13-.08-.39-.56-.054-.73h3.698c.21.093.337.6-.046.85-.38.386-.18.255-1.12.635l.09 1.592.104 2.272.54 14.78.565-.02h8.31l.033-.92h-7.17l.007-1.562 7.28.008v-.92H49.16v-1.58h7.373l.03-.926h-7.388l-.012-1.582h7.455l.043-.924h-7.47v-1.58l7.477.02v-.922l-7.504.008.03-1.59 7.526-.02s.245-6.128.2-6.117c-.46-.082-.747-.397-.958-.57-.215-.16-.51-.584-.253-.93h3.397c.506 0 .76.297.423.725-.198.258-.597.597-1.063.767l.008 1.478c.047.05.07.104.07.104l9.015.008h2.385l-.074-.007c.278 0 .506.224.506.507l.01-.033V90.5l-.01-.078c0 .276-.228.502-.506.502l.073-.025h-6.02l-.012.052c-.285 0-.51.23-.51.516l.01-.136v9.835l.014-.084c0 .273-.224.508-.51.508l.032.04h-.973l.09.006c-.287 0-.52-.225-.52-.505l.037.08V89.524l.02-.058c0-.274.225-.502.5-.502l.062-.038 5.397-.006h-9.02L59 104.395h.56l1.982-.017.032-1.39 9.63-.03.558-15.663c-.343-.053-.38-.146-.68-.27-.257-.13-.514-.388-.604-.904l.128-.254 1.157-.022.734.03h1.86c.43.26.17.388.042.6-.3.64-1 .864-1.21.898 0 0 .01.806.035 1.54h11.178-.008c.278 0 .507.22.507.504l.037-.033v1.065l-.035-.11c0 .277-.23.514-.507.514l.007.037h-6.073l.083-.022c-.242 0-.44.203-.44.447l-.01-.035v9.88l-.017-.063c0 .278-.227.514-.505.514l.15.013h-1.07l.128-.013c-.276 0-.504-.234-.504-.515l-.016.01V89.34l-.03.086c0-.283.225-.505.507-.505h-3.36l.584 15.48h.283l2.05-.018.008-1.382 9.69.02s.63-14.866.47-15.68c-.34-.127-.46-.17-.757-.39-.343-.286-.806-.885-.343-1.104l3.666.02h.01"/><path fill="#FED100" d="M88.91 85.078h13.83v2.595h-1.773l.02 1.825h1.658l.028 10.04-1.373-.007-.017 3.487H90.665l.016 1.373-2.12.006-.12-1.38-.62-14.096h3.298c-.283 0-.51.222-.51.506l.03-.034v11.774l-.03-.038c0 .28.227.505.51.505l-.037-.006h.88l.11.006c.277 0 .412-.225.412-.505l-.007.082v-9.822l-.012-.02c.096-.28.227-.508.51-.508l-.083.043h6.263l-.084-.023c.28 0 .505-.223.505-.503l.012.034v-.976l-.012-.008c0-.283-.224-.505-.506-.505h.082-11.316s-.066-1.59-.055-1.58c.38-.17.45-.184.77-.344.34-.172.43-.298.513-.637.084-.26-.3-.6-.173-.513M478.107 110.8v-3.543H24.055v3.544h7.985c-.112.778-.12 2-.16 2.308-.122 1.094.03 2.387-.04 3.567l.06.935-.007.943-.044.797.333.52c3.413.298 6.757.67 9.798 1.775 7.647 1.713 14.618-3.853 22.266-.884 7.865 1.855 15.363-2.97 23.157 0 6.225 0 12.54-.744 18.925-.744 7.937.965 16.172 1.488 23.817-.52 9.353-1.41 17.067 3.27 26.418 2.893 10.98-1.628 22.576-3.804 33.953-2.32 4 .965 5.968.09 7.375-.138 8.06-1.283 16.803-2.63 24.573-.1 9.32 2.234 18.87-1.934 28.08.146 3.688.836 4.48.812 8.055.164 6.323-.14 12.795.756 19.084 1.1 4.453.074 8.684-3.047 13.137-1.41 15.364 3.71 30.43-4.266 45.56-.277 5.823 1.498 13.414-.51 20.37.486 2.1.308 2.743.32 4.312-.036 3.06-.357 6.145-.255 9.184.152 3.833.982 5.83.16 7.048-.016 9.47-1.412 18.898-2.01 28.04.946 6.965-1.81 15.027-2.117 22.425-1.22 6.717 1.628 10.207.128 12.29-.633 5.257-1.896 10.152-5.01 16.045-5.434 5.04-.74 8.806.87 12.962 2.435 0-1.28.018-.543.018-1.627-.18.09.63-1.97 1.334-3.807h7.7-.003zM17.323 133.845c8.282-.053 17.592-1.908 22.944-1.744-7.653.632-14.6 3.47-22.944 1.744zm88.363-83.596v-9.69h-1.797V62.52h1.794v-9.136h2.067v4.436h1.01v-4.482h1.785v4.482h2.044v-4.482h1.723v9.194h1.852v-3.97h2.075v3.97h2.6V50.248M389.585 69.39c-1.213 0-2.258.645-2.75 1.57v3.987h5.51V70.96c-.49-.928-1.55-1.57-2.76-1.57zm-7.273 0c-1.21 0-2.26.645-2.752 1.57v3.987h5.515V70.96c-.494-.928-1.55-1.57-2.763-1.57zm-7.27 0c-1.21 0-2.257.645-2.75 1.57v3.987h5.515V70.96c-.498-.928-1.55-1.57-2.766-1.57zm-7.27 0c-1.216 0-2.262.645-2.755 1.57v3.987h5.515V70.96c-.49-.928-1.546-1.57-2.757-1.57h-.004zm-7.27 0c-1.214 0-2.26.645-2.75 1.57v3.987h5.512V70.96c-.492-.928-1.55-1.57-2.76-1.57h-.003zm-7.272 0c-1.21 0-2.256.645-2.75 1.57v3.987h5.51V70.96c-.49-.928-1.547-1.57-2.76-1.57zm-7.27 0c-1.214 0-2.26.645-2.752 1.57v3.987h5.515V70.96c-.49-.928-1.548-1.57-2.762-1.57zm-7.27 0c-1.214 0-2.263.645-2.755 1.57v3.987h5.513V70.96c-.493-.928-1.55-1.57-2.76-1.57h.003zm-7.27 0c-1.214 0-2.26.645-2.754 1.57v3.987h5.514V70.96c-.492-.928-1.548-1.57-2.76-1.57zm-7.272 0c-1.21 0-2.26.645-2.756 1.57v3.987h5.515V70.96c-.49-.928-1.548-1.57-2.76-1.57zm-7.272 0c-1.21 0-2.26.645-2.75 1.57v3.987h5.517V70.96c-.497-.928-1.55-1.57-2.767-1.57zm-7.267 0c-1.218 0-2.265.645-2.757 1.57v3.987h5.514V70.96c-.492-.928-1.55-1.57-2.758-1.57zm-7.274 0c-1.212 0-2.258.645-2.75 1.57v3.987h5.512V70.96c-.496-.928-1.548-1.57-2.762-1.57zm-7.272 0c-1.21 0-2.258.645-2.752 1.57v3.987h5.513V70.96c-.49-.928-1.548-1.57-2.76-1.57zm-7.268 0c-1.214 0-2.263.645-2.756 1.57v3.987h5.515V70.96c-.493-.928-1.547-1.57-2.76-1.57zm-7.275 0c-1.212 0-2.26.645-2.75 1.57v3.987h5.514V70.96c-.496-.928-1.547-1.57-2.76-1.57h-.003zm-7.266 0c-1.213 0-2.26.645-2.75 1.57v3.987h5.514V70.96c-.497-.928-1.55-1.57-2.764-1.57zm-7.274 0c-1.21 0-2.258.645-2.752 1.57v3.987h5.517V70.96c-.492-.928-1.547-1.57-2.765-1.57zm-7.264 0c-1.217 0-2.263.645-2.756 1.57v3.987h5.515V70.96c-.493-.928-1.552-1.57-2.76-1.57zm-7.273 0c-1.213 0-2.26.645-2.753 1.57v3.987h5.513V70.96c-.492-.928-1.55-1.57-2.76-1.57zm-7.27 0c-1.213 0-2.26.645-2.752 1.57v3.987h5.515V70.96c-.494-.928-1.55-1.57-2.762-1.57zm-7.272 0c-1.212 0-2.257.645-2.752 1.57v3.987h5.515V70.96c-.49-.928-1.55-1.57-2.762-1.57zm-7.27 0c-1.21 0-2.257.645-2.75 1.57v3.987h5.51V70.96c-.492-.928-1.546-1.57-2.76-1.57zm-7.27 0c-1.213 0-2.26.645-2.753 1.57v3.987h5.514V70.96c-.492-.928-1.55-1.57-2.76-1.57zm-7.27 0c-1.214 0-2.26.645-2.752 1.57v3.987h5.513V70.96c-.493-.928-1.547-1.57-2.76-1.57zm-7.27 0c-1.214 0-2.26.645-2.754 1.57v3.987h5.514V70.96c-.495-.928-1.55-1.57-2.76-1.57zm-7.272 0c-1.212 0-2.258.645-2.752 1.57v3.987h5.515V70.96c-.494-.928-1.55-1.57-2.762-1.57zm-7.27 0c-1.213 0-2.26.645-2.754 1.57v3.987h5.515V70.96c-.494-.928-1.55-1.57-2.762-1.57zm-7.27 0c-1.21 0-2.26.645-2.753 1.57v3.987h5.514V70.96c-.496-.928-1.55-1.57-2.762-1.57zm-7.272 0c-1.213 0-2.26.645-2.752 1.57v3.987h5.514V70.96c-.493-.928-1.55-1.57-2.762-1.57zm-7.27 0c-1.212 0-2.26.645-2.75 1.57v3.987h5.51V70.96c-.492-.928-1.546-1.57-2.76-1.57zm-7.27 0c-1.213 0-2.26.645-2.754 1.57v3.987h5.516V70.96c-.493-.928-1.55-1.57-2.76-1.57h-.002zm-7.27 0c-1.213 0-2.26.645-2.753 1.57v3.987h5.513V70.96c-.494-.928-1.548-1.57-2.76-1.57zm-7.27 0c-1.214 0-2.26.645-2.755 1.57v3.987h5.515V70.96c-.492-.928-1.55-1.57-2.76-1.57zm-7.272 0c-1.213 0-2.258.645-2.753 1.57v3.987h5.516V70.96c-.495-.928-1.55-1.57-2.762-1.57zm-7.27 0c-1.215 0-2.26.645-2.753 1.57v3.987h5.513V70.96c-.492-.928-1.547-1.57-2.76-1.57zm-7.273 0c-1.21 0-2.256.645-2.75 1.57v3.987h5.514V70.96c-.495-.928-1.55-1.57-2.763-1.57zm-7.27 0c-1.212 0-2.26.645-2.75 1.57v3.987h5.51V70.96c-.49-.928-1.546-1.57-2.76-1.57zm-7.27 0c-1.21 0-2.26.645-2.752 1.57v3.987h5.514V70.96c-.492-.928-1.545-1.57-2.76-1.57zm-7.27 0c-1.212 0-2.26.645-2.752 1.57v3.987h5.514V70.96c-.492-.928-1.547-1.57-2.76-1.57zm-7.27 0c-1.213 0-2.26.645-2.754 1.57v3.987h5.515V70.96c-.493-.928-1.547-1.57-2.76-1.57zm-7.27 0c-1.213 0-2.26.645-2.753 1.57v3.987h5.513V70.96c-.495-.928-1.55-1.57-2.76-1.57zm-7.27 0c-1.215 0-2.26.645-2.754 1.57v3.987h5.514V70.96c-.496-.928-1.55-1.57-2.763-1.57h.002zm-7.27 0c-1.215 0-2.26.645-2.754 1.57v3.987h5.512V70.96c-.49-.928-1.547-1.57-2.76-1.57zm-7.273 0c-1.213 0-2.258.645-2.753 1.57v3.987h5.515V70.96c-.496-.928-1.55-1.57-2.763-1.57zm-7.27 0c-1.213 0-2.26.645-2.75 1.57v3.987h5.51V70.96c-.49-.928-1.548-1.57-2.76-1.57zm-7.27 0c-1.213 0-2.26.645-2.754 1.57v3.987h5.515V70.96c-.494-.928-1.55-1.57-2.762-1.57zm-7.27 0c-1.215 0-2.26.645-2.754 1.57v3.987h5.514V70.96c-.493-.928-1.55-1.57-2.76-1.57zm65.156 19.883h3.2v10.072h-3.2V89.273zm0-4.42h3.2v2.598h-3.2v-2.596zm-8.917 0h7.157v2.598h-7.157v-2.596zm5.35 4.825c-.4-.255-1.11-.416-1.77-.416-1.517 0-2.844.743-3.58 1.86v8.226h1.784V91.52c.742-1.105 2.06-1.842 3.566-1.842zm18.14-.405h3.2v10.072h-3.2V89.273zm0-4.42h3.2v2.598h-3.2v-2.596zm-8.918 0h7.156v2.598h-7.156v-2.596zm5.35 4.825c-.4-.255-1.108-.416-1.77-.416-1.517 0-2.844.743-3.58 1.86v8.226h1.785V91.52c.74-1.105 2.06-1.842 3.565-1.842zm18.14-.405h3.2v10.072h-3.2V89.273zm0-4.42h3.2v2.598h-3.2v-2.596zm-8.92 0h7.16v2.598h-7.16v-2.596zm5.352 4.825c-.4-.255-1.11-.416-1.77-.416-1.516 0-2.843.743-3.582 1.86v8.226h1.787V91.52c.74-1.105 2.06-1.842 3.565-1.842zm18.138-.405h3.2v10.072h-3.2V89.273zm0-4.42h3.2v2.598h-3.2v-2.596zm-8.918 0h7.16v2.598h-7.16v-2.596zm5.352 4.825c-.4-.255-1.11-.416-1.77-.416-1.517 0-2.845.743-3.58 1.86v8.226h1.784V91.52c.742-1.105 2.06-1.842 3.566-1.842zm18.14-.405h3.198v10.072h-3.198V89.273zm0-4.42h3.198v2.598h-3.198v-2.596zm-8.92 0h7.16v2.598h-7.157v-2.596h-.002zm5.35 4.825c-.4-.255-1.11-.416-1.77-.416-1.515 0-2.843.743-3.58 1.86v8.226h1.787V91.52c.74-1.105 2.055-1.842 3.563-1.842zm18.142-.405h3.198v10.072h-3.198V89.273zm0-4.42h3.198v2.598h-3.198v-2.596zm-8.92 0h7.157v2.598h-7.153v-2.596h-.002zm5.35 4.825c-.4-.255-1.11-.416-1.77-.416-1.514 0-2.843.743-3.58 1.86v8.226h1.784V91.52c.743-1.105 2.062-1.842 3.567-1.842zm18.14-.405h3.2v10.072h-3.2V89.273zm0-4.42h3.2v2.598h-3.2v-2.596zm-8.918 0h7.158v2.598h-7.158v-2.596zm5.35 4.825c-.398-.255-1.108-.416-1.77-.416-1.515 0-2.843.743-3.58 1.86v8.226h1.786V91.52c.74-1.105 2.06-1.842 3.564-1.842zm18.14-.405h3.2v10.072h-3.2V89.273zm0-4.42h3.2v2.598h-3.2v-2.596zm-8.918 0h7.157v2.598h-7.157v-2.596zm5.352 4.825c-.4-.255-1.11-.416-1.772-.416-1.515 0-2.843.743-3.58 1.86v8.226h1.787V91.52c.74-1.105 2.058-1.842 3.565-1.842zm18.138-.405h3.2v10.072h-3.2V89.273zm0-4.42h3.2v2.598h-3.2v-2.596zm-8.918 0h7.16v2.598h-7.16v-2.596zm5.35 4.825c-.4-.255-1.108-.416-1.77-.416-1.515 0-2.844.743-3.58 1.86v8.226h1.785V91.52c.74-1.105 2.06-1.842 3.565-1.842zm18.14-.405h3.2v10.072h-3.2V89.273zm0-4.42h3.2v2.598h-3.2v-2.596zm-8.917 0h7.156v2.598h-7.16v-2.596h.003zm5.35 4.825c-.4-.255-1.11-.416-1.77-.416-1.517 0-2.844.743-3.58 1.86v8.226h1.785V91.52c.74-1.105 2.06-1.842 3.565-1.842zm18.14-.405h3.2v10.072h-3.2V89.273zm0-4.42h3.2v2.598h-3.2v-2.596zm-8.92 0h7.155v2.598h-7.158l.003-2.596zm5.35 4.825c-.4-.255-1.106-.416-1.77-.416-1.514 0-2.842.743-3.58 1.86v8.226h1.787V91.52c.742-1.105 2.06-1.842 3.563-1.842zM273.316 89.273h3.197v10.072h-3.197V89.273zm0-4.42h3.197v2.598h-3.197v-2.596zm-8.92 0h7.157v2.598h-7.158v-2.596zm5.35 4.825c-.398-.255-1.107-.416-1.772-.416-1.517 0-2.844.743-3.58 1.86v8.226h1.79V91.52c.74-1.105 2.06-1.842 3.56-1.842zM287.887 89.273h3.197v10.072h-3.197V89.273zm0-4.42h3.197v2.598h-3.197v-2.596zm-8.922 0h7.162v2.598h-7.162v-2.596zm5.35 4.825c-.4-.255-1.105-.416-1.77-.416-1.52 0-2.845.743-3.583 1.86v8.226h1.79V91.52c.74-1.104 2.06-1.842 3.563-1.842zM302.457 89.273h3.2v10.072h-3.2V89.273zm0-4.42h3.2v2.598h-3.2v-2.596zm-8.92 0h7.16v2.598h-7.16v-2.596zm5.352 4.825c-.4-.255-1.106-.416-1.772-.416-1.515 0-2.84.743-3.58 1.86v8.226h1.786V91.52c.74-1.104 2.06-1.842 3.562-1.842h.003zM317.03 89.273h3.196v10.072h-3.197V89.273zm0-4.42h3.196v2.598h-3.197v-2.596zm-8.92 0h7.157v2.598h-7.156v-2.596zm5.35 4.825c-.4-.255-1.104-.416-1.767-.416-1.52 0-2.846.743-3.58 1.86v8.226h1.78V91.52c.742-1.105 2.062-1.842 3.567-1.842zM331.6 89.273h3.197v10.072H331.6V89.273zm0-4.42h3.197v2.598H331.6v-2.596zm-8.916 0h7.157v2.598h-7.154v-2.596h-.002zm5.35 4.825c-.4-.255-1.11-.416-1.77-.416-1.522 0-2.85.743-3.58 1.86v8.226h1.78V91.52c.745-1.105 2.063-1.842 3.57-1.842zM346.17 89.273h3.2v10.072h-3.2V89.273zm0-4.42h3.2v2.598h-3.2v-2.596zm-8.916 0h7.157v2.598h-7.154v-2.596h-.002zm5.35 4.825c-.396-.255-1.11-.416-1.77-.416-1.516 0-2.843.743-3.58 1.86v8.226h1.785V91.52c.74-1.105 2.06-1.842 3.564-1.842zM360.743 89.273h3.196v10.072h-3.198V89.273zm0-4.42h3.196v2.598h-3.198v-2.596zm-8.92 0h7.157v2.598h-7.155v-2.596zm5.35 4.825c-.395-.255-1.104-.416-1.77-.416-1.513 0-2.843.743-3.58 1.86v8.226h1.786V91.52c.74-1.105 2.06-1.842 3.564-1.842zM375.312 89.273h3.2v10.072h-3.2V89.273zm0-4.42h3.2v2.598h-3.2v-2.596zm-8.916 0h7.153v2.598h-7.154v-2.596zm5.352 4.825c-.4-.255-1.11-.416-1.77-.416-1.52 0-2.846.743-3.584 1.86v8.226h1.785V91.52c.743-1.105 2.058-1.842 3.568-1.842zM380.973 84.854h8.854v2.597h-8.854v-2.596zm5.345 4.824c-.398-.255-1.106-.416-1.77-.416-1.514 0-2.84.743-3.578 1.86v8.226h1.785V91.52c.74-1.105 2.06-1.842 3.563-1.842zM122.973 57.16v5.34h1.385c.074 0 .134-.062.134-.137v-3.87c0-.08.14-.132.14-.132h2.362c.075 0 .135-.06.135-.14v-1.06h-4.157zm0-6.922v5.345h1.385c.074 0 .134-.06.134-.136v-3.87c0-.083.14-.136.14-.136h2.362c.075 0 .135-.06.135-.132V50.24h-4.16v-.002h.003zm5.367 6.922v5.34h1.383c.075 0 .136-.062.136-.137v-3.87c0-.08.136-.132.136-.132h2.362c.074 0 .134-.06.134-.14v-1.06h-4.156.004zm0-6.922v5.345h1.383c.075 0 .136-.06.136-.136v-3.87c0-.083.136-.136.136-.136h2.362c.074 0 .134-.06.134-.132V50.24h-4.156l.002-.002h.002zm5.363 6.922v5.34h1.384c.076 0 .138-.062.138-.137v-3.87c0-.08.137-.132.137-.132h2.363c.075 0 .137-.06.137-.14v-1.06h-4.16zm0-6.922v5.345h1.384c.076 0 .138-.06.138-.136v-3.87c0-.083.137-.136.137-.136h2.363c.075 0 .137-.06.137-.132V50.24h-4.16v-.002zm5.367 6.922v5.34h1.384c.075 0 .138-.062.138-.137v-3.87c0-.08.137-.132.137-.132h2.36c.073 0 .136-.06.136-.14v-1.06h-4.156zm0-6.922v5.345h1.384c.075 0 .138-.06.138-.136v-3.87c0-.083.137-.136.137-.136h2.36c.073 0 .136-.06.136-.132V50.24h-4.158v-.002h.002zm5.368 6.922v5.34h1.383c.08 0 .14-.062.14-.137v-3.87c0-.08.14-.132.14-.132h2.36c.076 0 .136-.06.136-.14v-1.06h-4.158zm0-6.922v5.345h1.383c.08 0 .14-.06.14-.136v-3.87c0-.083.14-.136.14-.136h2.36c.076 0 .136-.06.136-.132V50.24h-4.156l-.002-.002zm5.366 6.922v5.34h1.383c.075 0 .137-.062.137-.137v-3.87c0-.08.14-.132.14-.132h2.36c.075 0 .136-.06.136-.14v-1.06h-4.156zm0-6.922v5.345h1.383c.075 0 .137-.06.137-.136v-3.87c0-.083.14-.136.14-.136h2.36c.075 0 .136-.06.136-.132V50.24h-4.156v-.002zm5.366 6.922v5.34h1.384c.075 0 .137-.062.137-.137v-3.87c0-.08.14-.132.14-.132h2.362c.077 0 .138-.06.138-.14v-1.06h-4.16zm0-6.922v5.345h1.384c.075 0 .137-.06.137-.136v-3.87c0-.083.14-.136.14-.136h2.362c.077 0 .138-.06.138-.132V50.24h-4.157v-.002h-.003zm5.367 6.922v5.34h1.383c.075 0 .136-.062.136-.137v-3.87c0-.08.14-.132.14-.132h2.36c.076 0 .136-.06.136-.14v-1.06h-4.155zm0-6.922v5.345h1.383c.075 0 .136-.06.136-.136v-3.87c0-.083.14-.136.14-.136h2.36c.076 0 .136-.06.136-.132V50.24h-4.155v-.002zm5.365 6.922v5.34h1.384c.075 0 .136-.062.136-.137v-3.87c0-.08.14-.132.14-.132h2.36c.075 0 .137-.06.137-.14v-1.06h-4.16.002zm0-6.922v5.345h1.384c.075 0 .136-.06.136-.136v-3.87c0-.083.14-.136.14-.136h2.36c.075 0 .137-.06.137-.132V50.24h-4.16l.002-.002zm5.368 6.922v5.34h1.384c.074 0 .135-.062.135-.137v-3.87c0-.08.136-.132.136-.132h2.362c.073 0 .135-.06.135-.14v-1.06h-4.157.004zm0-6.922v5.345h1.384c.074 0 .135-.06.135-.136v-3.87c0-.083.136-.136.136-.136h2.362c.073 0 .135-.06.135-.132V50.24h-4.157l.002-.002h.002zm5.364 6.922v5.34h1.384c.077 0 .137-.062.137-.137v-3.87c0-.08.14-.132.14-.132h2.36c.077 0 .136-.06.136-.14v-1.06h-4.156zm0-6.922v5.345h1.384c.077 0 .137-.06.137-.136v-3.87c0-.083.14-.136.14-.136h2.36c.077 0 .136-.06.136-.132V50.24h-4.154v-.002h-.002z"/></svg>