<svg xmlns="http://www.w3.org/2000/svg" width="505" height="137"><g fill="#FED100"><path d="M181.566 68.902c2.657-2.02 5.36-4.887 6.54-7.617 1.856-4.286-1.004-3.36-2.785-1.17-1.66 2.032-3.352 4.693-4.315 7.804-.103.33-.184.64-.245.93-.1.085-.196.163-.28.227-.894.686-2.296 1.485-1.957-.268.31-1.592 1.574-3.65 2.6-4.99-1.327 1.24-2.616 3.183-2.925 4.615-.435 2.035.957 1.935 2.448 1.077-.177 1.468.318 2.063 1.44 1.055-1.282.692-1.33-.105-1.003-1.325.163-.106.324-.22.483-.34zm4.456-8.967c1.53-1.88 3.08-2.232 1.78.246-1.5 2.855-4.6 6.378-6.417 8.102.842-2.4 3.267-6.662 4.637-8.347zm4.98 9.442c2.855-2.157 5.99-5.485 7.262-8.436 2.037-4.72-1.12-3.724-3.104-1.306-1.85 2.25-3.766 5.252-4.81 8.672-.113.378-.203.73-.27 1.06-.12.1-.23.188-.323.263-1.006.765-2.582 1.58-2.224-.347.323-1.747 1.744-4.058 2.884-5.538-1.483 1.375-2.916 3.59-3.24 5.164-.462 2.23 1.113 2.105 2.792 1.147-.18 1.61.395 2.256 1.65 1.135-1.446.777-1.513-.1-1.16-1.438.183-.116.365-.244.543-.377zm5.013-9.974c1.682-2.035 3.352-2.396 1.916.335-1.64 3.124-5.117 7.07-7.155 9 .905-2.636 3.696-7.468 5.24-9.335zm4.423 10.45c3.05-2.29 6.62-6.085 7.984-9.255 2.214-5.158-1.236-4.092-3.423-1.44-2.04 2.467-4.185 5.807-5.304 9.536-.13.427-.226.825-.297 1.192-.137.114-.26.213-.37.298-1.114.84-2.864 1.676-2.49-.427.34-1.902 1.918-4.463 3.175-6.088-1.643 1.512-3.22 3.997-3.562 5.714-.485 2.435 1.274 2.276 3.14 1.22-.18 1.753.47 2.447 1.858 1.215-1.604.858-1.69-.09-1.313-1.55.203-.134.404-.272.6-.418zm5.57-10.984c1.83-2.19 3.623-2.557 2.055.426-1.783 3.395-5.64 7.76-7.9 9.9.966-2.87 4.127-8.275 5.846-10.327zm4.442 11.17c3.36-2.497 7.505-6.88 9.013-10.375 2.477-5.76-1.396-4.592-3.874-1.623-2.308 2.767-4.76 6.556-6.003 10.716-.146.49-.252.94-.33 1.36-.158.132-.303.246-.43.345-1.267.947-3.26 1.822-2.855-.52.368-2.12 2.164-5.016 3.586-6.836-1.864 1.698-3.646 4.536-4.02 6.45-.528 2.714 1.483 2.526 3.606 1.33-.183 1.95.566 2.72 2.146 1.336-1.83.972-1.94-.085-1.522-1.712.23-.15.46-.304.682-.47zm6.34-12.352c2.05-2.414 4.033-2.803 2.27.534-1.99 3.773-6.37 8.706-8.944 11.122 1.064-3.195 4.72-9.354 6.675-11.656zm37.182-.58c-2.935 3.547-6.137 8.558-7.577 13.786-.182.657-.307 1.263-.388 1.815-.22.187-.418.352-.596.484-1.642 1.238-4.25 2.173-3.83-.76.276-1.922 1.565-4.448 2.94-6.575 2.02-2.284 3.772-4.714 4.637-6.752 2.953-6.954-1.7-5.608-4.722-1.99-2.814 3.366-5.884 8.104-7.332 13.124-.18.623-.306 1.196-.392 1.727-.203.17-.393.32-.558.445-1.562 1.165-4.027 2.072-3.58-.75.32-2.02 1.78-4.7 3.234-6.823 1.717-2.035 3.182-4.156 3.947-5.99 2.828-6.74-1.62-5.416-4.49-1.92-2.68 3.257-5.576 7.807-6.97 12.676-.17.594-.292 1.142-.377 1.646-.19.165-.367.31-.525.43-1.478 1.125-3.81 2.042-3.375-.693.272-1.692 1.343-3.848 2.52-5.725 1.48-1.75 2.732-3.57 3.417-5.17 2.574-6.02-1.462-4.822-4.056-1.707-2.42 2.904-5.015 6.92-6.293 11.27-.154.52-.266 1.002-.343 1.447-.17.142-.325.268-.462.37-1.333 1-3.432 1.864-3.022-.58.37-2.216 2.26-5.278 3.75-7.186-1.96 1.785-3.82 4.81-4.2 6.808-.537 2.833 1.593 2.624 3.827 1.363-.176 2.04.624 2.835 2.28 1.38-1.925 1.026-2.05-.074-1.624-1.775.242-.158.482-.32.72-.497 1.418-1.055 3.003-2.478 4.488-4.04-.753 1.3-1.306 2.605-1.496 3.65-.578 3.17 1.798 2.92 4.285 1.497-.182 2.278.72 3.16 2.56 1.526-2.146 1.158-2.295-.068-1.832-1.973.27-.177.54-.362.8-.56 1.467-1.104 3.125-2.61 4.704-4.272-1.005 1.57-1.753 3.214-1.983 4.472-.592 3.267 1.923 3 4.548 1.52-.177 2.346.78 3.253 2.72 1.56-2.263 1.203-2.43-.062-1.95-2.024.285-.184.566-.373.842-.58 1.46-1.077 3.127-2.56 4.73-4.21-.982 1.603-1.705 3.26-1.916 4.52-.562 3.4 2.115 3.074 4.886 1.49-.143 2.437.896 3.355 2.932 1.565-2.388 1.29-2.595-.02-2.12-2.062.298-.197.595-.4.885-.617 3.984-2.977 9.64-9.078 11.4-13.33 3-7.265-1.895-5.816-5.04-2.012zM220.16 70.296c1.085-3.333 4.986-9.89 7.05-12.305 2.13-2.498 4.167-2.883 2.33.608-2.07 3.932-6.674 9.147-9.38 11.698zm8.745.055c1.173-3.72 5.566-11.173 7.86-13.89 2.345-2.77 4.563-3.18 2.54.73-2.27 4.386-7.39 10.28-10.4 13.16zm8.844.684c1.202-3.828 5.887-11.617 8.313-14.432 2.445-2.838 4.742-3.24 2.624.8-2.368 4.51-7.765 10.636-10.938 13.632zm20.737-13.673c-2.42 4.71-8.065 11.187-11.397 14.363.002-.004.002-.01.005-.014 1.203-3.987 6.1-12.223 8.637-15.185 2.535-2.956 4.937-3.39 2.755.836z"/><path d="M313.668 29.624c-9.765-5.458-18.1-1.436-19.704 4.036-3.362 11.454 18.505 20.625 39.227 4.047-20.154 14.692-41.742 6.165-38.28-4.25 1.392-4.188 8.52-8.936 18.758-3.833zM153.428 55.92c-11.112.006-21.498-5.36-26.013-12.003 3.668 6.55 13.72 12.504 25.61 12.77 11.893.268 23.102-3.122 25.8-11.074-3.17 7.668-14.285 10.297-25.397 10.306zm20.438-22.513c-7.042-4.86-16.978-6.306-26.43-4.21-7.947 1.76-16.056 7.653-12.524 15.268 3.8 6.255 13.43 7.496 16.504 6.565-3.732.555-12.567-.857-15.994-6.82-3.22-6.91 4.257-12.123 12.167-14.005 8.4-2 18.585-.933 25.993 3.86 3.862 2.5 7.066 6.64 5.243 11.548 2.01-4.86-.996-9.468-4.96-12.206zm162.14 7.24c3.857-5.78 12.783-12.932 23.427-14.894 13.418-2.47 24.637 1.896 25.927 8.517.896 4.582-3.536 10.84-15.05 13.592-8.566 2.05-25.26-.468-21.53-8.817-4.27 7.538 9.823 12.567 21.53 10.034 12.08-2.614 15.92-9.878 15.327-14.284-.962-7.12-11.138-13.058-26.326-10.09-10.142 1.98-19.447 9.172-23.304 15.94zm35.02-5.97c-3.316-4.46-17.785-4.235-22.246 4.368 4.085-7.003 16.938-8.487 22.246-4.367zm-5.322 6.993c-3.732 1.125-8.505 1.02-9.885-.393-2.06-2.11 2.6-4.875 8.375-4.542-1.552-1.268-4.815-.665-6.43.143-2.23 1.115-3.236 3.256-2.17 4.61 1.572 1.997 6.6 2.133 10.546.868 4-1.28 7.935-4.445 4.886-7.678 2.263 2.886-1.592 5.868-5.322 6.992zm42.07 43.833c-2.184-1.373-6.667-1.12-9.583 2.326 3.2-3.256 6.992-2.756 9.056-1.447 2.455 1.557 3.158 4.887.674 7.28-4.03 3.883-15.012 3.105-29.48.78 1.58-1.814 3.115-3.797 4.607-5.966 13.35-1.345 22.265-8.34 19.672-18.475-1.65-6.44-8.748-8.044-15.004-5.903-6.957 2.377-7.688 7.715-7.35 10.046.517 2.412 1.95 3.617 4.08 4.02-2.197-.515-3.32-2.034-3.518-3.872-.454-4.22 3.19-7.645 6.778-9.063 5.2-2.058 13.334-.754 14.886 5.005 2.226 8.274-5.87 15.605-19.07 17.544.268-.397.533-.796.8-1.206-.272.412-.547.812-.817 1.208-5.542.813-11.975.68-18.93-.74 6.572 1.577 12.89 1.996 18.44 1.44-1.534 2.167-3.125 4.14-4.77 5.93-14.37-2.316-32.152-6.142-49.968-8.448 7.24-2.73 19.787-.235 29.848.354-16.688-3.37-25.538-2.847-30.368-.42-3.38-.43-6.764-.81-10.12-1.106 6.047-5.26 15.64-4.993 25.985-4.207 13.83 1.046 28.86 4.546 32.683-2.49-4.442 6.59-18.513 2.105-33.23 1.326-8.053-.423-19.338-1.03-25.854 5.335-3.877-.34-7.722-.575-11.497-.676-32.45-.86-60.523 4.466-78.77 16.434-41.8-.937-120.85-25.356-131.113-.744 10.22-22.71 87.802 1.21 130.135 1.405-2.91 1.987-5.57 4.146-7.934 6.49 2.66-2.35 5.546-4.508 8.658-6.49 8.45-.017 15.447-1.01 20.145-3.562-4.39 2.25-11.026 3.042-19.112 2.916 17.873-10.974 43.192-16.105 78.37-15.096 3.24.094 6.57.308 9.952.61-.98 1.208-1.817 2.617-2.47 4.27.762-1.66 1.69-3.06 2.752-4.242 3.12.28 6.287.642 9.48 1.062-.676.543-1.238 1.14-1.708 1.778.52-.683 1.145-1.266 1.86-1.758 17.63 2.32 35.955 6.356 50.976 8.635-3.023 3.068-6.214 5.56-9.545 7.577-.967-2.487-3.168-5.162-7.005-7.978 3.847 2.842 5.916 5.602 6.644 8.187-1.555.924-3.134 1.744-4.743 2.47-1.213-2.818-3.147-5.45-5.85-7.604 2.445 2.345 4.165 5.055 5.217 7.885-1.97.855-3.98 1.575-6.023 2.174-3.567-8.225-14.896-16.612-40.35-18.91 21.622 2.18 34.55 10.575 39.065 19.27-17.215 4.605-36.603 1.052-54.628-.478-15.76-1.337-42.095-5.11-60.26 5.497-11.396.45-22.063 2.283-31.263 6.472 9.345-3.784 19.576-5.458 30.26-5.863-7.378 4.602-13.302 11.707-16.45 22.51 3.553-11.172 9.91-18.216 17.802-22.557 37.023-1.04 79.235 12.635 108.81 6.462.63-.13 1.268-.282 1.912-.45-1.74 1.174-2.99 2.646-3.32 4.17-.654 3.044 3.2 2.166 4.675.605-1.52 1.28-4.528 1.85-3.852-.77.472-1.844 2.3-3.524 4.657-4.63.876-.278 1.75-.586 2.615-.923.165-.04.333-.08.5-.117-.05.2-.094.404-.153.6-.653 2.145-1.71 4.013-3.77 5.84 1.917-1.45 3.348-3.28 4.23-5.708.1-.274.19-.555.272-.84 1.883-.315 3.83-.242 5.546.365-2.08 6.15-7.488 11.056-15.782 11.77 8.81-.474 14.446-5.326 16.635-11.412.84.408 1.606.96 2.26 1.68 3.003 3.322 1.964 14.266-14.602 15.746 15.597-.687 19.543-11.47 15.388-16.067-.813-.9-1.78-1.56-2.83-2.018.476-1.515.75-3.092.81-4.696 3.208-2.754 5.003-6.162 3.806-10.04 3.324-2.19 6.526-4.886 9.577-8.182 14.71 2.22 26.223 2.726 30.747-1.776 3.146-2.94 2.48-6.883-.174-8.55zm-51.748 32.215c-2.472 1.055-5.148 1.875-7.81 2.418-26.56 5.412-70.48-7.36-107.25-6.304 16.944-8.61 40.442-5.476 58.588-3.864 18.826 1.67 38.15 5.227 55.32-.01 1.156 2.637 1.535 5.274 1.152 7.76zm6.118.7c-1.476-.474-3.083-.586-4.676-.428 1.944-.898 3.78-1.953 5.354-3.145-.11 1.22-.332 2.417-.678 3.572zm.748-4.75c-1.733 1.438-3.86 2.704-6.196 3.756.468-2.41.335-5.1-.633-7.84 1.997-.664 3.966-1.452 5.902-2.38.68 2.133.986 4.32.927 6.463zm.927-.826c-.063-2.003-.46-4.018-1.192-5.962 1.55-.77 3.073-1.634 4.575-2.6.608 3.19-.803 6.098-3.384 8.562zM247.36 31.026c-5.457 1.316-12.91 1.942-23.01 1.11 9.344 1.232 16.924.982 22.778-.206-.126.483-.247.948-.366 1.383-2.724 9.906-5.446 20.922-12.052 22.644-3.066.795-8.102-.066-8.588-4.27-.377-3.25 3.78-6.98 6.604-5.848 3.234 1.29.866 6.472-2.524 5.38 3.267 1.867 7.047-3.65 2.714-5.486-3.406-1.444-7.378 1.43-7.205 5.662.187 4.614 5.322 6.1 9.207 5.024 6.486-1.788 9.508-9.97 12.76-23.107.13-.517.258-1.047.388-1.583 8.396-1.91 13-5.82 13.875-10.008.614-2.938-1.634-6.898-7.44-8.767 1.575-2.425 3.507-4.218 5.948-4.92-2.56.69-4.61 2.463-6.282 4.813-1.987-.6-4.37-.955-7.186-.953 2.837.07 5.178.474 7.085 1.098-3.516 5.04-5.332 12.638-6.705 18.033zm7.047-17.912c5.406 1.9 7.148 5.614 6.697 8.3-.39 2.3-3.445 6.88-12.812 9.38 1.46-6.05 3.14-12.998 6.114-17.68zM360.392 95.39c-.538-.4-1.11-.8-1.72-1.2.605.4 1.177.8 1.72 1.2zm-234.01 1.077c-14.14-.624-26.95 1.92-25.968 11.603.087.86.345 1.657.727 2.394-1.86-.195-3.595-.69-5.077-1.465-5.465-2.85-7.693-9.28-3.16-15.34 2.174-2.905 5.72-4.99 10.112-6.456 1.68.896 3.61 1.664 5.817 2.274-2.132-.633-3.993-1.43-5.62-2.343 7.312-2.396 16.932-3.09 26.518-2.97-1.482 1.205-2.568 2.585-3.196 4.157.702-1.59 1.89-2.967 3.492-4.15 13.578.198 27.035 2.02 33.716 2.968-6.426-1.162-19.382-3.212-32.686-3.663 23.31-14.565 117.25 3.18 144.903-1.096-28.004 2.21-122.886-14.4-145.288 1.083-10.268-.326-20.704.316-28.484 3.058-11.625-7.407-9.06-21.87 2.267-30.04 2.417-1.74 5.443-3.018 8.652-3.818 3.438 5.275 9.42 8.415 13.733 9.357-3.546-1.245-9.272-3.925-12.768-9.584 3.988-.867 8.187-1.002 11.812-.37 1.034.978 2.226 1.93 3.6 2.843-1.27-.9-2.378-1.837-3.343-2.8 1.988.37 3.797.97 5.287 1.81 6.27 3.538 4.24 9.887-4.587 8.1 8.778 2.395 12.407-4.498 5.068-8.787-1.844-1.077-4.17-1.797-6.742-2.164-7.284-8.327-3.967-18.403 6.34-24.646 12.04-7.293 28.15-7.41 40.965-6.145 14.11 1.392 29.158 5.004 41.743 7.37 12.584 2.368 25.63 3.968 33.384-8.507-5.774 8.85-15.808 11.343-33.25 7.547-9.786-2.132-26.068-6.187-41.78-7.65-16.8-1.564-31.333.367-41.568 6.64-9.84 6.028-14.216 16.6-6.14 25.344-3.524-.458-7.48-.26-11.26.603-.172-.31-.343-.617-.498-.942-1.517-3.154-1.867-6.53-1.384-9.534 2.273-.455 4.472-1.445 6.133-2.824 4.272-3.545 2.558-7.952-2.15-4.75 3.578-2.168 5.612.795 1.75 4.352-1.412 1.3-3.45 2.42-5.673 2.92.508-2.79 1.734-5.235 3.43-6.836-1.937 1.47-3.468 4.02-4.17 6.973-2.034.323-4.178.107-6.11-.977-8.334-4.668-1.836-15.594 8.437-17.57-10.98 1.55-18.128 13.716-8.665 18.125 1.837.857 4.066 1.043 6.27.717-.64 2.95-.46 6.27.975 9.318.205.434.432.857.67 1.27-3.08.805-6.008 2.06-8.443 3.764-11.212 7.858-14.735 23.358-2.205 30.97-4.322 1.553-7.808 3.77-9.95 6.846-4.888 7.015-2.15 13.407 3.59 16.197 1.66.81 3.692 1.28 5.866 1.375 1.98 3.074 6.355 4.812 10.58 4.42 6.163-.57 8.12-5.965 4.987-8.424 1.15 1.19 1.99 5.602-4.92 7.01-3.346.68-7.838-.226-9.85-2.987 4.38.01 9.212-1.468 12.732-4.773-4.115 3.216-8.874 4.495-13.065 4.257-.396-.694-.65-1.492-.704-2.397-.49-7.808 11.197-10.577 25.19-9.65 18.25 1.205 49.194 6.775 64.634 1.66-15.546 4.94-48.712-2.967-64.673-3.67zm-9.343 10.55c-.123-.128-.25-.222-.37-.268.13.084.254.174.37.266zm143.283-61.02c1.487 1.37 3.74.008 3.104-1.726-.454-1.236-2.77-1.868-4.883.548-1.435 1.646-2.755 4.7-3.24 9.91 1.244-6.09 2.3-7.966 3.373-9.312 1.34-1.68 3.72-2.27 4.344-.864.538 1.208-1.38 2.226-2.697 1.446zm-11.302 7.346c2.415-1.28 2.745-10.18 6.916-13.172-5.066 2.477-5.16 11.612-6.915 13.173zm35.367-8.966c3.3 2.4 6.598-1.412 3.663-3.306-1.726-1.112-4.555-.553-6.675 2.13-2.04 2.588-4.43 7.315-5.364 14.178 1.36-6.812 4.03-11.715 5.79-13.753 2.073-2.402 4.54-3.003 5.99-2.042 2.046 1.354.037 4.49-3.403 2.794zm-14.86 9.4c3.23-1.886 4.714-14.107 10.357-17.457-6.984 3.49-7.763 15.43-10.358 17.458zM222.828 45.1c.953 1.258 4.428.642 3.752-1.662-.444-1.506-3.345-2.482-5.897.29-2.552 2.77-3.588 7.81-3.684 10.782 1.133-5.843 2.806-8.533 4.053-10.13 1.508-1.93 4.254-2.417 4.98-.916.716 1.48-1.778 2.612-3.204 1.636zm-11.62 8.5c2.047-.744 2.734-11.102 7.122-13.688-5.286 2.348-5.64 12.238-7.122 13.687zm145.194-34.57c-4.54-15.556-23.61-21.997-44.8-17.753-21.19 4.246-37.52 14.618-49.156 22.762 11.823-7.836 29.927-17.704 49.255-21.684 19.57-4.034 39.35.974 44.7 16.673zm28.534 59.284c2.102.756 6.535 1.164 9.304-2.132 3.064-3.65.963-8.45-3.24-7.466-3.185.745-4.056 3.878-3.103 5.542-.576-1.943 1.02-4.412 3.318-4.802 4.17-.708 5.128 2.688 3.13 5.5-2 2.813-6.166 4.392-9.41 3.358z"/><path d="M359.99 73.682c.215-.172.43-.35.64-.532 4.563-3.98 8.682-9.89 10.034-14.79 2.12-7.69-2.226-4.82-5.258-.767-2.74 3.667-5.337 9.198-5.977 14.328-.044.343-.074.657-.095.962-.085.073-.177.158-.254.227-1.773 1.5-4.61 3.776-4.572.602.02-2.248 1.295-5.215 2.602-7.585 1.907-2.665 3.406-5.402 4.218-7.898 2.95-9.063-2.92-5.594-6.87-.492-3.39 4.388-6.663 10.887-7.568 16.626-.037.23-.064.45-.095.667-.34.292-.667.554-.965.778-2.47 1.852-5.343 3.828-5.164-.044.145-3.308 2.63-7.597 4.662-10.493-.146.14-.29.29-.436.44 2.27-2.98 4.075-6.036 5.077-8.817 3.674-10.206-3.494-6.22-8.2-.192-3.903 4.998-7.716 12.3-8.848 18.506-.023.12-.04.236-.062.354-.618.51-1.19.95-1.693 1.305-3.074 2.154-5.83 3.768-5.516-.702.263-3.754 2.63-8.043 5.624-11.57-3.345 3.022-6.008 7.28-6.33 10.67-.498 5.244 3.03 5.062 7.664 2.106-.45 4.4.87 5.753 4.115 2.937-3.835 2.598-3.986-.14-3.35-3.45.218-.148.438-.3.656-.458 3.038-2.2 6.04-4.993 8.65-7.982-1.484 2.16-2.507 4.518-2.642 6.48-.314 4.607 3.058 4.05 6.61 1.72-.158 3.594 1.197 4.613 3.858 2.145-3.07 2.34-3.496.17-3.093-2.675.218-.158.44-.32.66-.493 2.58-2.006 5.1-4.5 7.27-7.158-.796 1.552-1.31 3.138-1.353 4.465-.122 3.68 2.622 3.168 5.31 1.29.116 2.606 1.362 3.057 3.334 1.005-2.347 1.666-2.837.598-2.645-1.515zm6.917-16.798c2.23-3.184 5.286-4.87 3.61-.38-2.054 5.5-7.028 12.248-10.285 15.528.853-4.3 4.507-12.062 6.675-15.148zM333.88 74.692c1.65-5.78 7.45-16.02 10.783-19.963 3.466-4.106 8.05-5.75 5.277.173-3.205 6.825-10.89 15.28-16.06 19.79zm13.91-.547c1.28-5.107 6.104-14.202 8.903-17.758 2.908-3.69 6.81-5.38 4.538-.11-2.68 6.228-9.142 13.91-13.44 17.868zm22.11.027c3.84-3.434 7.125-8.247 8.21-12.313 1.71-6.37-1.626-4.08-4.14-1.023-2.447 2.976-4.773 7.58-5.362 12.112-.06.464-.09.89-.092 1.278-1.45 1.23-4.062 3.163-4.08.87-.014-2.273 1.69-5.75 2.982-7.853-1.844 2.035-3.377 5.03-3.414 7.092-.05 2.932 2.315 2.44 4.578.874.282 1.857 1.47 2.183 3.02.534-1.948 1.56-2.475.692-2.388-1 .233-.184.465-.373.687-.572zm4.992-13.443c1.858-2.69 4.43-4.368 3.062-.634-1.783 4.864-5.948 10.796-8.586 13.366.586-3.494 3.685-10.072 5.524-12.733z"/><path d="M306.65 34.958c2.912 2.877 7.435 2.307 10.28-1.162 2.66-3.238 7.252-8.11 15.662-7.847-9.61-2.384-14.838 3.62-17.107 6.368-1.47 1.78-4.9 4.19-7.786 1.543-3.364-3.09-6.97-1.96-7.353 1.062 1.215-2.717 3.985-2.253 6.302.036zm60.77 52.605c-17.1 23.357-65.84 12.713-114.522 6.808-49.77-6.04-90.66-9.49-116.428 12.574 26.144-22.253 78.624-14.39 115.933-9.144 37.31 5.245 96.927 16.935 115.016-10.237zm-226.03.7c-3.33-2.268-3.974-7.177-3.19-12.427 20.018-4.703 51.61-2.668 67.32-2.115 19.613.69 62.762 4.2 86.07 5.23-23.205-2.313-64.967-6.16-85.977-7.297-15.313-.83-47.076-2.453-67.22 3.027.292-1.556.692-3.126 1.186-4.655.396-1.233.805-2.515 1.184-3.81 7.238-1.315 14.837-1.646 21.24-1.696 16.524-.127 39.096.435 53.634-1.003-14.22.076-38.76-2.61-53.77-2.237-2.538.062-5.658.172-9.073.454 2.014-3.544 4.327-8.46 6.4-13.31 6.34-2.775 15.002-2.974 23.92-3.402 11.024-.527 18.605-1.135 23.585-1.85-.14.34-.274.686-.402 1.036-.936 2.526-2.024 7.77-4.782 8.985-9.397.452-18.144 1.105-26.062 2.068 14.994-.934 32.88-.992 52.52-.996-.577.958-1.195 1.747-1.854 2.294-18.38.138-35.803.7-49.14 2.113 33.618-1.624 62.302-.123 121.137.89 1.086.02 2.157.037 3.218.056 1.47 2.897 5.463 4.243 9.715 3.32 1.967-.43 3.562-1.303 5.142-3.152 4.13.027 8.048.036 11.762.03-1.784 3.836-5.192 12.057-10.51 13.57 5.75-1.223 9.55-6.862 12.712-13.173l.197-.404c39.672-.156 55.628-2.26 63.34-4.032 10.454-2.4 8.055-9.604 3.25-10.358-4.122-.646-8.04 2.396-7.156 6.97.094-5.084 5.48-7.007 8.616-5.607 3.062 1.37 4.504 5.868-5.747 7.347-4.16.6-30.64 2.352-61.008 2.992.573-1.218 1.12-2.378 1.67-3.45.916-.09 1.826-.207 2.72-.365 2.472-.172 8.07-1.953 5.01-5.114 2.3 2.958-2.596 4.538-5.085 4.64-.764.1-1.536.168-2.315.214.548-1.032 1.107-1.976 1.703-2.774 1.44-1.914 3.955-3.532 5.7-2.08-1.65-1.828-4.977-.935-6.976 1.09-1.12 1.137-2.033 2.462-2.83 3.844-1.537.01-3.098-.037-4.673-.112-2.04-.1-4.123-.18-6.223-.25.404-.864.823-1.8 1.26-2.812 4.03-9.342 8.288-21.3 13.473-25.556-4.39 2.863-7.898 8.495-10.578 13.88-3.095-3.68-8.883-1.445-14.412.245-5.897 1.8-9.966.778-12.485-5.044 1.88 6.503 7.067 8.42 12.985 7.145 5.59-1.207 10.12-4.42 13.793-2.103-2.043 4.135-3.597 8.096-4.68 10.507-.528 1.178-1.054 2.425-1.606 3.668-3.91-.122-7.915-.21-12.034-.3-9.9-.2-20.373-.323-31.238-.367 3.23-7.984 6.537-12.234 9.664-13.2 3.882-1.2 7.364 1.768 6.514 4.943-.85 3.18-5.1 4.146-7.23 1.63 1.14 3.08 6.902 3.064 8.468-1.225 1.573-4.288-2.173-9.148-8.162-7.376-4.64 1.372-8.216 7.698-10.09 15.226-4.55-.016-9.158-.02-13.832-.007-2.397.02-4.777.04-7.145.062 1.567-5.745 3.814-9.25 7.17-10.06 3.074-.742 5.533 1.203 5.098 3.555-.437 2.35-3.907 3.032-5.573 1.332.946 2.11 5.412 2.487 6.82-.968 1.41-3.454-2.112-7.073-6.78-5.713-4.265 1.24-6.314 5.74-7.016 11.857-7.786.07-15.393.146-22.762.27 2.473-4.16 4.21-10.084 5.614-14.973 2.12-7.368 3.624-15.906 7.447-18.997-2.493 1.357-4.29 3.884-5.67 6.866-1.444-1.053-1.89-3.117.682-5.514 1.875-1.746 5.885-2.788 9.785-2.594.036.002.066.007.104.008-2.084 4.096-3.566 9.004-4.58 12.938-1.778 6.908-3.986 19.45-8.44 21.075 5.158-1.502 8.137-11.624 10.666-20.426 1.47-5.116 2.28-9.72 3.612-13.49 2.758.29 4.66 1.02 5.8 2.134 1.315 1.294 1.034 4.118-3.764 6.185 3.314-.723 6.986-3.054 5.504-6.658-.762-1.85-3.4-3.376-6.625-3.903 1.02-2.174 2.35-3.985 4.31-5.324-2.015.966-3.736 2.853-5.21 5.206-.358-.036-.723-.065-1.094-.075-4.205-.12-8.76 1.057-11.443 3.53-3.678 3.388-1.53 6.24.57 7.17-1.61 3.568-2.647 7.75-3.576 11.364-.858 3.347-2.392 10.57-4.685 15.49-4.77.083-9.442.186-13.996.32 1.773-4.507 3.103-10.45 7.44-11.74 3.014-.894 5.74.977 5.226 3.573-.516 2.596-3.82 3.17-5.532 1.39 1.908 2.808 5.86 2.265 6.995-.818 1.115-3.036-1.52-7.22-6.415-6.037-4.548 1.096-7.138 7.195-8.146 13.644-4.334.128-8.554.287-12.655.48 3.023-.97 4.447-4.716 6.022-8.137.312-.674.604-1.43.9-2.202 2.144-.38 3.645-.792 4.607-1.234 3.486-1.602 3.397-4.045 1.652-4.85 1.677.967.892 3.003-1.675 3.663-1.202.31-2.527.552-3.937.75 1.2-3.013 2.62-5.696 5.325-4.605-3.01-1.38-5.45 1.07-7.302 4.852-6.943.743-15.773.606-24.812 1.037-7.02.335-16.06 1.114-22.844 4.47.537-1.28 1.05-2.545 1.53-3.77.076.056.148.1.224.16-.06-.086-.124-.168-.188-.246 1.08-2.748 1.998-5.268 2.642-7.267.13.028.258.053.39.085-.128-.045-.254-.072-.38-.113.294-.92.534-1.736.697-2.4-.406.556-.88 1.304-1.4 2.19-5.847-1.5-10.274 1.424-12.248 3.162-2.094 1.843-3.534 2.903-5.843 2.26-.935-.176-2.702-.65-3.62.53-.046.06-.08.117-.12.176-.55-.578-1.04-1.268-1.443-2.087.327.85.77 1.62 1.296 2.3-.595.948-.606 1.788-.625 2.596.09-1.007.43-1.75.967-2.18 1.964 2.22 5.015 3.23 8.605 2.117 3.78-1.174 6.686-3.036 9.494-2.11-.963 1.99-1.953 4.14-2.916 6.325-2.707 1.896-4.823 4.382-5.947 7.66 1.234-2.757 3.072-4.792 5.362-6.316-1.828 4.236-3.49 8.488-4.56 11.837-3.24.292-6.713.75-10.188 1.464 1.262-5.18 1.607-10.22-1.444-13.194 2.524 3.195 1.468 7.95-.446 13.61-10.896 2.553-21.388 7.85-24.298 19.01 3.226-9.25 12.68-13.83 23.27-16.082-.31.864-.627 1.745-.945 2.644-.713 2.01-1.16 4.046-1.353 6-6.51 2.02-11.592 4.872-14.154 8.874 2.608-3.6 7.645-6.106 14.075-7.83-.304 5.603 1.516 10.403 5.127 11.937zm169.656-26.325c-3.48 1.392-7.716.594-9.506-2.322 4.348.07 8.492.117 12.45.15-.865.964-1.833 1.728-2.944 2.172zm8.75-8.036c2.287-.004 4.53-.004 6.73.016 1.454.007 2.894-.007 4.31-.073-.6 1.11-1.134 2.232-1.64 3.32-3.712.072-7.474.125-11.25.157.595-.974 1.207-2.102 1.85-3.42zm-59.634.27c4.507-.01 8.954-.027 13.346-.043-.18.886-.332 1.78-.465 2.683.32-.938.64-1.825.96-2.687 11.154-.04 21.9-.092 32.046-.153 3.92-.014 7.756-.046 11.492-.062-.553 1.197-1.145 2.362-1.79 3.428-5.887.034-11.803.016-17.618-.07-20.555-.308-47.076-.893-71.878-.71.87-.563 1.67-1.347 2.41-2.296 10.092-.003 20.64.004 31.496-.09zM150.055 43.43c-2.966.93-5.932.61-8.084-1.297.716-.394 1.705-.322 2.888.315 2.355 1.272 5.59-.236 7.48-2.072 1.784-1.732 4.782-5.683 10.948-4.72-.977 1.68-2.118 3.865-3.31 6.31-2.693-1.19-6.85.5-9.92 1.463zm191.14 29.876c-12.066-.48-30.52.896-35.236 17.79 4.71-14.503 22.03-16.223 35.123-15.633 12.534.563 36.27 5.65 39.54-1.717-4.024 6.8-28.677-.01-39.428-.44zM415.38 58.65c-.047 2.142-5.883 4.755-12.365 4.22.956-1.022 1.71-1.805 2.217-2.29 4.235-4.05 8.286-5.087 9.932-2.497-1.6-3.296-6.688-2.317-11.115 1.34-.876.72-2.065 1.79-3.464 3.09-2.572-.535-5.146-1.622-7.41-3.483 2.102 2.072 4.32 3.455 6.512 4.326-7.244 6.81-19.13 18.784-24.42 23.868-12.084 11.615-25.416 23.086-62.133 19.544 35.21 4.86 51.174-3.57 64.03-16.426 9.988-9.99 19.53-20.635 24.74-26.276 7.835 1.932 14.658-2.354 13.474-5.417z"/></g></svg>