<svg xmlns="http://www.w3.org/2000/svg" width="505" height="137"><g fill="#FED100"><path d="M253.544 103.182c-.035.896-1.297.576-2.183.63.027-.947 1.77-1.01 2.184-.63zM249.16 103.49c-.823.858-4.12.897-5.33.32.522-1.236 4.28-.62 5.33-.32zM230.955 105.066c1.848-2.44 7.826-.753 11.29-1.575-1.43 1.213-4.093 1.4-6.267 1.576-1.556.124-3.397-.408-5.023 0zM237.54 121.38c.92-1.282 4.6-1.458 5.65-1.565-1.44.954-3.287 1.51-5.65 1.564zM236.604 121.07c-.38 1.51-2.423 1.334-4.084 1.564.725-1.15 2.53-1.23 4.084-1.565zM229.383 104.12c-.33 1.918-2.106.734-3.45 1.257.682-1.575 1.732-.886 3.45-1.256zM222.784 18.773c1.29.618.452 3.518.31 4.703-1.502-.85.098-2.998-.31-4.703zM219.33 105.377c.23-1.133 2.287-.434 3.454-.63-.138 1.443-2.2.937-3.454.63zM209.283 127.028c6.827-1.157 14.68-2.14 21.672-4.076-5.906 2.732-16.85 4.5-25.12 5.65.79-1.123 2.266-1.37 3.448-1.574z"/><path d="M477.697 105.377c-.374 1.67 2.236 1.547 2.818 1.256.044-.778-.484-.975-.636-1.566-1.09-.256-1.202.467-2.183.31zm-28.25-9.098c2.855-.374 6.632-.346 9.1-1.887-3.078-.493-6.066-1.043-9.426-1.255-.452.62.035 2.29.326 3.14zm9.1 9.097c3.74.123 9.645.793 14.428-.63-4.005-2.167-10.22-.59-14.428.63zm-1.567-13.494c5.605 2.105 12.58.088 16.948-1.883-5.657.354-12.357.408-16.948 1.883zm10.974 8.47c3.296-1.19 8.247.99 9.743-2.19-3.147-1.593-7.614.697-9.743 2.19zm1.892-7.214c1 .052 1.9.008 2.19-.628-.89.054-2.146-.266-2.19.627zm11.615 9.415c1.295 1.28 3.955 2.01 5.97 2.192 3.468.336 7.206-.222 10.975 0-2.1-2.167-5.862-2.59-9.1-2.818-2.45-.178-5.358.305-7.844.625zm-35.16-5.96c.45-1.395 0-1.847 0-3.456-4.784-.105-6.444 1.008-10.044 1.884 1.017 2.704 6.95 1.96 10.043 1.572zM405.805 76.2c-1.062 3.86-1.388 9.73-1.256 13.8 4.89-.547 9.363-1.52 13.176-3.138-1.08-3.625-2.284-7.117-3.44-10.663-2.292-2.045-5.395-.47-8.48 0zm5.33 18.514c3.803-.285 7.87-.3 11.618-.63 1.832 1.718 5.413 1.708 8.472 2.195-3.324-2.424-8.062-3.443-11.92-5.334-.628.9-1.964-.114-2.836 0-1.468 1.566-3.742 2.325-5.333 3.768zm5.023-18.204c.98 3.207 1.777 6.585 3.767 8.787.99-4.193 1.626-9.054-3.768-8.787zm5.02-.31c.205-.754.452-1.435.32-2.513-2.114-1.335-4.465-2.433-7.543-2.828.292 1.078.71 2.03 1.272 2.827 2.52.3 4.298 1.344 5.95 2.512zm-12.555 26.035c13.21 1.442 24.104-.262 34.855-.307-3.397-1.9-7.763-.895-11.628-.945-7.515-.098-15.427-.61-23.227 1.252zm13.51-31.06c-.247-1.605.433-2.278.3-3.767-1.527-.513-3.296 1.23-5.02 1.566.602 1.71 2.705 1.912 4.72 2.202zM396.07 56.43c1.142-4.27 3.008-11.512 1.256-15.692h-.946c-1.822 4.72-1.883 10.51-.31 15.692zm5.66 33.892c.176-2.98 1.874-7.703.618-10.047-.68.47-1.77.53-2.82.63-1.326 2.438-2.247 5.295-2.202 9.097.945.636 2.97.178 4.403.32zm.928-13.81c-.512.512-.373 1.97.636 1.88-.192-.645.514-2.182-.636-1.88zm.326-2.196c1.266 0 1.733-2.43 1.256-3.14-.37 1.1-1.246 1.69-1.256 3.14zm3.44-.626c2.2-.61 5.49-.07 6.604-.946-1.237-2.015-1.68-4.812-4.403-5.333-.716 2.105-2.404 3.243-2.202 6.278zM386.66 49.522c3.147-.513 4.132-3.19 3.768-7.213-1.184-1.346-2.335-2.708-4.72-2.83-.34 3.03-1.16 7.735.952 10.042zm9.102 42.68c-2.408-.798-6.457-.01-8.162 0 .592 1.113.08 1.715.937 2.19 2.137-.99 5.622-.643 7.224-2.19zm-4.078-18.514c3.087.15 5.093 1.39 8.152 1.566 1.078-3.043 4.605-6.836 3.767-9.728-4.078 2.61-8.66 4.733-11.92 8.162zm2.82 16.632c.406-3.157 1.548-5.57 2.203-8.48-3.133-.68-6.413 1.112-10.364.63-1.053 2.58.487 5.117.316 7.85 2.847.65 4.777.026 7.845 0zm-3.147 6.276c1.2 1.274 4.64.035 6.91-.316-.344-3.034-5.983-.95-6.91.316zm1.89-35.773c-1.564-1.75-4.004-.947-7.224-1.256.664 2.67 5.29 3.208 7.225 1.256zm-9.105 3.448c-.035.77-.055 1.513.31 1.883h4.403c-.197-2.015-2.635-1.76-4.713-1.882zm.616-12.236c.045 2.13-.536 3.643-.306 5.96 1.907.256 4.448.044 6.596-.31-.592-2.23-.08-5.562-1.256-7.225-1.098 1.195-2.96 2.264-5.033 1.574zm.64 26.357c2.35.858 4.182-1.732 3.457 0h2.502c-.63-2.156 3.862-.9 4.403-2.82-4.052-2.094-8.693-1.29-10.363 2.82zm11.926-40.477c-.45-7.1-8.462-5.277-13.492-3.765.927 2.103 4.423 1.635 6.596 2.51.955-.08.53-1.564 1.876-1.255 1.818.68 2.458 2.565 5.02 2.51zM385.09 90.627c-.496-2.553.69-5.694-.636-7.843-1.807-.236-2.99.744-4.387 0-.47 2.098-.566 6.083 0 8.162 1.83.054 3-.548 5.023-.32zm7.216-12.546c-.753 2.275-4.96 1.108-6.28 2.823 3.39-.893 10.01.113 12.246-2.822-2.582-.635-4.493 1.47-5.966 0zm-7.216-4.392v1.566c.76-.276 1.812-.285 1.873-1.256-.952.23-.908-.54-1.873-.31zm-10.372-13.185c.433.93.674 2.06 1.256 2.82 1.926-1.06 2.547.99 2.838 2.51 1.944-.617 2.363.868 4.077 0 .01-.732-.542-.917-.312-1.88-3.083-.505-5.137-4.563-7.86-3.45zm-.31-7.213c.31 3.103 3.13 6.09 6.278 4.394-2.103-1.45-4.245-2.874-6.278-4.394zm-.946-7.852c2.67.264 5.925-1.043 8.17-2.193-.142-1.635-.29-3.27-.635-4.704-1.946.24-4.482-.14-5.95-1.254-1.212 1.857-2.443 5.262-1.585 8.152zm4.714-11.608c2.714-1.583 6.924-1.654 10.362-2.512-.177-1.317-1.433-2.034-.62-3.448 2.478-1.07 7.56.45 9.098-1.565-8.187.398-17.655 1.167-18.84 7.525zm-5.02 2.51c2.137-1.945 3.453-4.704 5.33-6.905-1.972-.503-4.246-2.27-5.64 0 2.014.86.07 4.82.31 6.905zm.306 12.864c2.122 3.652 5.836 5.677 9.427 7.852-.567-3.226-.542-6.868-.637-11.3-2.407.663-6.633 1.548-8.79 3.448zm9.736 27.62c1.158-5.348-3.29-3.648-5.333-5.34 1.328.02 2-.44 2.82-1.564v1.885h1.893c.33-1.283-.088-1.486 0-3.14-.6.07-.698-.353-1.256-.317-.875-.135-.29 1.177-.945 1.257.035-.77.044-1.515-.31-1.887-1.38.222-1.77-.53-3.147-.31-.744 3.423 1.458 7.383 1.256 10.356 1.663-.02.407-2.944 1.892-3.14-.425.945-.326 2.405-.326 3.766 1.625-.043 2.517-.83 3.456-1.565zM365.31 66.78c1.196-.158 2.345-.37 2.822-1.254-.822-.23-2.59-1.15-3.458-.32.47.275.47 1.018.637 1.574zm3.458 37.34c4.67.14 14.3 1.396 17.26-.938-4.652.25-12.132-1.484-17.26.94zm.62-34.827c2.167 1.06 3.458-.752 3.768-2.513-2.31-1.007-3.61.46-3.768 2.513zm3.767-9.417h-3.132c-.626.222.07 1.75-.636 1.883v-1.564c-.91.035-2.053-.177-2.512.308.538 1.327.636 1.593-.31 2.512 1.02-.07 1.325.557 2.512.31.035-.583.202-1.044.62-1.248-.69 2.697 2.98 2.502 4.093 1.566.045-1.523-.255-2.68-.635-3.768zm-5.023 65.588c16.18 2.186 36.355 1.113 48.973-5.65-15.47.496-33.907 3.733-48.973 5.65zm-8.787-37.03c2.403 0 4.94.117 5.656-1.57-1.582-1.337-5.073-.064-5.655 1.57zm3.764-57.744c-1.036 8.762-.85 22.112 2.2 27.932 2.008.15 2.38.15 4.388 0-.044-.778-.044-1.522.636-1.566-1.054 1.778 1.66 1.618 2.82.938-.283-3.687-1.628-6.32-3.13-8.79 2.723-5.136.265-13.526 2.182-19.45-2.04-.273-1.67 1.876-3.438 1.883-1.272-1.458-3.484-1.804-5.66-.947zm-.947 60.566c5.9-.266 8.613-.266 15.065-.31.78-2.396.813-4.88.327-7.53-.396-.02-.43-.41-.946-.32-3.74 1.388-6.985 3.27-9.734 5.648-1.6.814-3.935.887-4.713 2.512zm1.255-23.22c-.28-.866.646-2.943-.62-2.83.276.877-.645 2.954.62 2.83zM373.79 25.36c-3.624-.856-9.39-1.308-10.99 1.884 3.36 1.034 10.184.725 10.99-1.884zm-8.17 44.87c.203 1.37-.405 3.547.31 4.396.267-.918 1.016.187 1.582 0 .24-1.335.725-2.404.62-4.074-1.187.237-1.493-.39-2.512-.32zm10.044 1.887c-5.03-1.54-7.675 4.074-7.222 10.044 3.245-.223 6.85-.064 8.478-1.887-.07-3.07-1.08-5.197-1.256-8.158zm-23.545-8.79c1.724 2.677 3.994 4.81 8.787 4.393.398-1.37.15-2.758-.31-4.075-2.72-.143-6.664-3.085-8.478-.32zm11.298 16.632c1.326-1.813 1.01-7.196-.31-9.728.11 3.22-.812 7.04.31 9.727zm-7.84-7.842c1.527-.866 3.314-1.496 4.402-2.822-1.636-.363-3.132-.848-4.714-1.256.01 1.45-.14 3.07.31 4.078zm-23.228 34.518c6.073 1.21 13.412-1.53 18.834 1.252h1.882c.29-1.482 1.75-1.812 3.768-1.562.266.883-.442.813-.31 1.562 4.508-.474 9.565 1.266 11.298-2.19-1.078-.982-1.654.432-2.82.31.01-.4.39-.435.31-.938-10.124.423-23.59-1.433-32.962 1.566zm6.895-23.538c7.535.1 15.102-.133 21.99-.626.785-3.434-.806-6.605 0-10.984-.407-.02-.442-.398-.944-.31-7.066 3.916-14.73 7.234-21.045 11.92zm2.84-11.29c3.12.805 7.78.823 11.29.31.055-1.663.76-3.3-.31-4.396-5.683-1.302-8.83 1-10.98 4.085zM340.83 90c-.763 2.502 3.242 1.177 5.33 1.256 3.325.124 7.754.133 10.673 0-.168-1.237-1.54-3.388-.62-3.768-3.527.893-8.718 1.9-12.255 3.14-.335-.292-.097-1.16-.945-.94-.107.922-1.36.72-1.876 1.258-.05-.37.045-.892-.307-.946zm3.44-30.433c1.786.77 2.738-.08 4.402 0-.442-1.335-1.883-1.68-2.822-2.512-.39.983-1.35 1.363-1.58 2.512zm-26.988-.945c-.27 1.573-2.447-.603-2.207 1.254.917-.415 1.635.203 3.147 0 .272-1.007-.487-.98-.94-1.254zm59.638 33.58c-19.762 1.354-36.355-.54-53.687 1.882 2.936.116 5.112.974 6.604 2.512 5.023.797 13.44-.38 17.578-.316 1.59.025 3.05 1.085 1.787.972 2.157.274 3.183-.576 4.498-.655 1.088 1.645 3.29 1.565 4.694.31.763-.123-.174 1.434.95.937 4.613.778 10.747.812 15.7.32 2.415-2.434 8.4-1.69 11.917-3.77 0-1.042-1.015-1.067-.936-2.19-2.6.187-3.606.098-6.285 0 .403 1.646-.593 1.9-1.566 2.19-1.015-.133-.812-1.494-1.254-2.192zm-48.645-9.107c10.467 1.22 14.737-4.94 21.652-8.15-3.688-.3-6.757-1.193-10.683-1.257-3.393 3.387-7.707 5.88-10.97 9.407zm10.66 16.322c-.812-1.478-5.33-1.187-6.585-.32-1.104-.875-3.66-.82-4.404.32 3.768.61 7.668.28 10.99 0zM359.98 84.04c-8.576.32-15.13.522-24.5.63-3.324 2.818-8.294 3.72-10.046 6.905 6.792-.728 14.795-1.796 21.98-3.142 4.563-.856 9.508-1.827 12.566-4.393zm-27.94-13.49c5.56 1.58 10.258.68 11.918-3.77-3.05-1.944-6.373.832-8.477.628.867-.397 1.386-1.123 2.203-1.574-.852-.396-1.734-.76-3.133-.627-.832-.85-.832-2.528-1.58-3.448-4.183-.178-8.32.09-13.176 0-1.28 2.183-3.458 3.456-4.404 5.958 5.827 1.106 14.757 3.812 17.904 1.257.38 1.335-1.042.84-1.255 1.575zm-29.522 12.234c3.457.514 7.022.398 7.854-2.51-3.407-1.203-6.732-.238-7.854 2.51zm5.66-10.352c1.466-.202 2.086-1.256 2.51-2.512-1.325-.06-2.783-1.21-3.767-.627-.068 1.528.798 2.123 1.257 3.14zm3.13.31c3.368.787 11.265 2.27 13.51-.627-3.732.352-11.21-3.742-13.51.626zm-1.256 10.042c2.06.39 4.96.548 6.276-.625-2.03-1.47-4.385-1.31-6.276.624zm-.936 21.027c15.426.39 33.827-.156 47.717-1.88-8.797-1.54-16.377.477-24.483-1.257v.937c-4.916-.08-10.584 1.246-14.127 0-1.496 2.27-6.95.58-9.107 2.2zm21.978-19.14c-7.1-1.55-11.786 3.888-16.322 6.905 6.958.893 12.38-2.944 16.322-6.905zm-15.383-4.713c3.202.99 7.61.76 10.67 1.882 3.088-2.99 8.544-5.26 10.047-8.78-3.432.564-5.343-1.432-7.845-.628-.945.3-1.59 2.06-2.508 2.512-1.123.547-2.753.247-3.768.627-1.665.602-2.822 2.91-4.403 1.565.468-.69 1.69-.62 1.892-1.564-3.404-.256-6.586-.74-9.743-1.255-1.01.974-2.378 1.594-2.183 3.767 2.932 1.59 5.95 1.797 8.776 0 .125 1.062-1.377.486-.935 1.875zm-23.235-13.494h1.584c0-1.158-.152-2.157-1.257-2.192.14.99-.567 1.106-.328 2.193zm6.603 10.047c-.39-3.838-9.122-9.102-8.477-1.256 3.42.493 4.626 1.27 8.478 1.256zm-3.147 26.045c1.08.7 2.956.602 4.404.937.62-.654.24-2.078 0-2.818-1.315-.34-2.847-.222-4.093.31 1.39.528.7 1.182-.31 1.57zm9.428-30.75c1.094-2.812-5.35-5.024-7.536-2.512.72 2.626 4.704 1.98 7.536 2.512zm56.496 38.59c-22.165.813-40.433-4.886-60.59.63 21.122 2.238 41.537 4.296 60.59-.63zM305.974 74c-1.926-1.09-3.8-1.797-6.274-1.257.954 2.282 2.818 3.67 5.33 4.395.618-.742.618-2.104.945-3.137zm-21.342-8.79c1.636.46 2.856 1.325 5.023 1.255 2.74-5.11-4.722-6.516-5.023-1.256zm-1.256-8.78c3.167.487 5.403 1.92 7.535 3.448 1.114-.044.69-1.608 1.564-1.883 1.186-.238 1.512.38 2.51.318 1.15-3.872 2.282-12.19-1.564-12.872-.134-.02-.513-.044-.617 0-3.99 1.848-8.038 6.268-9.427 10.99zm17.27 10.352c-.1-1.52-.78-1.74-.312-3.138 1.363.008 1.71-1 2.822-1.256.892 4.12 5.27 4.783 10.043 5.02 1.27-1.652 2.52-3.34 3.446-5.33-4.323-1.36-9.23.433-12.873.31-.963-.035-4.71-1.317-6.587-.31-.434 1.478-1.354 2.715-.31 4.075 1.53-.06.117-1.112 1.565-1.253.105.724-.043 1.202-.31 1.564 1.16-.22 1.338.542 2.515.32zm7.84 50.205c-.902-2.088-2.537-1.59-5.02-1.876-6.605-.78-14.653-2.66-20.4-1.883-.177-.91-.504.48-.946.31-1.688.257-2.688-.53-3.773 0 9.512 2.608 19.643 1.98 30.138 3.448zm-21.032-42.042c3.792-8.5-14.235-6.906-8.472 0 1.654-.02 2.635-.715 3.758-1.256v1.256c2.148-.01 2.828.547 4.714 0zm9.112 9.408c-8.3-.91-18.997-.31-27.01-1.255-.646.408-1.592.503-1.563 1.575 4.242 1.927 10.265 6.69 17.585 7.532 4.89.557 11.51-.124 16.94-.32 2.672-.09 5.465.487 7.533 0 3.937-.917 7.8-6.02 11-7.212-6.517.22-13.713-.22-19.15 2.51-2.3 1.16-7.49 5.21-9.426 1.254.374-2.36 2.714-2.73 4.092-4.083zm-24.798-18.198c3.936 1.133 11.564 1.938 8.47-3.766-3.482-.503-6.65 1.61-8.47 3.766zm.3 7.536c1.697-.247 1.777-1.698.32-2.202.182 1.015-.212 1.458-.32 2.202zm-.62-9.735c1.584-.39 3.28-.69 3.767-2.194-1.344.123-3.245-.3-4.083.316-.044.77-.044 1.513.316 1.877zm-1.253-3.758c2.828.186 9.318 1.396 9.724-1.884-2.69-.742-7.86-.104-9.725 1.885zm7.532 37.647c-.97-.024-1.75.15-2.19.63.49.46 2.48.654 2.19-.63zm-2.192-27.292c1.015-.24 1.636-.867 1.872-1.886-1.882-.54-3.713-1.733-5.02 0 1.37.31 1.823 1.522 3.148 1.886zm-9.743-3.46c-1.832-.017-2.284-1.457-3.768-.31-.848 4.414 3.802 3.307 6.915 3.77.138-1.203-.1-2.01-.64-2.513-1.582.637-1.562-.496-2.818 0 .026-.407.405-.434.31-.946zm-3.457-3.766c.015.84-.107 1.793.325 2.202.547-.293 1.566-.107 1.876-.628-.955-.3-.983-1.53-2.2-1.574zm1.58-3.757c1.222-.46 3.035-.318 3.46-1.574-1.514-1.264-3.088-.01-3.46 1.574zm-.31 15.376c.41 3.368 6.384 3.3 5.95.31-1.688-.266-4.374-.964-5.95-.31zm-7.55 16.94c5.483.038 16.225.338 21.036-.627-4.278-1.458-7.4-4.112-11.298-5.96-1.733.133-1.763 2-3.768 1.883-.646.55-.274.973-.62 1.254-1.483.25-3.96 2.063-5.348 3.45zm13.502-26.357c-.096-1.15.274-2.777-.302-3.45-1.256.116-3.023-.29-3.772.31.787 1.61 1.6 3.21 4.074 3.14zm2.51 14.747c.354 1.21-1.095 1.116-.3 1.886 5.35-.144 16.057.998 23.218.935 4.235-.025 6.374-1.592 7.532-4.077-4.35-.733-9.812-2.765-14.117-1.562-3.123-1.848-7.8-1.364-10.993-.945.374 1.547-2.218 2.2-3.448 3.14-.052-.63 2.122-1.46.62-1.567-2.202.72-6.994 1.575-8.788 3.758.946.425 2.414.33 3.765.32.983-.498.688-2.247 2.51-1.887zm-16.63-13.81c-4.086-1.017-7.505-.867-10.99.317 2.024 3.46 10.45 3.903 10.99-.317zm1.565-1.565c.732-.638 1.688-1.044 1.892-2.2-3.183-.028-8.025-1.195-10.37 1.572 1.7.486 5.924.088 8.478.628zm-10.044 16.94c5.04.444 8.215.603 12.884 0-1.62-2.26-4.732-3.023-7.55-4.073-1.408.563-2.02 1.952-4.078 1.883-.28.857-.965 1.334-1.256 2.19zm7.532-5.328c1.078.37 9.71 6.32 10.046 3.138.133-1.187-4.324-2.945-3.768-5.65-4.112.487-8.684-3.466-9.732 1.573 2.023 1.54 3.305-.972 4.71-.626.407 1.353-1.493.388-1.256 1.566zm1.894-7.217c.75.602 2.52.194 3.765.312.25-1.4-.425-1.887-.308-3.142-2.034.07-2.477 1.725-3.458 2.83zm2.51 18.195c2.255-.66 4.077-1.77 5.333-3.448-2.133-.575-5.35 1.902-5.333 3.448zm-16.33-5.65c3.536-.644 5.994-2.378 7.84-4.703-3.294-1.457-5.18 3.483-7.84 4.704zm-1.882-12.545c1.017.602 1.857.655 3.147.312-.213-1.054-1.08-1.444-2.202-1.567.266 1.008-1.034.425-.946 1.255zm9.723 2.512c-3.42.017-6.266-1.502-8.777 0 1.9 1.582 7.69 3.89 8.777 0zm-10.98-5.653c1.716-1.236 2.953-1.448 4.075-2.828-.66-.575-2.296-.203-3.447-.31-.794 1.14-.055 2.103-.627 3.138zM226.562 81.84c1.08.496 1.485-2.095.312-1.883-.355.37-.355 1.113-.31 1.882zm2.823.32c3.844.094 5.887.094 9.734 0 2.378-2.114 5.18-3.823 7.224-6.28-2.775-1.513-6.47-2.113-10.045-2.82-2.06 1.82-4.916 2.84-6.912 4.705v4.394zm10.98-22.91c.266 1.087-.46 1.202-.31 2.2 2.653-.176 6.4.752 6.287-2.2-2.13-.4-3.42.13-5.978 0zm-10.664 8.158c1.344.744 2.723 1.46 4.393 1.885 2.202-1.045 3.99-2.503 3.758-5.97h-7.53c-.77.805.14 3.28-.62 4.085zm3.13-5.96c1.705.488 3.396.18 5.656 0v-1.572c-2.324.098-4.02.805-5.655 1.573zm11 21.967c-2.442.625-3.388 2.95-5.344 4.394-2.13 1.564-4.744 2.146-5.02 4.073 8.434.123 17.195 1.417 19.77-4.395 2.917-.325 4.578-1.91 5.657-4.073-4.473.272-9.91-1.33-15.064 0zM229.7 60.503c3.482-.272 5.993-1.537 8.786-2.51-1.59-8.567-2.587-17.708-8.477-21.962-.67 8.055-.178 16.517-.31 24.473zm0 22.912c-.603.76-.672 2.06-1.893 2.19-1.58-1.856-3.738-3.2-6.27-1.884-.512 3.167 1.442 5.625 0 7.855 6.394 1.006 10.982-4.8 15.066-8.16-2.88.113-4.525-.295-6.904 0zm-5.35-43.308c2.98-2.99 2.69-10.92 2.21-16.312-1.103 5.065-1.836 10.503-2.21 16.312zm-.3 72.802c8.896.89 17.977.865 26.047-1.257-5.523-.258-14.358.635-19.777 0-1.822 1.67-5.66-.37-6.27 1.256zm.936-48.957c-.158 2.147.434 3.544.62 5.34 1.01.054 2.315.735 3.156 0-.875-2.67-2.167-3.008-1.892-5.65-.954-.23-.93.54-1.884.31zm1.885-6.27c-.593-5.614 1.15-11.626-.938-15.693-.468 5.093-2.74 10.01-1.58 15.694 1.43.045 1.245.256 2.52 0zM227.81 74c-.886.76-.98 3.005-2.82 1.88-.09 1.242.116 2.188.944 2.513 1.23-.61 3.546-2.915 1.876-4.392zm1.89 1.256c.938-.206 1.813-.488 1.887-1.566-.63-.01-.41-.857-1.266-.627-.266.67-.813 1.07-.62 2.194zm-22.287 6.905c3.828 2.304 8.18-1.454 10.354-3.77-3.703 1-7.46 1.956-10.353 3.77zm8.153 4.393c.848.832 2.084 1.265 3.463 1.565.127-1.072.744-2.585-.325-3.14-.91.664-2.865.274-3.137 1.575zm-1.886-.947c1.073-.503 1.887-1.265 2.842-1.885-1.843-.044-3.69-.123-4.724.63.088.97 1.113.982 1.88 1.256zm-5.956 5.97c3.538.39 9.833.828 12.863-.32-3.492-.363-5.074-2.654-8.15-3.447-1.353 1.314-4.253 2.588-4.712 3.765zm8.17-31.7c.372-11.688 1.495-25.957-.637-37.337-.857 8.468-1.698 17.187-1.247 25.1.203 3.873.6 8.7 1.883 12.236zm-.327 22.593c1.078-.084 2.546.245 3.138-.31.02-.957-.28-1.603-.937-1.887-.742.728-2.22.71-2.2 2.196zm-19.77 25.415c18.814-.936 43.343-2.33 62.773-.936 2.335.167 4.635-.16 6.916 0 8.187.565 15.746 2.722 24.48 3.137 6.544.31 12.928-.715 18.833-2.202-15.48-2.113-30.178-3.35-45.825-4.703-.143-.795-.99-.892-1.566-1.253-5.836-1-11.748.66-17.575.306-2.01-.113-3.97-1.183-5.98-1.252-9.29-.295-18.24 2.252-26.593 3.995-.133-.01-.266.015-.4.087.135-.028.268-.054.4-.088.52.043.927.61.228.714-11.104 1.83-21.077.486-30.76.63 4.66 1.864 9.85 1.827 15.068 1.56zm5.33 1.256c-1.006.134-2.704-.403-2.82.63 1.39.08 2.272.59 2.82-.63zm.63-9.096c-1.67-.212-1.193 1.732-3.14 1.255-.265 1.318 1.405.688 1.884 1.255.28-.98.866-1.66 1.256-2.51zm-1.877-31.38c3.3-.36 13.713 2.408 14.757-2.83-.256-.06-.38-.256-.325-.627-5.482.955-10.373 1.707-14.432 3.457zm2.202 10.046c4.688 3.818 10.52-1.265 15.066-2.83-.478-1.715-.813-3.58-1.58-5.02-4.873-.09-8.96 5.56-13.486 7.85zm7.205 8.47c-2.413.83-4.596 1.885-5.96 3.767 2.557-.7 4.742-1.75 5.96-3.768zm63.105 22.59c-23.538-3.915-43.368-2.166-70.31-.63 7.038 3.715 16.4 2.02 24.793 1.576 14.73-.778 29.495.405 45.518-.945zm-93.864-45.5c.62 2.422 5.048 1.62 5.96 0h-5.96zm2.203 26.986c4.624.892 10.255.558 10.988-3.447-4.532.27-8.097 1.536-10.988 3.446zm1.575-23.848c5.004 3.653 14.348.283 17.265-3.138-6.375-.186-13.172-.283-17.265 3.138zm25.11 3.142c-6.984-.788-16.092-1.08-19.46 3.448 3.428.01 5.832 2.644 8.787 2.512 3.924-.178 7.442-4.458 10.67-5.96zm-17.268 6.275c.838.452 3.685 2.344 4.083.31-1.645.142-2.98-1.822-4.083-.31zM172.25 89.69c-1 .363-2.558.158-2.514 1.565.972-.388 2.468-.255 2.513-1.566zm.625-21.342c1.21.27 3.644-.683 4.704-1.567-1.355-.83-2.567-1.83-4.07-2.51-.087 1.485-.733 2.42-.635 4.078zm0 7.53c1.45 2.203 4.358-.378 5.65-1.254-1.405-.272-4.676.072-5.65 1.255zm2.82 2.203c.052-.37.495-.344.957-.315v-.63c-.22-.98-1.94.734-.956.946zm-.3 13.176c6.976-1.28 11.044-5.48 18.506-6.278 2.395 2.166-.673 4.82-1.556 6.598 2.818.035 3.66.44 6.896.308 2.5-2.828 6.763-3.907 8.786-7.213-1.255-1.432-3.542.115-4.703-1.254.85.212.61-.655.94-.946-2.123.28-5.034-.222-5.96 1.253 1.66.398 3.2-.952 4.394 0-4.255.214-11.033 2.21-12.864-.627-.928.547-2.848.088-3.14 1.256 1.883.646 3.024-1.6 3.45.32-6.33.783-11.352 2.88-14.747 6.584zm0-10.353c4.755 1.784 11.068 1.166 15.063-1.256-1.73-1.6-2.714-3.97-4.71-4.394-1.555-.328-9.48 3.748-10.352 5.65zM165.65 53.29c-2.65-1.945-6.365-.92-10.66-1.256 1.857 1.6 6.55 1.106 10.66 1.256zm-3.137 20.078c-.187.195-.734 1.496 0 1.575.132-.61 1.22-.247.945-1.256-.404-.018-.44-.408-.945-.32zm.318 17.888c5.183-.885 9.064-3.078 12.566-5.65-2.547-.628-5.236 1.74-5.98 0 4.448-1.758 7.25-.167 10.674-2.19-5.546-1.124-10.212-.532-15.377 1.882.168 2.564-5.65 1.478-5.97 3.768 1.424-.187 4.99-1.15 5.024.936.286 1.007-.812.652-.936 1.254zm2.82-26.985c.266.99.93 1.592 1.575 2.193 1.142-.742 2.714-1.052 3.448-2.192-2.29-.22-3.138-.328-5.023 0zm-1.88 37.66c8.09 3.074 23.26 1.29 30.457-.32-5.852-.045-13.05-1.68-17.574.626-3.467-1.414-8.412-.795-12.884-.307zm2.51-23.22c.743 2.642 4.668.352 5.34-.945-.336-2.847-4.714-.62-5.34.945zm-2.192-16.634c1.768.54 4.887.204 7.842.31.107-.627 1.015-3.094-.31-3.137-1.68 1.775-5.67 1.236-7.532 2.826zm6.586 10.356c2.97.733 9.214-.31 11.628-2.202-4.043.566-10.762-1.546-11.628 2.202zm-25.42-15.376c-.016-1.58-.92-.317-2.192-.628-.035 1.54 1.22.62 2.192.628zm-1.266 9.724c.993 0 2.044.744 2.84 0 .017-1.592-1.388-1.76-2.84-1.882v1.882zm4.404-10.352c1.24-.114 1.92.734 2.512-.318-.627-.575-1.936-.096-2.512.318zm1.575 50.52c9.266 2.537 24.863 2.53 32.635 1.256-7.94-1.483-13.272-2.477-22.907-2.827-2.46-1.69-8.18-.54-9.728 1.572zm-1.256-9.106c3.563 3.698 11.423 3.192 14.43-.616-4.79-.1-8.982.29-14.43.616zm1.883-25.727c1.142.59 2.496.158 3.14-.63-2.918-.448-5.525.902-7.224.63.114 1.52 3.915 1.247 4.083 0zm12.238-8.162c-4.26.157-9.637-.1-14.745 0-.516 1.528 2.562 1.963 1.882 4.71-2.492.735-3.935.383-6.905.312-.133 1.284 1.326.964 1.557 1.885 7.673-.383 15.056-1.072 20.725-3.45-.463-1.53-1.514-2.46-2.514-3.457zm-33.905 16.63c2.847.99 4.103-.99 5.02-2.818-2.882-.276-5.26-.038-5.02 2.818zm1.256 7.535c6.242.433 9.71-4.477 14.438-6.59-.025-.38-.08-.742-.63-.625-4.542 2.467-10.837 3.162-13.807 7.215zm5.65-13.175c-.22-.857.627-.636.627-1.256-2.123.143-2.527.123-4.394.627-.02.86.532.63 0 1.256 2.192.61 2.36-1.38 3.768-.627zm2.21 12.545c5.244.532 9.928-.9 13.493-.31-5.846 2.29-14.06-.733-18.214 3.768 6.7.01 17.48 1.388 20.415-4.394 3.562-.833 6.788-1.99 8.778-4.394-5.074-.418-8.196-2.838-13.175-2.512-3.51 2.874-8.266 4.51-11.3 7.842zm-.328-30.123c.59.363 2.9.345 3.138-.627-1.078.168-2.98-.468-3.138.627zm1.256 17.26c2.084-.23 4.685.077 5.35-1.564-1.7-.56-5.296-.53-5.35 1.564zm25.43-17.887c-8.083 3.147-16.485-.354-24.475 2.83 3.19 3.517 13.032 3.11 20.706 2.508-.108-5.472 10.156-1.475 11.618-6.594-2.92-1.168-4.36-.222-7.852-.63v1.886zm-28.26 23.22c3.678-.94 6.297-2.91 9.435-4.388-2.787.382-10.283.373-9.436 4.387zm-23.22 11.298c.56.415 3.123.795 2.833-.63-1.148.02-2.493-.173-2.83.63zm4.705-.63c.354.073.487.355.63.63.742-.195 1.457-.424 1.57-1.256-.81.124-1.73.16-2.2.627zm14.12-1.562c-1.477.192-3.058.28-3.128 1.882 1.65-.025 2.123-1.227 3.13-1.882zm-8.468-32.636c10.008.062 21.343-1.256 31.396-2.2-9.337-1.088-22.572-.842-31.395 2.2zm-22.61 42.99c3.62.397 7.18-1.778 8.806-4.395-4.34.07-7.053 1.73-8.805 4.394zM127.36 75.57c-3.582-.868-7.074 1.087-10.355 1.564 3.228-.432 8.453 1.178 10.354-1.564zm-19.145 11.61c.778-2.573 1.92-4.765 2.195-7.843-2.97-.29-5.333.576-7.234-.946-.37 2.238-.405 4.818-.626 7.217 2.395-.124 4.413 1.58 5.665 1.572zm1.886 2.51c.257-.39.938-2.907 0-2.512.168.823-1.512 2.344 0 2.51zm2.512-.316c3.024.414 5.773.315 8.468-.31.886-2.68 3.75-4.315 2.822-7.852.626-1.035 2.61-.743 2.202-2.822-3.99.54-8.09.566-12.555.946-.815 2.823-.78 6.457-.938 10.038zm-25.748-.63c1.546-.02 3.19.054 3.758-.936-.937-.31-1.857-.646-2.818-.946-.463.485-.665 1.228-.94 1.882zm2.195 13.81c1.29-.167 2.286-.635 2.817-1.57-1.05.085-2.546-.24-3.128.315-.03.546.068.973.31 1.255zm1.88-5.022c1.184.17 1.972.762 3.45.63-.222-.966.556-.92.32-1.883-1.612.06-3.62-.276-3.77 1.252zm-.628 1.566c.133 1.82 2.546 1.034 3.768.63-1.036-.434-2.184-.735-3.768-.63zm6.59-.626c1.732-.364 2.728-1.46 3.456-2.822-2.458-.364-3.935.256-3.457 2.822zm12.253-62.132c-4.26-2.643-9.25-2.44-13.82-.31 2.67 3.334 11.51 5.156 13.82.31zM97.217 71.485c1.566.178 1.107 1.177-.316 2.202-1.018 4.103-1.31 8.93-2.19 13.175 1.05.743 2.413-.38 3.447-.63.83-4.64 2.97-9.546 2.202-14.747 2.074-1.157-.646-4.19 1.88-5.022 3.636 1.725.868 6.393.937 10.047 1.22-.39 6.905.837 8.49-.94.203-1.77-.02-3.128-.94-3.765 3.635-.02.665-6.65 4.078-6.906 1.794 2.227-.547 7.03-.63 10.354 1.72.556 5.872.2 5.65-1.256 3.29.556 5.67-.247 8.79-.63.834-2.095 1.14-4.722 3.13-5.65 1.964.806.32 3.37.32 5.023 4.04.17 6.79-.954 7.23-4.393-.68-1.726-3.375-1.452-2.838-4.395-11.368-.07-25.71.025-37.984 0-.573 3.015-.867 4.384-1.256 7.533zm32.334 32.953c-13.49 1.94-25.56 3.343-36.098 8.16 8.01-.477 16.886-.58 25.426.312 4.51.468 8.826 2.245 12.865 2.82 5.8.84 11.76-.33 17.277.946 4.65-.575 9.16-.31 14.748 0 5.87.326 11.59 3.13 17.268 2.192 1.873-.3 3.094-1.725 5.023-2.512 3.925-1.59 9.457-2.404 13.815-3.13 2.52-.422 5.925.223 6.27-1.573-3.422.52-6.718-1.77-10.663-2.193-.893-.097-1.626.583-2.512.627-3.59.16-7.585-.563-11.625-.316-12.264.76-24.13 1.016-37.984-1.255-.353-.787-1.235-1.054-1.254-2.192.512-1.31 3.483-1.176 4.403-.318.54-1.493.318-1.617.318-2.513 1.952.187 3.06-.483 4.704-.626-3.963-2.27-10.87-5.358-16.332-3.138-7.383.05-15.244 2.334-20.397 5.65 5.11-.144 10.946-2.31 14.748-.94zM75.885 91.883c.956-1.946 2.36-6.517 1.247-8.468-1.21 2.767-2.52 5.428-3.757 8.16.752.184 1.413.45 2.51.308zM82.78 90c1.088.256 1.202-.468 2.202-.31-.035-.928 1.104-3.482-.32-3.768-1 .994-1.44 2.54-1.882 4.078zm9.097 14.438c4.394 2.043 11.574 2.93 15.392-.316-2.042-.38-5.44 1.227-6.605-1.256-3.322 1.555-6.64-1.637-8.788 1.572zm-21.962-4.084c4.95.02 11.688 1.635 16.003 2.2-.054-.777.496-.97.63-1.57-3.97-.694-12.22-2.576-16.633-.63zm9.417-9.098c1.345-1.787 2.733-3.536 3.138-6.278-1.27.027-1.512-.99-2.828-.938-.31 1.91-1.547 5.81-.31 7.216zm4.394-8.16c1.177-3.307 2.733-6.26 3.448-10.035-.46-.476-1.405-.476-1.256-1.574 3.343-.104 2.51-4.405 3.767-6.587-1.626-.79-3.635-.594-5.65-.32-.9 2.228-2.767 4.857-1.88 7.853-1.92 1.945-1.602 6.137-2.196 9.407 1.175.502 2.032 1.308 3.766 1.255zm4.077 1.882c1.66.117 2.217 1.353 4.074 1.256 1.423-7.596 2.698-15.004 3.457-21.963-4.985-1.008-4.04 3.9-5.023 6.906 1.054.424 1.94.98 2.822 1.565-1.21.064-2.306.012-3.138-.31-.954 3.956-2.102 7.71-2.19 12.548zm-37.358 16.63c3.06.193 7.55.77 10.046-.936-3.712.956-8.937-3.254-10.045.937zm22.608-37.337c-5.144-3.456-6.01 3.96-5.35 9.1 1.586.008 2.108-1.036 4.094-.628.816-2.424 1.02-5.467 1.256-8.47zm1.885 8.47c-1.363 1.258-1.07 4.164-1.256 6.597 3.818 3.183 4.242-2.837 5.33-5.97-.828-.414-2.413-.095-2.817-.936.946-.404 2.12-.59 3.137-.945 1.088-2.147 1.788-4.695 2.192-7.532-7.364-1.857-7.64 4.395-6.586 8.788zm-5.65 15.378c.78-2.29 1.317-6.368 1.257-8.47-.733-.425-1.398-.903-2.512-.94.016 3.52-.035 7.13 1.256 9.41zm39.237 25.42c-14.092-.576-27.754 1.307-38.31 6.585 15.224-.335 34.59-4.244 52.43-4.394-3.988-1.936-9.204-1.99-14.12-2.192zM71.17 77.455c.036-.984.947-3.07-.325-3.457-.762.59-2.442.266-3.14.945.388 1.6 2.156 1.823 3.466 2.512zm4.714 4.704c-.98-.242-2-1.542-2.83-.947-.257 1.3 1.496.592 1.255 1.882-.185.654-.495 1.192-1.564.945-.098 1.292-1.132 3.255-.32 4.394 1.104-2.138 2.424-4.065 3.458-6.275zm-44.28 12.863c3.28.29 8.045.05 11-.94-1.016.276-.98-.482-1.256-.944.576-.567.374-1.928 1.256-2.193 6.453-2.184 12.767 2.698 16.313-1.572-9.674-1.984-21.776-.03-27.312 5.648zm1.583 8.788c1.424-.663 2.255-1.918 3.448-2.826 3.492-.576-1.158-.522-3.147-.63-.858.502-1.485 2.742-.3 3.457zm10.353 21.654c-2.695.512-6.823 1.023-10.354.936-8.6-.212-15.63-4.597-21.978-6.905-1.778-.646-4.615-1.193-5.96-.936-7.18 1.333-.945 11.582 1.256 13.183-6.225-1.01-9.806-14.288-2.2-15.386 4.703-.67 8.284 3.014 11.925 4.394 5.348 1.513 10.902 3.937 16.33 4.088 8.674.23 16.668-2.724 25.73-3.142.848-.768-.646-2.252.316-3.137 14.465-1.523 25.967-5.316 38.294-8.79-1.345-1.733-4.024-1.81-6.28-2.51-5.975-1.857-14.136-4.385-22.287-4.078-4.732.177-9.875 1.876-15.376 1.565-4.508-.247-10.433-2.518-14.12-1.256-1.902.656-3.07 2.965-4.72 4.088-1.576-.222-2.187.528-3.77.307-.777.69-.688 2.23-1.88 2.512-4.414-2.546.457-7.33 2.507-9.098-.183-1.528-2.828-1.396-1.553-3.458-1-.46-2.51-.424-2.84-1.562 3.99-6.387 14.53-9.25 24.804-9.727 4.526-.212 9.21-.267 10.99 2.512.122 1.378-.71 1.793-1.257 2.51h5.96c-.07-3.44-1.036-10.193-.93-13.81-1.124-1.294-3.563-1.255-2.838-4.396.407-.435 1.378-.31 2.21-.31.69-3.767-.547-10.4 1.255-14.437.876-.267 1.927-.364 2.812-.63.592.46.05 2.053.627 2.51 1.192.063 2.246.277 3.157.63.972-.9.055-3.705 1.883-3.767 1.68-.203 1.45 2.776.94 3.767 1.68.99 3.393.177 5.33.627 1.68 0 .83-2.51 2.51-2.51 1.46-.193.795 1.715.947 2.827 1.414.275 3.078.133 4.704.31 1.36-.415.848-2.705 2.192-3.137 1.537-.062 1.275 1.67 1.255 3.138 15.084-.874 32.99.39 47.092-.31-2.274-2.413-6.26-3.086-11.928-3.138-5.817-.062-11 .406-16.63.31-2.672-2.917-12.77.043-11.627-5.65 5.023.947 12.37 2.82 17.585.628.743-3.6.39-8.408-.307-12.237-1.496-.68-3.432-3.73-5.65-3.765-2.067-.035-5.218 3.775-8.49 3.766-1.9 0-4.886-1.846-6.904-2.51-1.837-.6-4.772-.645-5.02-4.075 7.02-4.677 19.752-2.59 25.756 2.82.848-3.068-2.442-5.73.31-6.905 3.138 1.485 1.474 5.56 2.508 7.85 1.734 3.865 6.48 3.176 9.1 6.59-3.67-.655-6.667-3.458-9.726-1.257.497 3.325.576 5.42.936 9.097 15.27-1.157 32.104-3.544 47.4-2.51.283-1.698.946-3.033 1.884-4.075.113-2.423-1.77-6.915.318-9.1 3.113.55 1.99 5.332 5.03 5.96-3.157 4.66 1.892 7.242 1.256 11.3-.345 2.14-3.296 3.413-1.882 6.903 4.625.116 10.28 1.266 16.63.62 5.516-.55 11.213-4.633 14.438-.31 3.562.204 5.482-1.21 8.162-1.884-.212-11.582-1.418-25.153 0-37.654.6-5.358 1.856-11.123-.94-15.376-9.495 1.272-7.028 17.046-4.083 22.59-5.58-3.748-5.102-18.275-.937-22.59 2.96-3.076 7.463-3.466 8.478 2.193.266 1.493-.3 3.28 0 4.712.61 2.97 1.61 10.645 1.256 13.802 1.32-2.008 1.39-6.658 1.256-9.1 3.546-1.775.99-9.663 4.384-11.608 1.532 3.147.383 6.985.31 10.673-1.334-.71 0-2.238-.616-3.768-2.91 13.51-3.875 31.378-1.265 43.933 1.732-.92.927-3.28.955-4.714.094-9.99.316-17.966.616-27.612.753 1.46-.177 2.68.31 4.396 2.53-4.598 1.48-12.76 4.714-16.632 4.98 3.2.67 13.563 2.202 19.452 6.19 5.428 7.63 15.596 10.353 24.48 2.714-.16 6.073-.848 7.852.63.636.504-.01 2.307.636 2.82 4.645.053 6.793-2.415 11.92-1.884 1.493-1.122 1.75-3.483 3.458-4.396 3.06-.23 4.074 1.574 5.65 2.83 2.358-.706 6.94-1.264 10.678-1.574 3.998-5.004 5.826-12.165 14.12-12.864.99.682 1.665 1.69 2.202 2.82 1.3-1.724.763-5.295 1.876-7.214 5.118 2.793-.69 12.006.636 16.948-.133 1.743-2.67 1.106-1.892 3.768 3.395.008 7.867.93 11.62.31 4.33-.708 8.5-4.713 12.86-2.82.866.944-.212 1.865-.307 2.82 7.286-.78 20.865 3.173 22.925-4.705.15-1.388-.434-1.564 0-2.51.496-.468 1.575.266 2.82 0 1.15 6.65 6.42 6.693 13.183 6.277.77-1.547-.38-2.926-.307-4.713.405-1.325 1.386-.14 1.873-1.256-.937-7.09-.655-15.32-1.256-21.962-3.854-1.6-7.134 1.557-10.044.938-1.104-2.387 2.3-3.19 1.576-5.332 2.482-2.06 5.94-.662 8.796-1.563 1.66-1.573.784-5.686 3.765-5.97.434 1.567-1.35 3.405-1.582 5.343 4.14.76 10.275-4.298 13.502.308 3.467-.378 7.815-3.014 9.426.63 3.907-.38 7.162-1.414 11.618-1.257.503 1.283.68 1.654 0 2.83 2.72-.158 4.694.955 4.385 2.502-.453 2.29-5.37 1.194-7.226 2.512 1.417 1.84 3.087 3.403 3.767 5.967.976.91 3.316.45 3.46 2.194-.37.884-1.47 1.042-2.512 1.256-.316 6.012-1.46 11.21-2.202 16.002 3.855 1.186 10.406-.9 13.81 1.257-3.95.67-9.707.777-13.48.627-2.266 1.83-3.23 4.95-7.234 5.02.078 1.752 1.68 2.008.955 3.768-2.477.938-5.023-.008-7.23.31-.734 1.592.448 3.076.635 4.714 5.242.346 9.417-3.573 13.182-6.28 3.19-2.288 6.313-4.35 9.736-5.648.75 2.89 2.695 4.58 4.693 6.905 3.246-1.583 7.94-1.71 10.373-4.085.202-2.494-1.547-3.06-1.895-5.014-1.686-.3-4.305.336-4.71-1.255 1.114-.47 2.784-.362 4.094-.628-1-3.953 2.085-6.295 2.512-9.107.29-1.997-.77-3.385-.32-5.64 5.72 3.11-.38 9.46.637 14.747 1.246-.636.09-3.677 1.557-4.085 5.428 1.442-1.3 7.993 1.575 10.672 4.33-1.266 9.93-2.148 15.702-3.14 2.28-.39 5.34-.37 6.586-.936 1.52-.698 1.6-2.475 2.82-2.83 1.396-.133 1.706.806 1.582 2.202 8.77-1.105 20.24-1.77 29.814-2.2 1.53-.072 2.713-1.93 5.332-2.193 3.562-.372 8.753.45 9.113 4.076-3.27.325-9.83-1.133-15.393-.938-9.92.336-19.564 1.29-29.193 2.82-1.567 5.463-.346 14.538 2.51 18.514 3.322-2.785 5.738-8.01 7.533-12.556.546-1.37.556-4.26 3.146-3.448.688 3.19-2.266 8.33-3.45 13.185-1.156 4.642-.846 8.595-5.027 9.725-1.975.54-4.546.107-6.28-.626 6.827-.232 9.23-3.572 10.053-10.355-2.9.256-2.343 7.373-5.65 7.525-2.633.123-4.472-5.758-5.02-8.47-1-4.723-.567-10.073-.327-13.496-7.88.93-15.713 2.502-22.6 4.396 2.326 5.845 7.435 8.877 11.61 12.866-7.004-1.565-9.517-7.64-14.12-11.612-.587 1.822-1.143 3.673-.938 6.28 1.512 1.723 5.004 1.477 5.956 3.767-2.686.07-4.286-.936-5.956-1.884-2.457 3.077.714 8.046-1.895 10.982 2.68 1.21 7.2-2.423 9.106 0-.307 2.936-4.276 2.21-6.275 3.447 5.525 1.415 15.376-.38 20.396-.31-.538-8.63-.346-19.088.636-26.358.566.036.654-.39 1.256-.317 1.822 1.266.54 3.352.31 5.332-.725 6.36-1.184 15.226.636 21.343 19.888-2.296 40.565-.256 55.243-7.22.028.81 1.22.448 1.256 1.255.064 2.37-2.66 1.936-2.827 4.084-5.305 1.892-8.294 6.127-12.865 8.787-.035 1.602 2.468.675 1.892 2.822-1.177 3.527-6.066-1.45-7.534 2.192 6.022-.045 13.617.37 19.144 3.138-.32 1.468 1.266 1.044.937 2.513-.39.14-.646.407-.62.945-6.374.39-13.817-.823-20.096-1.572-.57.572-.404 1.892-.945 2.508-14.978.34-29.46-2.474-43.624-1.252-2.51-.33-5.534-.216-9.105-.31-7.73-.213-17.797-.162-27.312 0-4.925.08-9.467 1.865-12.864-.63-16.26 4.014-32.386 8.93-50.546 9.416-11.027.29-22.706-1.493-34.526-1.882 9.353 3.03 17.485 6.118 28.557 6.896-1.625 2.113 4.98 1.848 2.512 1.256 3.315-1.024 6.994.726 10.043 1.256 15.004 2.617 25.73 1 41.448-.94 1.16-.138 2.44.083 3.768 0 7.664-.482 15.367-2.207 21.963-2.826 3.352-.31 6.992.167 10.997-.31 2.58-.31 5.428-2.025 8.15-2.202 6.078-.37 12.787-1.892 21.036-1.872 1.22 0 4.306-.055 5.97 0 7.654.21 24.037 1.122 25.116 8.15.752 4.995-3.757 6.612-7.858 5.02-1.886-.732-3.61-2.014-5.644-2.817-5.737-2.29-12.56-3.547-19.786-4.715 2.872-1.21 4.713.025 7.226.627 4.03.975 9.847 1.486 13.816 2.512 2.407.63 9.594 5.11 10.043.32.516-5.413-17.24-8.446-22.914-8.473-1.32-.008-5.827.286-7.226.312-7.486.148-13.234 1.132-19.47 2.512 5.34 1.05 11.522.123 17.904 1.562-3.624 1.187-9.628-.936-13.81-.626-12.412-1.715-24.474 7.27-38.31 8.477-7.71.675-16.886.896-23.534-.625-12.6-.867-27.932-1.67-42.388-3.768-1.71-1.892-3.467-.938-6.28-1.573-7.885-1.776-16.1-4.544-23.844-3.446-3.395-1-7.187-1.442-10.68-.946-.992-.16-1.76-.55-2.51-.94-5.467 1.47-10.787-1.56-16.952-1.56-9.832-.02-18.965 4.427-27.948 5.33 7.19-3.052 16.057-4.095 23.547-5.65-7.355-4.005-16.93.654-25.418.625-6.693-.015-14.864.354-22.602-.626-2.527-.32-3.836-.804-6.905-.626-5.93.336-11.103.563-16.02 1.572-4.668.946-8.37 3.626-12.864 5.334-6.885 2.606-16.735-3-24.492-3.14-6.266-.116-11.693.416-17.894 0 1.664 1.706 4.26 2.317 6.605 3.14 7.062 2.502 16.868 5.34 24.792 6.9 10.625 2.1 21.554 1.507 33.27.94-1.91 1.14-5.04 1.307-8.154 1.573-6.256.53-13.383-.052-18.84 0-1.167-.61-2.315-1.238-4.384-.947-6.333-1.793-12.565-2.458-19.15-4.394-10.524-3.095-18.02-7.508-31.398-7.533-4.597 0-10.186-.037-14.747.317-2.405.187-4.73 1.21-7.232 1.256-5.393.097-9.55 1.58-15.066.936-4.264 1.62-8.826.956-13.495 1.575-8.845 1.166-19.4 2.467-29.517 4.394zm240.456-13.182c.168-1.407-1.442-.832-1.876-.31.956-.23 1.15.316 1.876.31zm-2.82-.63c-4.085-.67-7.48.162-11.62 0 2.547 2.266 8.762 1.142 11.62 0zm57.76-20.396c.61-.133 1.363-.113 1.256-.936h-1.256v.936zm8.48 32.006c-1.01.072-1.325-.557-2.512-.31.054.902 2.38 1.354 2.512.31zm-6.586-.31c-.478-2.08-2.9-.592-4.403-1.257.778 1.276 3.536.94 4.403 1.257zm125.248-25.42c-2.132.22-4.295.452-5.023 1.256 1.902-.193 3.787-.39 5.023-1.256zm-16.957 6.906c.364-1.335-3.404-.503-2.2 0 .053-.523 1.318.33 2.2 0zM433.11 94.084v-1.572c-.85.193-2.493-.398-2.822.316.877.497 1.85.877 2.822 1.256zm-23.534-1.572c-2.522.3-5.36.29-6.59 1.882 2.882.064 4.82-.832 6.59-1.882zm-5.97 10.353c-.98 0-2.043-.743-2.82 0 .043 1.335 2.52.434 2.82 0zM385.4 62.075c.246-1.208-1.497-1.208-1.256 0h1.256zm-2.822-.626v-1.574c-.927-.265-1.546-.097-2.837 0 .38 1.088 1.592 1.344 2.838 1.573zm-8.787 9.1h1.257c-.187-.463.35-1.628-.33-1.575-.094.743-1.087.584-.926 1.575zm-5.348-1.257v-1.256c-.788.143-1.433.44-1.877.938.745 0 .92.54 1.877.318zm-7.206-41.112v-.627c-.266-.717-1.486.167-1.585.628h1.586zm-6.605 71.864c1.415-.01 2.13.787 2.84-.316-.922-.41-2.228-.39-2.84.316zm-3.13-34.21c.034-.884-.883-.786-1.262-1.256-.276.56-1.15.522-1.256 1.256.91.505 1.847.09 2.518 0zm-5.03-1.256c-1.02.302-2.88-1.21-3.13.32 1.23-1.167 2.687 1.998 3.13-.32zm-40.186 36.405c-1.088.256-1.192-.463-2.182-.31-.4 1.04 2.113.768 2.182.31zM301.9 84.35c-1.28-.024-2.477.045-2.512 1.257 1.567.31 2.123-.374 2.512-1.256zm-6.588-14.12c.25-.884-.44-.813-.326-1.566h-2.82c-.337 1.9 1.73 1.408 3.146 1.565zm.31 30.753c-.716-.216-2.034-.206-2.82.315.646.558 2.14.065 2.82-.315zm-1.893-3.45c-1.706-.23-3.784.54-5.022 1.255 1.387.088 4.677.594 5.02-1.256zm-8.152 1.255c1.363-.23 1.936.71 2.512-.316-.735-.753-2.404-1.503-2.512.316zm-3.458-31.07c.778.76 2.442.788 2.822 0-.69-.274-2.476-1.263-2.822 0zm-1.882 30.124c-.496 1.458 1.617 1.098 1.246 0h-1.246zm-1.256 3.14c.354.335 2.95 1.37 3.138 0-1.147-.432-1.837-.264-3.138 0zm-4.084-5.333c-.895 1.61 2.98 1 1.572.32-.053.36-.493.334-.936.31-.072-.354-.353-.488-.636-.63zm-24.172 1.882c7.965.363 15.77-.946 21.98-.937-1.15-1.565-5.528.08-7.223-.946-3.873.546-14.022.107-20.727.63 1.133 1.43 3.99 1.163 5.97 1.252zm15.702-24.164c1.095-.44 2.005.886 2.512 0-.33-.326-2.237-.645-2.512 0zm-.636-.627c-.772.046-1.505.056-1.876-.31-.158 1.036 1.803 1.32 1.876.31zM255.13 90c.793-.168 3.2-1.61 1.872-1.882-.07 1.184-1.607.902-1.873 1.882zm-17.59-4.077c.93-.75 2.99-.352 3.142-1.883-1.477.197-2.59.753-3.14 1.883zM227.19 73.06c.09-.74 1.478-.186 1.256-1.255-.37-.363-1.113-.354-1.883-.32-.043.78-.07 1.523.628 1.576zM216.518 99.1c-1.6.054-3.5-.69-4.396.63 1.505.034 4.377-.207 4.397-.63zm-6.906 1.256c.08-.715-.088-1.177-.64-1.256-.06.47-.748.29-1.252.32-.018.954 1.106.777 1.892.936zm-2.84-6.586c.398.36 2.477.626 2.84 0-.407-.365-2.486-.63-2.84 0zm-4.074 4.074c-.646.196-2.177-.503-1.883.63.83 0 1.848.176 1.883-.63zm-1.576-17.885c-2.748-.72-6.266.39-8.468 1.256 2.406.177 6.744.725 8.468-1.256zm-22.907-11.293c1.113-.273 1.61.807 1.876-.316-.502-.534-1.61-.284-1.875.316zm0 26.05c-1.892-.01-3.872-.1-5.34.31.458.98 5.33 1.217 5.34-.31zm-3.148-5.65c.39-1.08 2.14-.808 2.512-1.886-.913.355-3.36.807-2.513 1.886zm-3.448 8.162h-2.83c-.033 1.236 2.716.606 2.83 0zm-3.14-28.562c1.415.266 1.956-.344 2.193-1.256-1 .15-1.9.39-2.193 1.256zm-5.022 31.38c2.122.028 4.447-1.396 4.077-2.818-1.325.97-3.245 1.34-4.077 2.818zm-2.2-27.612c1.796-.31 3.677-.513 4.393-1.882-2.05.044-3.853.325-4.393 1.882zm.317 3.138c-2.697-.115-5.278.318-7.214 1.885 2.617.794 5.483-.753 7.215-1.885zm-6.904-1.256c-1.714-.14-4.446.354-3.767 1.564 1.07-.704 3.157-.398 3.768-1.564zm-13.49-8.788c.132-.603.66-.788.626-1.573h-2.21c-.017 1.068.938 1.175 1.584 1.573zM127.985 96.28c-1.556-.084-4.748-.906-5.34 1.252 2.272.073 3.582-.803 5.34-1.253zm-5.65-5.024c.976.148 1.4-.274 1.257-1.256-.794.044-1.22.46-1.256 1.256zM89.06 94.714c-.577-.418-2.665-.336-2.823.626 1.05-.098 2.138-.158 2.822-.626zm-47.712 5.64c-.645-.6-2.068-.212-2.51.32.308.27 1.972.132 2.51-.32z"/></g></svg>