<svg xmlns="http://www.w3.org/2000/svg" width="505" height="137"><g fill="#FED100"><path d="M504.992 113.23c-.563-.283-.81-.89-1.914-.638.336-.907.336-1.33 0-2.232.715.876 2.03 1.158 1.914 2.87zM452.932 119.932c-.307-2.296-3.327-.228-3.194-2.56 2.622 1.614 5.658.052 8.626.963.222-.98.222-.61 0-1.592.955.196 3.337-.616 3.834-1.913 3.097.606 8.616 1.32 10.533-2.553 1.446.246 4.027-.617 4.477.616.354-1.544 1.607-2.205 3.83-1.897 1.775 3.593 4.506-.212 7.665 0-.167.256-.345.52-.315.955 1.315-.176 2.046-.926 2.878-1.59.626.645 2.33.22 2.55 1.27.3-.227.487-.572.636-.95.655.078.63.862 1.282.95.503-.556 1.468-.66 1.597-1.597 1.315.67 2.34.582 3.833.326-.256 1.093.602 1.343 0 1.916-1.793-.143-3.54.952-5.11.315-1.68 2.042-3.845 1.84-6.385 2.238-5.12.784-10.748 3.608-17.265 3.82-.65.143-.83-.212-1.262-.315-1.06.123-1.597.75-2.242 1.28-5.74-1.553-11.348 1.704-15.966.32zM458.037 128.878c.124-1.05 2.746-.848 2.56.316-1.032.073-1.352-.563-2.56-.316zM451.334 128.878c.152.996-.28 1.42-1.28 1.28-.15-1.01.284-1.438 1.28-1.28zM443.024 128.878c1.725-.582 3.056 1.05 4.48.316-.868 1.537-2.83 1.262-4.48.636v-.952zM441.11 130.794c-1.192.23-2.764-.62-4.47 0-.06-2.438 3.208-.17 3.19-1.28.813.044 1.246.467 1.28 1.28zM436.325 130.158c-.09 1.288-1.44-.25-1.927.952-1.553-.828-1.784-1.015-4.15-.952.133-2.474 2.622-1.733 4.48-1.28.13.66-.223.848-.33 1.28.92.44 1.626-.876 1.927 0zM428.65 131.11c-1.103.494-2.903.282-4.466.316-.1-.74-.63-1.312 0-1.913.212.838 2.913 1.746 2.878 0 .503.563 1.465.662 1.59 1.597zM421.622 130.158c-.547 1.746-2.604.104-4.15.952-.133-.777.582-.698.32-1.597 1.464.29 1.81-.532 2.878-.636-.434 1.007-.098 1.095.952 1.28zM410.443 118.335c1.14-.494.196 1.085.962.96-.503 1.017-1.914-.395-.962-.96zM404.38 127.916c.642-.602 1.48.396 1.597 1.278-.78-.177-1.642-.272-1.597-1.278zM401.5 116.743c1.022-.085 1.165 1.396.643 1.907-.848-.133-1.075-1.198-1.277.33-.557-.292-1.113-.592-.955-1.607.66.105 1.907.917 1.59-.63zM397.993 127.916c1.3-.152 2.015 1.332 1.59 1.914-.733-.434-1.773-.563-1.59-1.914zM395.434 120.577c1.076-.326 2.49.572 4.15-.326-.37 1.23-1.74 1.456-3.505 1.28-.286-.257-.197-.874-.646-.953zM392.235 118.65c.98-.73 2.218.39 2.243 1.6-.784-.485-2.366-.186-2.243-1.6zM393.836 128.878c-.506.016-1.22-.158-1.27.316-1.025-.44-1.47-1.81-.966-2.87 1.183.405 1.528 1.66 2.236 2.554zM390.003 124.408c.96-.326.557.7.645 1.27h-1.28c.132-.49 1.005-.27.635-1.27zM390.964 120.894c-.873-.168-1.657 1.68-3.194.636.784-.493.66-1.89 1.28-2.55 1.086.183.997 1.553 1.914 1.914zM389.05 122.494c1.193.256.168 2.047-1.28 1.588-.416-1.37.907-1.006 1.28-1.588zM386.488 125.363c-.46-.39-.484-1.218-.952-1.598-.168-1.65 1.154-1.818.952-3.515 1.174 1.678.29 3.965 0 5.113zM384.255 125.68c-1.13-.148-1.75-.804-2.553-1.27.37-.805 1.27-1.067 1.27-2.234.76.408.744 1.598 1.918 1.59-.176.67-.784.908-.635 1.914zM380.42 125.68c.046 1.537-2.203.778-3.193 1.28.28-1.024-.487-.996-.952-1.28-.133-.76 1.455.177.952-.962.96.424 1.74 1.04 3.194.962zM376.59 122.175c1.44.123-.353 1.493.637 1.907-.035.6-1.05.23-.952.962-.38-.883-.375-2.11.316-2.87zM371.795 126.325c.123-.548-.247-.61-.636-.646.344-.54-.105-2.34.318-.963.927-.857 2.578-.36 3.515-.31-1.08.645-.222.645 0 1.6-1.123-.97-1.458.91-3.198.318zM367.645 127.597c-1.95.02-.927-1.81-3.514-1.588-.228-.878.637-.647.637-1.292 1.093.838 2.704 1.138 2.878 2.88zM362.853 124.408c-.373 1.113-1.724 1.246-2.553 1.917-.804-.522.566-1.538.636-2.243.758 0 .946.557 1.917.326zM326.447 120.25c-.29.776-1.29.85-2.243.953-.708-.784-.838-2.13-.955-3.505 1.217.08 1.413.952.954 1.917 1.016-.91 1.376-.16 2.243.636zM319.734 35.642c-1.277-.104-1.774.566-3.194.32-.813-.78.67-.69.316-1.918.565.187 1.872-.38 1.917.318 1.068-1.175 2.967-2.102 2.232-4.15 1.38.424 2.958.672 3.198 2.234.696-.363 2.065-.063 2.243-.955 1.262 1.972 3.75-1.102 4.15 1.592.113-1.254.724-2.27.95-4.14.612.034.223 1.05.963.95 2.163-2.772 5.89-6.065 9.9-7.98-.187-1.148.37-1.547.642-2.235 1.986-.25 3.214-1.104 4.776-.954 2.686.247 3.02 2.78 5.44 3.188.443 2.2.275 3.876-1.28 4.795-5.422-1.166-8.352 2.058-9.897 5.74-.95.458-1.94-1.124-1.916.325-.652-.097-.627-.865-1.278-.962-1.493 2.02-6.43.592-7.35 3.195-.536.116-.6-.256-.635-.644-.58.52.223 1.015-.635 1.598-.892-.715-1.534-1.66-3.514-1.27.08-.938-.6-1.105-.96-1.608-1.326 1.597-2.58-.266-3.832-.636-.547.886-2.4 1.7-2.234 3.198zM316.54 34.044c-.962.478-1.97.917-2.233-.636.592-.044 1.065-.212 1.277-.636.462.267 1.01.478.956 1.272zM310.792 128.878c-1.148-.354-5.75.335-4.15-3.198.987-.148 1.14.797.627 1.28 3.405.962 3.617-1.537 6.392-1.597v.962c3.382-1.968 5.058-.124 8.626 0 .66-.1.636-.857.962-1.28 4.938-.476 10.04.44 14.377-1.915 1.19-.654 4.077 1.19 5.747 1.278 1.696.088 3.4-.706 5.112-.643 2.33.08 4.91 1.483 7.02 0 .054.987-.75 1.81 0 2.56.882-.31 1.34-1.006 1.597-1.917 1.828.9 2.325 2.296 3.515 3.188-4.97.645-15.655-1.483-21.076 1.28-2.56-.32-3.594.883-6.074.637-3.54-4.23-8.99-1.898-13.412-1.272-.794-.707-1.562-1.43-2.553-1.915-1.2 1.59-3.53 2.287-5.757 1.27-.426.32-.638.86-.954 1.283zM305.04 127.28c-.552.414-1.26.65-1.276 1.598-.788.044-1.537.044-1.917-.32.29-.68.945-.97 1.917-.96-.53-.637.025-.406 0-1.272-.1-.434-.797-.272-1.28-.316.325-.753 1.103-1.035 2.242-.965-.618 1.147.123 1.176.315 2.235zM301.21 127.597c-.838.088-1.597.107-1.28-.952-.636.218-.848.848-.962 1.597-.784-.054-1.547-.062-1.588.637-1.148-1.425 2.312-1.776.952-3.516h.962c-.44 1.42 1.236 1.05.955 0 .483.572 1.147.97.96 2.233zM297.38 125.363c-.55 1.06-1.29 1.917-1.6 3.194-2.49-.166-.425-4.677 1.6-3.194zM293.22 125.044c-.053.9-.58 1.335-.635 2.236-.61-.557-1.97-.373-1.917-1.6 1.297.23 1.094-1.022 2.553-.636zM284.6 126.645c-.122-1.77.453-2.325-.325-3.198 1.74.503 3.904.576 5.432 1.27.06 1.336-1.562.997-1.27 2.563-1.407-.522-2.59.864-3.836-.635zM277.572 126.325c.098-1.184 1.354-1.202 1.917-1.917-.416-.76.043-.6-.317-1.598 2.25.812 4.28-1.287 4.466 2.87-1.944-.68-4.01 1.483-6.068.645zM275.013 123.13c.503 2.18-.29 3.806-1.917 4.15 1.247-2.085.257-3.834-2.87-3.198 1.203-1.43 3.57.212 4.787-.952zM269.266 123.766c.96.007.927 2.27-.32 1.914.134.708 1.75.31 1.598-.316.655.67-1.252 1.5-2.233 1.598.29-1.59-.16-2.21.956-3.196zM267.032 125.044c.45 1.423-1.468 1.714-1.28.32.57.043.68-.39 1.28-.32zM261.28 127.916c.4-1.22 1.308.05 2.237-.636-.25.75-1.546 1.287-2.236.636zM259.048 117.062c1.458.143 1.35 1.158.32 1.588-.7.054-.152-1.12-.32-1.588z"/><path d="M267.032 118.335c1.5.39.52 1.35.626 2.868.76-.52 1.65-.907 2.252-1.588-1.29-.363.52-2.862-1.6-2.872-.044.92-1.367.557-1.278 1.592zm-9.265 6.073c-.104-.75-.325-1.376-.96-1.598-.786 1.218-.15 3.312-2.87 3.198-.9-4.303-5.2-1.222-7.99-3.198 2.286-1.933 6.807.566 7.67-2.56.99-.028.945.962.955 1.924 1.03-.143 1.73-.617 2.878-.646.494-.46.67-1.243.637-2.233 1.05.23 1.872.68 1.597 2.233 1.414-.503 2.948-1.844 2.233-3.515.804.063 1-.483 1.28-.952.874-.236.647.637 1.282.637 1.394-1.818 2.523-1.252 4.785-1.59.68-.706 1.015-1.757 2.233-1.915 1.006.158 1.404.937 2.553.952-.167.99-.373 1.962-1.59 1.917 2.314.213.195 2.95 1.28 4.468 1.607-.104.74-2.667.952-4.156.664.705 1.034-.028 1.6-.31.185-1.04-.22-1.484-.318-2.233 2.065.995 3.49-.973 4.786.314 1.27-1.57 2.277-2.13 4.795-1.916.44.407.316 1.39.316 2.227-.28.256-.714.354-1.27.316.76 2.243 3.647-.21 3.834-1.578 1.537 1.263 2.135-.39 3.83-.645.813.398-.572 2.64.637 1.597 1 .715-.626 1.468-.636 2.228 3.277.493.734-5.988 6.067-4.78-.088 1.187.823 1.917.317 3.515.478.674.9-.35 1.28.636.85-.828 1.124-1.992.956-2.885.997-.275 1.58-.97 2.56-1.266.743.424.496 1.848.955 2.553 1.818-2.577 5.925-2.647 7.67 0 2.79-3.92 7.34-.395 10.863.627-.6.585.257.822 0 1.926-.397.143-.663.415-.645.952-.74-.104-1.315-.38-1.917-.636-.705.045-.133 1.36-.316 1.917-4.74-.2-6.393.4-10.543-.315v-1.28c-1.257 2.232-3.736 1.897-6.067.645-4.714 1.544-13.994.83-19.806.636-1.075.37-1.35 1.914-2.878.962.423-.52.698-2.818-.317-2.88-1.582.45.503 2.554-.32 3.196-3.45.398-9.71 1.37-13.728 1.917-1.034.07-.788-1.138-1.28-1.606-.956.972-1.785 2.057-3.2 2.562-1.128.174-.783-1.132-1.913-.955-1.378-.104-.786 1.765-2.235 1.598zm48.555-7.98c-.74-.7-1.784.088-1.597 1.27.882-.07.902-1.014 1.597-1.27zm-15.654 1.907v-1.272c-1.642-.415-1.483 1.563 0 1.272zM255.534 126.96c1.192-.335 1.015.67 1.597.956-.482.687-.783-.222-1.596.325v-1.28zM244.03 122.81c.696.54 1.157 3.154-.32 3.2.548-1.1-.352-1.988.32-3.2zM242.114 125.044c-.592.31-1.07-.962-1.27 0-.884.133-.302-1.2-.963-1.278.22-.636.856-.848 1.6-.955-1.856 1.158.863.848.634 2.234zM240.197 120.894c.963-.326.566.71.646 1.28h-.962c-.132-.67.22-.857.317-1.28zM238.28 124.408c-1.182-.257-.378-2.287.965-1.914.167 1.13-.523 1.386-.964 1.914zM227.42 124.082c1.572.37 1.89 2.14 3.832 1.28-.317 2.782-3.938.336-3.832-1.28zM226.14 123.446c.053.794-.494.99-.635 1.598-.513-.937-.786-.36-1.916-.326-.24-1.085 1.296-.398.96-1.588.742-.098 1.23.044 1.59.316zM221.355 121.53c-.602.787-1.112 1.644-1.916 2.235-.796-.478-1.46-1.098-1.6-2.236 1.555-.662 2.172-1.21 3.515 0zM215.925 125.363c-1.123.054-1.008-1.123-1.6-1.598.68-1.192.83-1.68.964-2.872.51-.09.546.3.95.31-.943 1.475-.05 2.958-.315 4.16zM214.326 121.203c-.406.84-.697.972-.317 1.927-.98-.187-.77-1.572-1.282-2.236.758-.785.6.477 1.598.31zM206.343 117.698c-.468-1.34-.054-1.173 1.272-.955-.274.462-.478 1.01-1.272.955zM206.98 120.577c.38.946.37 2.746-1.28 2.553-.266-1.76.802-2.183.644-3.834.875.158 2.35-1.262 3.833-.316-.388 1.21-.46 2.736-1.916 2.86.248-.272.346-.706.317-1.263-.98.212-.617.212-1.598 0zM202.51 122.175c1.36-.1.32 1.695.32 2.233-1.13.557-1.643-1.076-1.918-.326-.98-.31.363-.848.32-1.27.345.89 1.536.742 1.28-.637zM196.12 121.203c.37 1.44-1.28.857-1.916 1.29v-1.29c.935.3.98.3 1.917 0zM192.606 126.645c-.424.952-1.537 1.228-2.553 1.597-.697-.68.158-.917 0-1.916 1.025-.07 1.35.565 2.553.32zM181.427 124.408c1.438-.035-.143.965.316 1.917-1.05-.187-.458-1.218-.316-1.917zM169.294 125.044c-.468.945-1.29-.38-.963-1.278 1.255-.522.117 1.385.964 1.278zM164.817 127.28c-2.1.212-3.752-1.458-3.195-2.872.936-.08 1.104.59 1.598.955 1.006-.222.414-.857.318-1.598 1.218 1.042.758 1.782 1.28 3.515zM149.462 118.344c.035-.054.035-.054.025-.01-.007 0-.015.01-.025.01zM98.383 36.923c-3.233-.266-6.402 2.27-7.03-.96 2.648-1.52 4.98-2.855 8.3-2.88 4.018-.018 7.32-.583 10.86-2.87 1.996-1.29 4.83-2.86 8.31-2.235.82.566 1.376 1.387 2.233 1.917 2.03-1.272.734-3.372 1.598-4.786 1.952 3.858-.343 7.752-.316 11.496-1.723-1.262-3.347-2.622-5.113-3.832-1.095-.15-3.01 2.57-3.197.31-.557 3.23-4.96 3.25-8.616 4.158-2.085.513-2.942 1.308-5.432.636-.724-.205-.9-.9-1.597-.955zM121.057 119.615c-.732.972-3.275 4.37-4.15 1.278-1.208-.46-.617.876-1.598.636.078-1.14-.962-1.165-.962-2.234 1.058-.016 1.597-.547 2.877-.316v1.598c1.096-.168.485-1.537.318-2.242 3.24-1.13 6.075-.346 8.626 1.597.423-2.612 6.295-1.784 6.384.646 1.254-1.538 3.655-1.45 5.757-.963-.105.75-.327 1.376-.962 1.588-.044 1.016 1.784.143 1.28 1.607 1.687-.123.045-3.574 1.918-3.515-.424 1.325-.884 2.376.316 3.198 1.015-.442 1.572-1.705.963-2.88 1.314-.546 1.704 1.447.954 1.915.255 1.123 1.862.91 2.232 1.917 1.3-.513.513-3.106 2.233-3.195-.228.978.327 1.164.327 1.924 1.413-.484-.24-1.66 0-2.88.646-.31 1.245-.645 1.89-.944-.123.212-.786 1.97-.29 3.488.9.275.82-.442 1.587-.31-2.668 1.96-5.616 4.07-10.534 2.88-.37-.38-.36-1.13-.326-1.915-2.445 3.44-8.406 1.825-11.18 0-2.523.174-3.16 1.066-6.382.636-.744-.477.626-1.015-.636-.954-.063-.804.715-.778.952-1.28-.256-.708-1.112-.812-1.597-1.28zM112.756 120.25c.044.805-.503.998-.644 1.59-.407-.434-1.51-.188-1.916-.637-.036-.565.396-.66.316-1.27.637.777 1.53-.53 2.244.318zM85.287 129.514c-1.2-.883-.23-2.553 0-3.834 2.923.16 5.245-.29 5.43-2.87 5.05 3.79 12.15-3.15 17.245 0 .723-.227 1.634-.28 2.235-.635 4.333.77 6.992 3.214 10.542 4.786-.125 1.794 3.082 2.307 1.28 3.834-3.92-5.203-10.57-5.254-18.207-5.75-.432.212-.6.68-.644 1.28-1.087-.68-2.324.77-2.235-.96-1.254.236-1.095 1.878-2.55 1.916-.188-1.483-2.58-.434-2.236.636-2.04-2.024-4.53.36-6.076 1.598-2.12-.832-2.79-.883-4.787 0zM71.23 131.737c1.386.496 1.394 1.123 2.87.97-.724.55-1.87.682-3.187.637-.107-.74.052-1.228.316-1.607zM69.314 133.99c-1.29-1.342-1.775.23-2.88-1.282-.386-1.04 1.034-.246.645-1.28.575 1.61 1.694.688 3.187 1.28.063.794-.485 1-.953 1.28zM65.164 132.708c.805-1.36-1.166-.952-1.916-1.598-.266-.9.45-.828.316-1.597.77-.133.69.582 1.6.316-.042 1.404 1.88 2.11 0 2.878zM61.65 130.794c-1.97.254-5.13-1.06-5.43-3.514 1.04 1.4 2.613 1.78 4.468.96.476.372.38 1.327 1.28 1.273.044.425-1.297.962-.317 1.28z"/><path d="M460.597 65.338c1.006.468 1.537-1.838.32-1.6-.267.373-.425.857-.32 1.6zm-.637 34.48c1.39.44 4.86.467 4.47-1.915-.61.08-.708-.354-1.28-.32-.01 2.51-3.26-.186-3.19 2.234zm7.02-5.103c1.112-.257 1.227.468 2.242.31.082-1.36-.927-1.616-1.598-2.227-.265.592-.537 1.157-.645 1.917zm7.994 3.514c2.002.015 2.735 1.296 4.466 1.587.778-.396 1.034-1.307 1.28-2.233-1.72-.09-2.384-1.237-3.197-2.233-.06.48-.766.292-1.277.317-.42.848-.858 1.69-1.272 2.562zm-23.64 1.916c.883-.187 1.794-.345 1.598-1.6-.43-.105-.607-.46-1.287-.316.237.97-.548.935-.31 1.916zm5.748-2.243c2.32 0 .3 1.05.32 2.242h1.916c.158-1.227-1.113-1.024-.636-2.562-.752-.098-1.378-.68-1.6.32zm-8.307 0c-1.414 2.214.212 2.445 1.914 2.242-.697-1.053-.76-1.078-.953-2.242h-.962zm.642 8.943c.038-1.34 1.237-1.528 1.272-2.88-1.23.647-1.254.523-2.234-.315-.193.76-1.386.53-.952 1.918 1.518-.463 1.227.898 1.913 1.278zm-17.252 0c2.04.09 3.356.91 4.16 2.236 2.568.228 2.647-2.034 4.785-2.236.38.478.272 1.424 1.278 1.28.61-1.518 2.72-1.543 3.198-3.194-2.34-1.818-4.875-1.098-7.03.952-1.684-2.518-4.385-.405-6.39.962zm.646-1.28c.055-.372.504-.353.953-.318.15-1.006-.396-1.307-.952-1.598-.255.222-.714 1.776 0 1.917zm3.515-11.17c-.133-1.19 1.287-.84.952-2.25-1.58-.21-1.705-.25-2.88.336.124 1.154.76 1.784 1.928 1.914zm5.102-5.113c-.44-4.12-2.49-7.25-.636-11.814-2.868.21-.482-4.83-2.232-5.758-1.73 7.516.522 12.406-.645 18.207.575-.035.75.318.645.96 1.247-.024.83-1.72 1.598-2.232.468.167.803.468 1.27.635zM426.1 107.8c.265-.91 1.254-1.087 1.915-1.59-.77-.3-1.192-.937-1.597-1.598-.75 2.395-4.707-.37-5.112 2.233 1.993.867 2.797-.344 4.793.956zm.633-8.31c-.315-1.286.972-2.217-.635-2.223.053.892-.272 2.18.635 2.224zm.965 9.273c1.263.7 1.607.36 2.55 1.27-.07-1.033.566-1.36.32-2.552-1.528-.138-2.73.03-2.87 1.283zm3.196-20.116c-1.66.285-2.48 4.01-.326 4.47.38-.478.396-1.307.962-1.6.617.132.247 1.236 1.28.964-.117-1.81-1.3-2.533-1.916-3.833zm-.327-16.608c-.787.82-.955 3.098.326 3.515-.07-.886 1.14-3.286-.326-3.516zm0 4.477c.07 1.104-.107 2.455.962 2.553.21-1.39-.36-1.98-.963-2.553zM416.52 65.655c-.274 1.228-.133 2.015.952 2.553-.034-1.13.23-2.57-.952-2.553zm2.55 41.51c.6.07.708-.37 1.28-.32-.45-.73.822-1.207 0-1.277-.07.247-.272.37-.646.316-.034-.39-.09-.75-.636-.636-.147 1.123-.38 1.05 0 1.917zm.635-28.096c.937.66 1.212 1.985 1.6 3.194-.653.828-1.59 1.385-1.6 2.868.61.073.71-.36 1.28-.315.833 2.594.593 4.73-.315 7.33.942.758 1.52 3.257 3.515 1.912.104-4.122-2.36-7.637.952-10.524-3.08-2.43.778-8.646-1.27-11.824-1.74-.538-3.18.485-4.797.963-.81-.335-1.395-1.95-2.55-.963.035 1.148 1.05 1.3 2.233 1.29.946 2.136 1.598 3.603.952 6.067zm2.243-14.687c-.09 1.36 1.28 1.27 1.59 2.234.194-.672.68-1.032.953-1.6-.66-.403-1.622-1.463-2.542-.634zm-.642 30.64c-.52.504-.133 1.49.316 1.925.143-.607.69-.804.646-1.598-.41-.02-.444-.408-.962-.326zm-10.863-.308h-.952c-.097.74-.68 1.376.317 1.588.33-.424.32-1.174.636-1.588zm2.244 13.412c.503-1.633 2.385-1.873 1.916-4.477-1.173.212-2.518.257-3.197.962.363 1.554-.254 2.755 1.28 3.515zm2.868-17.58c.734-6.568-.167-11.945 0-17.872-1.145.194-.933-.97-1.913-.963-.08.46-.7.37-.955.653.23 5.265 2.198 10.323-.326 14.05.435.76.647.192.963.635-1.04 3.594 1.36 3.708 1.28 7.01 1.67-.167.848 2.14 2.233 2.243.364-.592 1.237-.67 1.598-1.278-.696.05-.148-1.123-.316-1.6-.192-.538-1.52.037-1.598-.627.326-.424.308-1.184.636-1.598-.196-.556-1.518.026-1.6-.654zm-13.092 21.404c.986.026 1.527-.39 2.232-.635-.28-.883-.838-1.503-1.597-1.917-.31.75-.556 1.573-.635 2.553zm5.11-21.404c.16-3.796 1.254-7.98-.635-10.524-.946 3.16-1.464 8.28.636 10.524zm.637-11.16c.07-.247.01-.626.316-.636.073-2.297-2.056-4.378-1.27-5.432-.936-.555-1.935-1.05-3.197-1.28-.035.39-.1.76-.637.637.68 2.438.045 2.826.31 6.075.513.025 1.11-.044.962.636 1.184-.646 1.91.22 3.515 0zm-12.13 19.48c-.108-.75.043-1.23.315-1.6-.65-.926-2.12-.654-2.88 0-.227.98.327 1.165.32 1.914 1.042.188 1.49-.217 2.244-.315zm3.504-11.19c1.006.938.177 2.667.646 3.524.034-.784 1.05-.07.952.316.705 5.052 4.55 1.167 6.71.965v-1.6c-2.41 1.45-3.54-1.19-6.39 0-1.85-2.012 1.02-4.748-1.272-6.71-.93 1.44 1.172 2.605-.646 3.507zm-2.233 19.49c1.343.06 1.343-1.212 2.56-1.282.07.61-.36.7-.325 1.28.857 0 1.828.124 2.243-.318.07-1.677-1.025-2.17-2.243-2.55.113 2.037-2.342.395-2.234 2.87zm1.28-29.388c.027-1.13 1.19-1.14 1.28-2.224-1.316-.284-.266-2.934-2.243-2.553-.9 1.24-1.095 4.69.962 4.778zm-.318 18.2c.996.157.838-.85 1.598-.953 0-.743-.557-.937-.326-1.907-.592-.256-1.174-.53-1.917-.636-.636 1.774-1.218 5.49.646 6.063.784-.784-.24-1.385 0-2.568zm-8.31-26.182V67.89c-1.483-1.58-2.385-.126-4.785-.318-.114.732-.212 1.5-1.28 1.262-.238.998.875.627.635 1.616 2.138-.548 3.302-.54 5.43-.654zm.32 32.574c1.198.142 2.416.07 3.514.96 1.05-.438 2.154-.827 2.56-1.912-1.414.873-.893-1.228-2.243-1.272-.77.396-.724 1.598-1.917 1.588-.34-.29-.104-1.173-.96-.952-.363.468-.92.775-.954 1.588zm-16.61 1.597c.76.01.946-.547 1.917-.316-.178-.9-2.14-1.67-2.554-1.28.478.275.46 1.034.636 1.597zm.326 6.713c.892.044.92-.788.955-1.598-.636 0-.408-.886-1.28-.636-.15 1.006.58 1.12.325 2.234zm3.508-7.35c1.13.956 1.854.542 3.194 0-.054.798.494 1 .962 1.282.345-1.65.804.01 1.598-.646v-1.913c-1.006.158-.845-.857-1.598-.956-.38.69-.696 1.44-1.598 1.598.02-.82.538-3.9-.96-4.15.19 1.37-1.045 1.3-.957 2.553.46.706.778-.404.956.32-.47.74-.67.59-.32 1.597-.794-.054-.996-.61-1.277.316zm-9.266 2.88c.418.434 1.513.434 1.917 0-.07-.582.32-1.607-.636-1.278.312 1.155-1.428.262-1.28 1.278zm7.03-38.32c-1.52 1.26-4.53-.24-3.83 3.822 1.597.335 1.12-1.422 2.232-1.59.566.293 1.113.602.962 1.59 2.198.08 3.71-2.685.636-3.823zm-5.748 32.256c.035 2.164-2.135 2.12-4.15 2.225-.616 1.29-.22 3.09.956 3.515.774-1.094 1.065-1.44 2.878-.952-.205-1.65.652-.478 1.598-.636.696-1.502-2.34-2.385 0-2.562-.07-.883-1.017-.91-1.282-1.59zm-1.917.952c-1.14-.404-.838-1.04-.636-2.232-1.007.354-.726.024-1.914 0 .212 1.164 1.578 1.192.315 2.232.47.168.805.47 1.282.636.035-.39.09-.75.636-.636 0 .177.257.364.317 0zm0-34.48c.133 1.087.867.406.32 1.59 1.907-.247.483 1.958.315 2.56.206.44 1.237.044 1.28.626-.635.44-1.207 1.91-.635 2.56 2.262-1.446 1.72-5.332 1.59-7.663-1.033.734-1.97-.414-2.87.328zm-.317 8.617c-.335 2.322.82 5.317-.96 6.067.157-.063-1.38-1.724-.637 0-.24 1.192 1.22.69 1.278 1.598-1.19 4.494.725 6.234.32 10.843 2.277 1.44 5.747-.478 8.3 0 2.746.522 2.55 2.553 4.476 3.84-1.306-2.296.715-4.73 3.515-4.16.926.63.265 1.627.635 2.244 2.888.373 3.426-1.79 6.71-.952.21-1.695 2.286-1.547 3.187-2.568.857-5.077 1.202-11.04.646-18.192-1.863-1.023-5.317-1.447-6.712.31-1.658-1.81-4.786-.6-6.384.336-.35 1.855.24 3.392-.646 5.106-1.5-.945-1.632.74-2.55 1.278-.626-1.2-1.907-3.417-.96-5.112.38.478.803.9 1.276 1.27.196.577-.936 1.336 0 1.608.415-.83.665-1.016 1.598-.646.187-1.192.038-1.174.636-2.233-2.78-2.374-6.472-1.138-10.54-2.552-.187.566.943 1.325 0 1.6-.875-.714-2.315.046-3.188.317zm-4.475-11.814c-.576 1.554 2.392 1.21 1.914 0-.927.283-.978.283-1.914 0zm2.558-8.935c-1.19-1.65-1.808-3.83-1.596-6.073-.75.008-.946-.55-1.917-.32.6 2.658-1.297 4.506.32 5.433-.257.705-1.504.414-1.602 1.28.557 1.147 2.43.98 3.198 1.914-.018-.724.3-3.038 1.598-2.235zm0 11.17c-.51 1.483 1.652 1.113 1.282 0h-1.28zm-8.944 37.676c.797-.378 2.006-.334 1.6-1.912-2.27.38-3.478.458-5.43.315-.237.873.636.637.636 1.28 1.493-.157 2.232-.535 3.194.318zm.955-32.88c1.795 1.853 4.187.026 5.433 1.59 1.534-1.29 2.543-5.51.962-6.385-.1.97-.99 1.14-.636 2.553-1.08-1.386-1.37.688-2.88.626.148-.98-.68-1.016-1.598-.944-.072.61.352.706.316 1.28-.44-.018-.695.15-.952.317-.38-.476-.275-1.42-1.28-1.28-1.007-.15-.84.866-1.607.96.27 1 .944 1.627 1.605 2.227.158-.37.345-.715.636-.945zm.646-15.33c.035.91-.177 2.096.316 2.554 1.503.01 3.258.282 3.198-1.28-3.287-.274-3.012-6.63-2.562-8.617-1.923-1.07-.537-1.572-1.598-3.515.61.14.804.688 1.598.645-1.41-2.694.168-6.834-2.553-9.264-.192 5.873-.537 12.01-1.914 18.508.953 1.184 1.2 1.635 1.915 2.57 1.222.15 1-1.13 1.6-1.6zm.953 45.026c.132.725-1.342 2.983-.317 4.786 1.022-.68 2.047-1.36 2.88-2.236-1.18-.326-1.75-2.93-2.564-2.55zm-6.7-8c.995.158.897-.788 1.268-1.266-.592-.253-1.164-.538-1.914-.636-.153 1 .98.72.645 1.902zm.632-10.208c-.6 4.018 1.59 7.398.636 11.805 2.34 2.376 7.312.873 10.862 1.607-.196.3-.743 1.164.316.952.566-.37-.66-2.806 1.28-2.56.063-1.246-1.43-2.438 0-3.197-1.448-.766-.828-3.63-2.232-4.457.537-.133 1.07-1.892.316-2.233.23.52-.636 1.395-.636.642.965-2.755.787-7.373 0-10.543-1.588.848-3.002.753-4.793 0-.44.734-.724 1.617-2.235 1.28-.025-.872.53-.645 0-1.28-.38.054-.907-.05-.962.31.37.07.354.522.326.972-.37-.266-.855-.424-1.6-.316-.723 1.702-1.65 4.106-.644 5.738-.37.794-1.322-.77-1.27.646.003.423.556.29.636.634zm-5.122-12.77c.507 1.316.3 3.933 2.246 3.197-.664-.186-.674-.503-.32-.972.61-.062.706.372 1.282.318 1.075-1.79.39-2.877-.636-4.457.177-1.096.6-1.95 1.27-2.55-.15.995.864.837.963 1.587 1.37-.326 1.227-.178 2.232.327.09-.937-1.28-1.19 0-1.6 1.36.902 4.47-.52 6.067-.635.158-1.006-.45-1.253-.636-1.916-2.49.6-3.293-.608-5.12.636-.628-.74-.947-1.81-2.544-1.6-.38 1.01-.582 2.184-1.28 2.88-1.185-1.03-3.728-1.403-4.468-.326.044-.794-.503-.99-.646-1.59-3.45-.256-6.54 1.546-6.702 3.507.565-.416 1.167-.152 2.553-.32.346.83.778 1.563.637 2.88-.566.6-2.34 0-2.233 1.262 1.104.29 2.11.67 2.233 1.916.787-.803 2.543-.643 2.242-2.543.098-.73-.928-.352-.963-.96.736-3.38 7.208-2.587 3.823.96zm-8.616 41.512c3.495 1.148 8.325.37 12.14 0-.395-.99-.784-1.98-1.597-2.553-1.484 4.105-8.177-.045-10.543 2.553zm.962-11.5c.52-.758.708-1.843.955-2.877-.59-.617-1.166-.104-1.916 0 .08-.598-.354-.696-.316-1.278.775-.6 1.553.352 2.56-.31 1.95 2.145 6.332-.67 8.945 2.233-.285-1.025.483-.997.952-1.28-.158-5.527-.893-9.845-.952-15.32.626 0 .404.856 1.27.636-.106-2.427-.62-3.866 0-5.748-2.005-.547-6.297.804-8.62-.97-.882-.125-.3 1.2-.96 1.29-.778-1.415-2.348-.213-3.195-1.29-.133.413-.408.66-.955.653-.143 4.193-.627 8.36-.316 12.13-.743.212-1.104.813-1.6 1.28.52.83.062 1.377.318 2.87 1.667 1.016 1.06 3.736 1.917 5.748-.71.838-1.06-.987-1.917 0 .193 2.375 2.346.99 3.83 2.233zm-10.544-31.927c-.218-1.395.55-1.802.32-3.196-1.006-1.59-2.993-.53-4.15.326 1.148.195.528 2.146.316 2.87.592.688 1.882.663 1.6 2.233-1.008.354-.724.027-1.916 0v1.59c1.386.31 2.356 1.456 3.515.317-.47-1.774.044-2.578-.956-3.822.424-.097.612-.45 1.272-.317zm2.88 1.58c-.987-.018-1.525.406-2.234.653-.184 1.034.212 1.476.32 2.226.986.044.907-.998 2.232-.636.187-1.033-.22-1.474-.32-2.243zm0-3.178c-.51-.025-.257-.812-.963-.636-.45.07-.538.52-.953.635.035.822.178 1.527.637 1.917 1.818-1.766 3.036.77 4.792-1.598-.114-1.76-.326-2.183 0-3.834-.854-.784-1.978-.767-3.195 0 .628 1.616-.448.884-.635 2.243.857-.22.617.654.952.955-.317 0-.38.256-.636.317zm.954 38.957c-.08-.945.725-.98.646-1.917-.743.1-1.228-.05-1.6-.325.01.98-.68 1.246-.963 1.926.38.36 1.13.35 1.916.316zm-12.46-1.28c.045 1.236-.38 2.932 1.28 2.552.32-1.252-.704-1.854 0-2.553h-1.28zm.645-3.84c-.52.486-.467 1.827.637 1.605-.142-.6.434-1.922-.636-1.606zm-4.15-30.006c.425 1.476-.57 2.844.957 3.516.316 0 .38.257.636.316.28-1.21 1.445-1.535 1.277-3.196-.705-.46-1.534-.794-2.87-.636zm1.918 24.257c-.91-.246-.034-2.296-1.28-2.227.098 1.784-.025 2.834 0 4.786 3.292-2.382 7.62 2.27 10.223 3.188.894-.31-.094-1.34 0-1.907-1.605.3-2.178.133-2.877-.636 1.132-3.974 5.13-.592 7.664-1.924.294-3.32 1.424-5.456.646-8.61.99-.398 1.794-.97 1.917-2.242-.38-.044-.91.064-.962-.315.06-3.18.643-5.583-.636-8.62-1.616-.733-2.94.655-4.795.636-3.072-2.833-5.688-1.773-10.224-.635.582-.547-.1-1.253-.956-1.28-.733 4.105 2.386 8.654.32 13.095 1.075-.414 1.686 1.247.96 1.598-.748-1.43-1.128.29-2.24.32.457 1.676 3.282 2.676 2.24 4.775zm-7.028-21.378c.733-.336 1.923-.203 2.553-.653.13-.76-.585-.68-.33-1.59-1.227.07-2.346.018-3.185-.326.316.873.706 1.65.962 2.57zm2.87-7.982c.615.812.803 1.695-.317 2.234-.16-1.935-1.607-.08-2.553 0 .158.988-.7 1.245 0 1.915h.952c.787-.432-.345-1.192.32-1.28 1.074.565 1.694.876 1.597 1.916 1.758.25 1.245-1.74 2.24-2.232 1.564-.027 3.55 1.36 5.433.953.715-1.378.36-1.9.316-3.833h-2.244c-.44.202-.044 1.237-.636 1.28-.07-.363-.35-.494-.636-.635-.503.767-1.148 1.41-1.913 1.915-.39-1.254-1.688-.884-.964-2.56-.898-.265-.82.45-1.597.326zm-1.273 36.08c.724.15 1.626.626 2.233 0 .062-1.45-.83-1.942-1.914-2.233.256 1.103-.477 1.217-.32 2.232zm-11.505 2.868c.29-1.118-.063-1.05.646-1.912-1.503-.558-1.715 1.79-.646 1.913zm3.515-45.976c2.41.266 7.975 3.878 7.664-.636.38-.167.726-.343.953-.644-1.49-.67-2.356-.707-3.82 0-1.054-1.986-5.353.16-5.432 2.235 1.554.582 1.91-.548.637-.956zm.645 14.685c.263-.68.23-2.032 0-2.554-.072.248-.274.362-.645.31.202 1.19-1 2.207.645 2.243zm1.272 31.927c.414.443 1.385.32 2.232.33-.69-1.184-.66-1.857-.955-2.88-.37 1.263-1.232.617-1.276 2.55zm0-37.35c1.34-.714.468.53.307 1.59 3.215.134 2.45-4.573.336-5.103.02.335-1.14 2.816-.642 3.514zm-8.946-6.392c2.02-.097 3.392-2.455 1.917-4.15-1.793.44-1.14-.3-2.872-.317-.592 2.004.33 2.92.955 4.467zm2.88 15.33c-.312 2.164-1.59 3.496-.963 5.748-1.016-.285-1 .493-1.27.962.492.882 1.147.044 1.597 1.27-.734 5.235-1.784 8.61-1.28 12.44-.425-.403-1.193-.403-1.282.327.743.674-.35 1.35.646 1.927.725-.238 1.626-.292 2.233-.647-.036-.99.14-1.774.635-2.233.848 0 1.828-.123 2.236.316-.866 1.36.74 2.553 2.243 2.562.484-2.12 2.648-.592 3.505-2.253.326 1.325 2.57-.458 3.195.972.363-1.025.804-1.978 2.242-1.924-.616-2.227.212-3.38-.642-5.74.607-.987.873-1.367 2.233-.953.192-2.94-.627-9.262-2.562-8.945.743-.626-.6-2.057.33-2.87-1.74-1.26-3.968-.537-6.388-.645-.68-.28-.554-1.36-1.598-1.27-1.95.635-2.676 2.33-5.11.955zm-.32-10.852c.416 3.628 1.713 4.81 0 7.972 1.36.564 2.94-.406 3.513-1.6-1.04-1.81-1.014-4.662.32-6.373-1.63-1.687-1.88-.83-3.833 0zm-20.767 16.28c1.494-.07 1.035-2.667 0-2.88v2.88zm2.243-24.265c-.76-.784-.6.478-1.598.31.07-.6-.363-.697-.32-1.27.77.202 1.193-1.52.637-1.607-.307.442-.854.654-1.277.972.81 1.81-.117 5.27 1.598 4.786-1.007-1.13 1.65-1.317.96-3.19zm-18.207 46.613c.01.85-.3 2.007.955 1.602-.034-.813-.062-1.645-.954-1.6zm2.553-46.612c.758-.65-.444-1.27.31-1.915-.788-.035-.98-.6-1.592 0 .284.777.29 1.836 1.28 1.915zm2.56.636c-.848.76-1.926 1.27-2.252 2.553 1.528.566 3.012-.82 3.84-1.917-.98.24-.61-.873-1.588-.636zm-1.28-1.597c.148 1.262-.67 1.65.316 2.232.557-.547.354-1.967-.316-2.233zm-7.99 14.692c-.1-.513 1.986-3.01 2.878-2.56.123-1.184.05-2.172-.955-2.235-.158 1.034-1.978 1.086-2.243.32.168-.47.478-.805.646-1.272-.38-.372-1.13-.364-1.917-.32-.513 1.44-.558 2.43-1.6 3.825 1.14 1.032.628 3.38.953 4.467 1.247-.39 1.202-1.36.965-2.553.423-.044.96 1.3 1.272.327zm4.475-2.242c-.955.618-1.43 3.01-.32 3.832.798.052.99-.495 1.602-.646.167-1.228-.822-1.307-.965-2.226.566-1.04 1.606-1.587 1.27-3.513-.986-1.263-1.28.196-2.868 0-.266 1.14.725 1.547 0 2.234.424.785.962-.575 1.28.318zm-15.655-7.02c-.257-1.882.573-.69 1.6-1.28-.514-1.086-1.247-1.943-1.918-2.88-.345.318-1.166 4.213.318 4.16zm1.915 48.846c1.81-.02 3.636-1.503 2.242-2.86 0 1.702-2.382 1.016-2.242 2.86zm5.114-50.763c.492-.467.67-1.243.64-2.24-.94-1.123-3.264-1.91-3.513.324 1.803-1.067 1.3 1.812 2.872 1.917zm-18.527 53.323c4.574.886 10.472.513 11.824-2.878-1.82 1.404-2.923-1.184-4.478-1.914-.177 2.12-2.005 2.092-3.516 1.6-.44.404-.14 1.56-.953 1.597-.256-1.025-.75-1.81-1.916-1.914-.458 1.03-.29 2.682-.96 3.51zm-2.552-4.147c.267-.7.823-1.104.637-2.236h-.952c-.178.68-.78 2.06.316 2.236zm2.235-41.51c.53-.927.142-3.205-1.28-3.197-.097 1.59.513 2.47 1.28 3.196zm-23-33.21h2.24c-.556-.953.1-1.614-.324-2.234-.477.044-1.174-.114-1.27.32.98.404-.364.96-.646.315v1.6zm-4.15 73.12c1.853.478 2.217-3.07.635-3.195-.547.725-.77 1.776-.636 3.196zm3.83-30.33c-.07.583-1.03 2.88.32 2.87-.62-.735.617-2.057-.32-2.87zm-13.73 38.94c1.37 1.07 1.864-.955 2.552-1.598-1.042-1.335-2.71-.107-2.55 1.598zm-4.16-9.572c.664 1.104 1.776 2.543 3.516 1.598.444-2.58-2.427-3.135-3.514-1.598zm-4.148 3.198c1.335.342 1.335-2.27 0-1.917-.097.74-.627 1.316 0 1.917zm-.317-7.984c-.02.972-.187 2.1.952 1.917.02-.97.195-2.104-.952-1.917zm1.915-30.65c.335-2.92-.804-8.617-2.88-4.158-.97-.3-.643-1.907-2.233-1.588.335.9.335 1.323 0 2.233.927-.415 1.838-.266 2.234.636.16 1.22-.088 2.04-.636 2.55 1.228-.167.212 1.926 1.28 1.918 1.247-.026 1-1.554 2.235-1.59zm-8.628 37.353c.08.564-.316 1.6.646 1.282.123-.778-.582-.7-.326-1.6-2.43-.317-2.525 1.21-4.15.964.66 1.81 2.682.15 3.83-.645zm-.952-39.592c-.98.238-.945-.548-1.917-.318.054 1.528-.017 3.213 1.917 2.878-.354-1.73 1.332-1.432 2.233-1.934 0 .334.256.397.318.653-.018 1.483-1.36.143-1.28 1.28.272.47 1.03.45 1.598.627.857-2.78.566-4.246-.317-6.375-1.987.166-3.7 1.713-2.552 3.188zm-8.31 7.982c1.088.025 1.193-.936 1.59-1.59-1.306.246-.59-1.528-1.906-1.282-.513 1.026-.266 2.114.316 2.872zm.646-14.366c.435-.434.61-2.227-.326-2.234-.176.776-1.235.68-.954 1.915.6-.07.707.364 1.28.32zm2.235-3.19c1.606.188-.062 1.573 0 2.234.414.857 1.024 1.527 2.232 1.6.073-.257.01-.637.32-.645-.08-.583-1.36-1.572-.32-2.234.364 1.322 1.114 1.766 1.28 2.55.814-1.2 2.015-2.03 2.234-3.83-1.41.458-.837-1.08-1.914-.956-.61 1.097-3.39.02-3.83 1.28zM175.36 69.17c-.478-.052-1.183.116-1.28-.334.247-1.44 1.802-1.598 1.916-3.18-.937-.352-1.65-.9-3.196-.635.044 1.2-.618 1.713-1.59 1.916.107 2.277 2.774 2.048 1.59 4.776.972.406 2.402-1.105 2.56-2.544zm-1.598 38.313c-.442-.96.148-1.147 0-2.55-1.562.264-.414 1.272-1.28 2.234.61-.07.706.36 1.28.317zm-6.71 2.88c1.015-.158-.54-2.88.963-2.56-.61-1.183-.973-2.5-.964-3.505-.538 1.545-1.597 5.173 0 6.065zm-8.3-58.117c.643.646 1.835 2.41 3.195 1.28-.786-1.27-1.553-.202-.962-2.232-.698.37-2.066.06-2.234.953zm1.915 58.437c-.432.396-.493 1.562.32 1.598.76-.857.192-2.322-.637-2.562.494.028.212-.927 0-.316-.01 1.36-2.313.46-2.562 1.598.575.284.812.882 1.916.636.346-.293.107-1.176.963-.954zm-8.944-17.563c-.07-1.167-.44-1.236 0-2.236-1.467-.28-.927 2.165 0 2.237zm-1.916 7.98c.944.612 2.472.814 3.195-.315-.432-.212-.6-.69-.644-1.29-1.562-.178-2.348.423-2.55 1.606zm-5.43-48.854c-.804.962.106 2.262 1.597 1.907-.307-.858-.14-2.19-1.598-1.907zm6.382 14.048c-1.024-.27-.662.83-1.272.964-1.66-.256-2.638-1.2-3.83-1.915-.248 2.718 1.94 3.698 3.513 5.428-.053-.813.16-1.325.637-1.6 1.183 1.272 4.124-.37 5.43 1.908 1.112-.998.097-2.375 1.6-3.187-1.775.36-1.547-1.704-3.198-2.235-.115 1.167-.75 1.803-1.917 1.917-.185-.865.944-1.996 0-2.553-.583.962.062-1.953-1.28-1.28-.142 1.093.133 1.79.316 2.55zm-9.898-17.878c1.094.228 1.784-1.59.963-2.234-.3.766-1.29.847-.963 2.234zm-5.43 53.32c.52-1.605.308-2.514.636-3.83-.195-.02-.372-.053-.318-.318-.44-.016-.698.15-.954.32 1.166 1.322-.707 2.85.636 3.83zm-3.197.322c-.177-1.46.927-2.784-.318-3.51-.123 1.44-.53 2.494.318 3.51zm.318-8.31c.468 1.138.486 1.755.644 2.56.77.132.69-.573 1.6-.327.016-.547-.072-.98-.33-1.262 1.14.167 1.405-.522 1.927-.972-.054.804-.063 1.563.626 1.607.573-2.87 1.237-8.098-2.87-7.984-.654 2.095.204 3.736.317 5.432-1.225-.28-1.128.768-1.914.945zm-6.7-30.005c.9.06.74-1.2 1.597-.318-.266-.9.45-.83.318-1.598-1.147.186-1.545-.37-2.235-.636-.247 1.2.39 1.528.32 2.55zm1.27 32.882c.017-.547-.238-.812-.635-.955-.054.373-.503.354-.955.31-.07.96 1.14 1.13 1.59.645zm-1.59 4.476c.743.1 1.316.627 1.917 0 .133-1.2-.68-1.455-1.28-1.917-.283.567-.894.804-.637 1.918zm2.87-10.853c.194.02.38.044.318.3h.647c.016-.174.044-.36.316-.3v-.643c-.193-.02-.38-.044-.316-.32h-.646c-.017.197-.043.38-.317.32v.643zm1.916 1.9c-.75-.088-.593-1.097-1.6-.945-.467.47-.467 2.094 0 2.543-.83-.08-1.37.104-1.27.972.848.646.936.572.636 1.907.415.45 1.385.326 2.233.326.106-1.924 2.577-1.475 1.916-4.15-1.27-.316-.96.945-2.233.626-.072-.59.36-.705.316-1.278zm2.877-34.472c-3.354-2.437-7.734.794-11.495-1.916.22 1.13-.434 2.365-.646 3.832-.82.854-.335-.733-1.597-.32-.39 4.205 6.904-2.04 7.99.637.45-1.844 2.473-.237 4.15-.953-.442 1.43-.1 1.422.635 2.234-.493.46-.67 1.243-.636 2.233 1.72-1.128 4.255-.413 5.42-2.552.46.505 1.113.812 1.926.955.29-2.075.62-2.562 1.6-3.514 1.022.52 1.73.156 2.868 0 .353 1.887 1.34 3.133 2.243 4.475-.24.503-1.562-.08-1.28.953.29 1.156.945.195 1.916.318-.77-2.312 1.29-3.56 3.195-4.15.196 1.528.424.46 1.27.318-.22 1.183.506 1.412 1.6 1.28.052-.795-.503-.988-.636-1.6 1.2-1.518 2.614-1.023 4.468-1.596 1.36 1.95.335 4.502 2.242 6.073 1.316-1.74.054-4.12 1.59-5.43 2.206.22 2.684.654 4.478 1.6 1.016-1.387 2.78-.026 3.195-1.917 1.078 1.042 2.242 2.006 2.87 3.505.362-2.356 2.445-3.398 3.832-3.83-1.06-.592-3.276.688-3.514-1.28-3.904 2.48-8.336-1.98-11.497 0-.564-.17-1.324-.16-1.6-.637-8.262.964-16.826-.13-24.59 1.283zm-10.223 44.06c.415-.6.14-1.66 0-1.916-.266.936-1.025-.184-1.6 0 .328.848.53 1.82 1.6 1.916zm-.32-47.248c1.237-.28.522 1.378 1.917.954-.034-1.352-.945-1.828-1.597-2.552.105.74-.053 1.227-.32 1.597zm-2.233 52.36c-.07-.616.363-.704.32-1.277-.496-1.695-2.562-.54-2.88.643.52.547 1.343.787 2.56.636zm2.87-19.168c-1.44 3.56-3.584 6.64-2.233 11.188 1.36-.188 2.11.228 3.197.315 1.14-2.012-.14-4.747 2.87-4.466.008-1.29-1.66-.893-2.87-.972-1.738-2.78 2.747-1.862 3.196-3.498-.124-.987-1.095-1.243 0-1.914.37.263.857.415 1.597.316.636-1.52 2.34-3.17 4.786-2.56-.247-1.704.275-3.223 1.28-4.47.85-.094-.3 1.794.955 1.282.882.133.3-1.193.954-1.28.088.457.53.54.646.964-2.04 1.306-.02 4.23 1.915 4.466-1.74-.167-1.396 2.57-.636 3.195.547-.193-.027-1.524.636-1.598 1.228 1.468 1.112 4.884.318 6.703-.423-.1-.61-.45-1.27-.326-.706 1.05-.803 2.46.318 3.205 1.095-.29 1.324-1.45 2.235-1.927.538 1.054.804 1.433 2.233.965-.283 1.863 1.04 3.027 0 5.428.98.222.944-.557 1.915-.325-.51-1.05.082-1.22 0-2.553.876-.203 1.502-.637 1.917-1.272-.29-.34-1.173-.104-.952-.96 1.148-.08 1.164.96 2.233.96.512-.237-.07-1.562.96-1.277.823.034.453 1.243 1.272 1.277 1.256-.13 1.45-1.33 2.562-1.597 1.483.75 3.303 1.167 3.194 3.514-.793-.228-1.907-.493-2.242.32 3.18.828 5.185-1.883 8.31-3.198.353 1.034-.018 3.02 1.28 3.834.776-.424-.583-.965.317-1.272 2.465 1.04 3.1.158 5.75.636 1.016-2.306 3.206-2.375 5.43-2.878.08 1.095.804 1.534.636 2.878.848-.01 1.882.175 1.917-.636-.275-.585-.822-.886-.955-1.6 1.892-.387 1.724-1.148 4.15-.643-.627.593-.097 1.165 0 1.915-.563.08-1.598-.326-1.28.645 1.58.02 2.12-2.33 3.515-.645.31-1.5 1.087-2.534 3.196-2.233-.355-.864-.124-1.968.953-2.233.052 1.005-.848 1.06-.636 2.232 1.81.01 2.013 1.616 2.234 3.197 1.855-.02-.158-2.025 1.6-2.237 2.26.462 5.182 1.272 7.027-1.277 2.578-.418 1.642 3.17 3.515 2.55-.646.636-.92 1.635-1.6 2.236 1.732.942 2.27.123 4.15 0 1.156 1.154.25 2.48 1.6 3.514.39-2.34-.646-4.064.644-5.75.505.037.248.822.953.645.697-1.57 2.11-1.526 3.196-3.193.77.907 1.387.52 2.234 0 .237.513 1.562-.073 1.28.962-.097.66-.866-.488-.964.635 1.547.123.133 1.755 0 2.232 1.715 1.228 2.12-1.183 3.834-.952v-1.28c2.56-1.168 5.333-2.13 8.944-2.243.14.617.918.582.634 1.607-.794.36-2.188.147-2.233 1.26.786 1.582 2.058-.67 2.88.655.645-.62.74-1.29.31-2.242 2.31-.804 4.06-1.034 7.353-1.28.522 1.05-.08 1.227 0 2.558 1.528.312-.167-1.437.646-1.276 1.82.52-1.175 2.372.636 3.515-.115-1.874.794-.258 1.598-.32.062-1.025-.564-1.352-.318-2.554.45.734 3.31.715 3.833-.315.23-.872-1.51.213-1.29-.645.08-.354.354-.494.645-.636.707.467 1.493.847 1.28 2.23 1.095-.255 1.352.355 1.917.638.132-1.095-.123-1.784-.32-2.55 1.75-1.246 3.668-1.528 5.433 0-1.59.13.28 1.095.317 1.598-.97-.23-1.165.315-1.924.315.212 1.08 1.095 1.47 2.243 1.602.018-5.21 5.854-.97 8.308-2.552.273-1.025-.502-.99-.644-1.607 1.148-1.202 4.593-.725 5.43.326.31-.76.564-1.573 1.918-1.282-.266 1.148.722 1.547 0 2.236 1.48.202 1.978-.585 2.55-1.28-.46 1.207.883.616.646 1.606 2.597-.08 3.85-3.18 6.393-2.253-1.493 2.04-.654 4.91 1.598 5.757-1.217-2.977 1.563-5.604 3.19-7.674-1.804.63-2.41-2.982-.32-2.543 1.078 2.543 1.315 5.925 3.834 7.028-.813-2.09 1.622-2.735 2.56-1.597-.096-.84.116-1.376.954-1.28.36.92.67 1.89 1.28 2.56 1.076-.52 2.747-1.06 1.915-2.56.468.283 1.016.477.955 1.28 2.02-1.81 3.056.044 5.428.32.744-.966.725-2.687 1.28-3.845-1.615-1.977-.087-4.422 1.6-6.058-.76-2.55.08-6.374-1.28-7.66-.318.423-.3 1.188-.954 1.277-.45-2.77.84-4.477.32-6.384-1.316.123-3.03-.996-3.515-.646.582.398-.453 1.873-.962 2.236-3.5.627-3.853-1.892-4.16-4.48-2.138-.22-.565 3.26-1.907 3.844-1.202.247-1.527-.39-2.553-.32.168 1.343-1.024 1.317-1.28 2.234 1.59 1.812 1.024 7.393.964 9.897-1.503.222-1.184-1.376-2.243-1.597 1.632 3.09-.937 3.046-2.553 3.833.398-1.627.61-3.436 1.917-4.15-.768-4.55-1.606-7.93-.318-12.45-.424-.788-.962.572-1.28-.328 1.255-2.438 4.187-1.254 7.027-.963-.85-.822 0-1.838.318-3.18.07.25.01.62.316.635-.034-1.04.522-2.144 1.917-2.55.07 1.846 1.934 1.89 2.244 3.504-1.854.936.557 2.728.955 3.515.37-1.335-.675-1.246-.637-2.244.89-1.296 2.48-.643 3.194-1.597.054-.68-1.14-.133-1.597-.31.098-.44.45-.617.315-1.28-.73-.433-1.198.83-1.277 0-.965-1.438 1.395-1.89 2.233-2.552 2.066.7 2.42 2.968 2.56 4.795 1.38-.327 1.937-1.473 2.87-2.242-.17-1.5.91-4.557-1.27-5.422-1.69.558-2.173 2.298-4.48 2.234-.307-1.184-1.448-1.536-2.232-2.233-1.263.672-2.03 1.997-1.917 3.19-1.632-.302-.917-1.908-1.913-2.236-.506.25-.478 1.016-1.28.964.27-.372.423-.857.315-1.6-1.253-.3-.804 1.112-2.233.636-.85 1.235-1.456 3.683.318 4.47-.565 1.014-1.477 1.93 0 2.56-2.454.025-4.31-.603-6.066-2.56 1.818-.62 1.96-1.512 2.553-2.87-1.512-.08-.832-2.358-2.553-2.235-.494.36-.788.918-1.28 1.28-1.42-.23-1.855-.495-3.832-.646-2.913 1.307-1.518 5.06-3.514 7.03-.336-.302-.1-1.185-.956-.973-1.024 2.402 2.667 2.306 4.47 2.88.643-1.67-.072-2.79.316-4.786 1.263-.018 1.256-1.308 2.562-1.27-.168 2.454 1.297 4.06 1.914 7.02-1.228 1.04-3.945-.32-5.112 1.28-.996-1.28-3.406-.892-5.11-.654-.238-1.13-1.45-1.307-2.554-1.59-.178.47.373 1.66-.316 1.59-2.51-.873-2.78-.424-5.432-.627.09.84-.123 1.376-.96 1.28-1.238-1.103-3.16-1.526-4.15-2.88-.036-3.02.67-5.526-1.28-7.02-2.757 2.155.484 7.374-1.6 9.582-1.344.123-1.423-1.455-3.197-.646-.007-1.263-.694-1.847-.96-2.88 1.456-.555 1.995-2.303 3.523-1.907-1.404-1.596.176-2.1-1.28-2.877.29-.873 1.173.628 1.28-.636-.434-.212-.602-.68-.636-1.27-2.262.043-1.98.688-4.16.635-.865 1.58-.9 3.992-.953 6.375-1.784-1.05-1.9 1.228-2.88 1.925-.74-.432-.908-1.43-1.27-2.242 1.19-.494 1.148-2.25 1.915-3.187-1.21-.248-1.528.39-2.56.318-.036-.813-.46-1.246-1.28-1.27-.77.502-1.36 1.19-2.87.952-.01-.848.177-1.88-.636-1.915-1.343.16-.707 2.278-2.243 2.234 1.448-1.13-.855-1.458-1.598-2.233-.555.08-.723.548-.636 1.28.097.75 1.52.186 1.28 1.28-1.544.265-1.623-.937-2.56-1.28.28.893.404 1.942.96 2.542.134-.39.416-.645.955-.628.673.778.452.673.328 1.908 1.077.803 4.327.16 5.748.963.133-.397.406-.653.953-.646.21-1.184-.893-1.864.644-1.908.01 1.052.54 1.59.32 2.88-.61.07-.708-.363-1.282-.327-.83 1.343.513 1.343.636 2.56-1.37.973-1.21-.147-3.188 0-.087-1.42-1.103-1.88-2.243-2.233-.167 1.105-1.578.963-1.915 1.9-.584-.362-1.077-.83-1.59-1.264.37-.805 1.326.778 1.272-.637-1.493-1.11-1.784 2.403-3.515.954 1.837-.75.573-3.09.645-4.485-1.21.3-2.71.29-3.833.652.45-1.994-.716-1.182-1.28-1.597.39-.672 1.2-.928 1.28-1.915-.564-.07-.73-.547-.644-1.27-2.067.342-2.067-.355-4.15.315-.636.212.203 1.9-.963 1.6-.83-.23-.3-1.827-1.27-1.916-1.21 1.35-4.23 4.413-5.114.315-2.435.566-5.155 2.543-7.027.32-.097 1.278-1.22 1.552-1.598 2.55 1.626.018.37.663.317 2.233 1.112-.256 1.228.478 2.243.327.062-1.537 1.148-2.047 2.234-2.56.936.944 1.695 1.836.635 3.187 1.643.354.76-1.598 1.28-1.59 1.022.786.476 1.688.953 2.553.345-.29.106-1.175.962-.963-.123 1.456-.732 2.957.636 3.523.177-.468-.37-1.66.32-1.598.3.557.6 1.095 1.597.952-.53-1.704.962-1.386.962-2.562-.927.354-2.87-.636-1.598-2.226.75.1.715.99 1.28 1.28.696-1.56 3.885.442 3.83-1.28.258.592.417 1.29.957 1.6-1.83 3.143 2.056 8.662-1.272 10.535.15-.627-1.468-1.025-1.6-.32.47.275 1.01.48.945 1.282-.77.81-2.685.485-3.823.954-.396-2.28-2.462-2.863-2.87-5.115-1.774.363-1.483 2.783-2.56 3.833-1.27-.636-2.296-1.537-1.917-3.834.98-.185 1.572-.77 1.598-1.915-2.09 1.164-3.16 1.756-4.794 0 .585-3.26-1.78-4.134-1.914-8.62-.9-.265-.822.45-1.6.318-.36-.672.205-1.244-.635-1.915-1.42-.036-1.65 1.104-3.196.962-.652 2.313 2.8 3.875 3.833 4.458-3.354 3.083 1.422 11.428-5.748 11.19-.027-.507-.813-.257-.637-.965 1.228.15 2.95-.854 2.235-1.598-.443 1.016-.143-1.297-.956-.952-.626.97-.582 2.613-2.242 2.55.02-.44-.15-.696-.316-.962.537-.23 2.188-.96 1.28-1.587-.486.598-1.097-1.35-2.235-.32-.697-2.286.45-6.41-3.196-5.747-1.343 2.49.335 5.713-.963 8.3-1.367-.803-2.49 1.017-3.832 1.282-2.232-.01-2.074-2.395-2.553-4.15 0 .316-.555.396-.636 0 .15-1.562-2.2-5.15 0-7.04-.76-.725-1.288-1.614 0-2.226-.415 1.255.876.83 1.27 1.28-.784-.987-.325-1.235-.315-2.876-1.66.28-.247-2.517-2.235-1.917-.105.847-.07 2.083-1.606 2.233-.25 1.64 1.007 1.765 1.606 2.56 0 3.578-.327 4.93-1.915 6.693.9-.034.917.785.952 1.607-.768.133-.688-.582-1.588-.316-.61 2.923-5.405 2.71-6.076 0 .688-3.09.855-1.08-1.6-1.6-.468.38-.493 1.2-.95 1.6-.7-4.317-.232-7.852 1.278-10.862-1.148-.557-2.023-1.386-2.56-2.553-1.282.487-2.155 1.034-3.197 0 .16-1.44 1.774-1.43 1.28-3.515-.777-.812-.682.672-1.916.32-.205 1.923.378 4.634-1.28 5.11-.558-.078-.725-.547-.637-1.28-1.007.275-1.98.583-2.553 1.28-.177 1.556 1.27 1.475 1.59 2.55-1.112 1.334-4.123.77-4.468 2.88.45.61 1.21.902 1.282 1.9.024 5.13-2.465 8.388-5.75 9.27-.83-2.933 1.12-5.723-1.28-7.665.15 1.89-.54 2.65 0 4.15-1.828 1.183-1.767 2.436-1.917 5.432 2.482-.67 1.528 2.084 2.553 2.878 1.253.08 2.03-.32 2.56-.965-.415 1.256.928.778.955 1.6.927-.245 1.836-.502 2.233-1.29-1.21-.22-1.033-1.844.325-1.906-.07.92-.044 1.73.956 1.598.05-1.33 1.738-2.717 3.193-1.597.07.602-.36.71-.316 1.28 2.233.656 5.103.48 6.7 2.234.133-.396.416-.66.965-.636.025-1.307-.576-1.977-.964-2.878.328 0 .38-.257.645-.316.795.493 1.068 1.297 2.234.636.46.917-.45 1.65.636 2.242-.23 1.04-1.49 1.06-1.6 2.215.1.876 1.352.585 1.6 1.29-1.368.336-.697 2.71-1.915 3.188-.876-1.547-.063-3.268-1.917-4.144.37 1.316-.67 1.247-.635 2.237.66.607 1.333 1.228 1.598 2.233-.74-.1-1.228.054-1.598.316-.68-1.52-1.616-1.52-2.56-2.243.342-.607 1.473-.43 1.914-.942-.68-.388-.39-1.74-1.916-1.28-.602.883.185 3.17-1.27 3.195-.973-1.465.184-3.265-.32-6.064-.405-.62-1.694.558-.96-.653-1.45.69-1.538 1.306-1.282 3.204-1.413 1.213-1.297.69-2.868.956.636.354-.045 2.065-.32 2.56-1.27-.715 0-2.2-.644-3.195-.767-.132-.688.583-1.6.317.78 1.44-.635 2.243-1.597 2.88-.803-1.254-2.13-.388-3.188-.973 1.256-1.12-.016-3.584-.96-4.457 1.985.168.344-1.838.644-2.878-1.193-.03-.928 1.41-.964 2.558-1.235-.07-1.245 1.095-2.235 1.27.7 1.035-1.43 1.963-1.597 3.2-.82-.036-.636-1.07-.636-1.918-1.05-.098-.68 1.237-1.598 1.28-.32-.758-.567-1.57-.646-2.56 1.13-.68 2.587-1.032 3.196-2.243-.98-.228-.61.882-1.597.654.185-.565-.39-1.88.318-1.916 2.297.237 2.41-1.04 3.832-.96-.237-1.716.275-3.26-1.27-4.15-.574.492-.256 1.87-1.28 1.916-2.87-2.164-1.423-7.117-1.598-10.854-1.264-.68-3.064-.9-3.833.31-.193-.97-1.712-.618-1.916-1.6.83-.335 1.193-1.147 2.235-1.28.6.69 1.377 1.192 2.56 1.28.14-1.333 1.51-1.464 1.917-2.542-.61-1.227-1.988-2.568-1.28-4.15-.602.063-.708-.36-1.282-.325-.29.556-.104 1.597-.636 1.916h-.963c-.256-.9.45-.822.326-1.59-1.06.203-1.395.635-.962-.646-2.922-.795-.88 2.014-.953 2.235-.345 1.03-2.8 1.28-1.29 2.86h-2.224c-.195.785-.24 1.376-.328 2.877-.22.646-1.774-.07-1.916.653.485.468 1.826.088 1.598 1.272-.292.67-.936.962-1.917.962-.265-1.308-.043-1.105 0-2.562-1.394.07-2.648.68-3.513-.327 1.307.106.177-.652.326-1.262 1.688.203 1.07-1.917 2.235-2.242.592.574.38 1.958 1.27 2.242.6-.608-.184-.583 0-1.616 1.132-.343 1.996-.97 3.516-.944v-1.27c-.944.43-1.387-.195-2.87 0-.194-.663.388-2.103-.317-2.235-1.175.53-2.977.424-3.514 1.59-1.794.115-2.306-1.758-4.16-.635.133 2.056-.582 2.966.645 3.83 1.164.204 1.696-.228 2.233-.635-.034.972 1.326 2.173 0 2.543-1.676-2.383-4.43-.247-6.382.636.035 1.335.77 2.005 1.27 2.888.142 1.73-2.276.9-2.87 1.917-.14 2.154 1.96 2.075 3.187 2.87.963-1.298.716-2.722 1.6-3.516-.196 2.19.81 3.93-.637 5.113-1.112-1.404-2.207.39-3.515.636.116-1.175-.795-1.333-1.6-1.6.893 2.845-.378 6.306 1.282 7.98-.45-1.72.857-1.685.954-2.868.176-1.13-1.132-.784-.955-1.913.468.27 1.006.474.954 1.276.936.08.98-.724 1.915-.642.416 1.818.928 3.54 2.243 4.476-.726-.235-1.628-.28-2.238-.643zm-5.748 8.945c-.415-.32-1.174-.32-1.598-.646-.283.715.052 1.38-.318 2.568.75-.104 1.324-.626 1.916 0v-1.922zm-.635-1.598c.07 1.756 1.873-.187 1.28 2.243 1.21.256.982-.937 1.917-.965.106-1.376-.44-2.11-1.28-2.56-.178 1.583-.97.884-1.917 1.282zm-.962-26.49c-.31 1.37 1.245.883 1.598 1.588.38-1.457 4.177.83 4.795-1.59-1.247-.413-.663-2.813-1.6-1.914.17-.9.47-1.66.637-2.56-1.58-1.22-3.25.6-3.832 2.232-1.245-1.085-1.376-.493-1.598.646-.867.025-.636-.53-1.27 0v-.962c-1.087.82-2.2.08-2.562 1.915.008.626.875.405.644 1.278.7.204 1.016-.917.956.318 1.19.125.837-1.288 2.232-.953zm-6.067 11.17c.927-1.265.283-2.28.32-4.15 1.323.37 1.242-.673 2.232-.635.326.414.318 1.173.645 1.597 1.103-.063 1.208-1.13 2.233-1.28.266 1.015 2.11.442 1.916 1.906-.495.902-.927 2.287.636 2.562.036-1.192.362-.91 0-1.927.795-.192 1.254-.07 1.6-1.262-.48-.063-1.176.104-1.273-.326.513-1.31-.22-1.9.636-2.872-.275-2.366-2.34-1.368-4.15-1.28-2.48.124-6.614-1.04-6.393 2.88.274.894 1.033 1.308.962 2.55-.61.134-1.376.118-1.28.966.274.784.742 1.376 1.916 1.27zm-.316 15.01c.6-.068.706.355 1.28.31.15-1.097.017-1.925-.644-2.542.316 1.26-.956.96-.636 2.233zm-6.713 20.432c.477-.28.467-1.03.645-1.597-.415-.026-.45-.406-.962-.32-.266.23-.857 2.207.316 1.916zm.962-16.6c-.513.478-.24 1.31.318 1.6.247-.23.83-1.908-.318-1.6zm.318-25.228c.202.76.433 1.483 1.28 1.6.01-1.077-.442-1.694-.962-2.243-.07.256-.008.637-.318.643zm3.197 34.81c.256-1.608.212-1.918-.963-2.56-.326.854-.84 2.957.963 2.56zm-.644-37.052c.424.998-.946 1.774 0 2.242.37-.227 1.403-2.26 0-2.242zm0 11.508c-.557 1.094-.275 2.39.644 2.87 1.528.344 1.343-1.007 2.87-.637.16-1.007-.698-1.256 0-1.917-2.014.31-1.5-1.908-3.197-1.917-.557.205-2.075 1.078-.952 1.917.078-.344.528-.768.635-.316zm4.158 13.083c-.98.23-.943-.548-1.915-.316.008 1.855-.468 2.322.316 3.516 1.22-.063 2.103-.45 2.236-1.598-1.086-.365-.76-.38-.635-1.6zM97.103 99.18c.98-.58 1.44.292 2.233-.314-.14-1.883-1.076-2.968-2.233-3.84-.09 1.578-.972 2.612 0 4.155zm3.514 9.583c.503-.67.61-2.977-.636-2.88-.478 1.007-.397 2.52.636 2.88zM90.39 94.396v-2.25c-.43.026-.696-.142-.953-.31.468.706-.035 2.386.954 2.56zm4.478 14.367c1.193-1.588-.97-2.897.316-3.83-.98.227-.935-.558-1.915-.32.176 1.458-.566 1.986-.32 3.515.593.245 1.167.53 1.918.635zm-.645-21.713c2.13-.335.443-2.533 1.28-4.15-.6.07-.706-.36-1.28-.315-.892.916-.352 3.035 0 4.465zm1.925-16.6c-.486-3.347.988-4.574-.328-7.347-.848 0-1.82.116-2.233-.317-.054 1.174-2.012 1.58-1.28 2.553.018 1.145 2.27.068 1.916 1.597-.054.458-.77.29-1.27.317.378.893.353 2.198.317 3.514.423.325 2.136.007 2.878-.32zm-9.59 15.32c1.307.266 2.36-1.74.964-2.233-.557.502-1.166.97-.963 2.233zm4.477-17.88c-2.586-.46-3.293-1.405-2.877-3.507h-.954c-.574 1.854.794 3.056-.326 5.103.68.283 1.42.495 1.923.963.055-1.545 2.13-1.07 2.235-2.56zm-2.877 40.873c.202-.69 1.2-1.986 0-2.233-.178.714-1.077 2.1 0 2.233zm-7.665-21.397c-.38.418-.15 2.024.963 1.917-.088-1.154.952-1.164.952-2.233-.626-.098-.636.434-.952.627-.415-.01-.452-.396-.963-.31zm2.235-10.223c1.81.07 1.34 1.174 2.233 1.607.602-1.65 2.552-.636 3.198.32 1.023-2.14 1.51-4.806.963-7.03-1.854.405-2.534 2.756-5.43 1.598-1.035.46-.3 2.667-.962 3.505zm2.233 43.108c-.23.716-1.818.16-1.588-.635h1.916c.152-1-.405-1.3-.962-1.6.044 2.04-.838-.035-1.917.32-.018.827-.097 2.01.32 3.193.635-.917 1.993.117 2.877 0-.045-.59-.212-1.065-.646-1.277zm-10.216-11.804c.38-1.6.256-1.724.636-3.198-.468-.167-.804-.468-1.28-.636-.767.804-.884 3.57.644 3.834zm1.6 3.186c.52.512-.142 1.192.635 1.917 2.87-.83 5.65-.618 7.028 1.906 3.054.945 5.5-2.006 7.982 0-.044-.778-.054-1.537.644-1.598 1.21 1.52 2.517-.063 3.187-.965.064.487.78.31 1.282.336.194.998-.6.988 0 1.6 1.854.256 1.51-1.687 2.553-2.237.36.813.6 1.74 1.28 2.237.052-.374.503-.354.963-.32.203-6.452-10.915-1.834-14.693-4.476-1.953 1.943-7.905 2.676-10.862 1.598zm3.83-12.14c.47.167.804.486 1.282.653.538-.32.636-1.078 1.272-1.28.193.65.493 1.208 1.597.952-.37-1.006.203-1.396-.318-2.55.555-.107 1.98-.965.954-1.6-.053.477-.768.293-1.27.31-.59.91-.76 2.232-1.597 2.888-.073-.61.36-.706.316-1.28-.77.132-.697-.583-1.598-.317.802 1.315-.38 1.198-.637 2.223zm-1.28 8.954c1.414-.462.84 1.075 1.917.952-.043-1.34.168-.77.646-.316-.07-1.148.08-2.537 0-3.834-.946.23-.946 1.07-1.6 0-.07.247-.007.627-.327.636.335 1.29.32 1.917-.636 2.562zM68.35 91.516c.143-.034.796-2-.315-2.232 0 .53-1.035 2.33.316 2.233zm4.16 15.013c-.74-.108-1.227.053-1.597.315-.02.442.15.7.316.955.743-.107 1.493-.2 1.28-1.27zm.32-34.165c.563 1.874.706 2.766.953 4.468.45-.405.143-1.562.96-1.598.745.627.858.627 1.6 0 .335.62.22 1.695 1.6 1.28.14-1.546-.355-2.43-1.282-2.878-.184.282-.67 1.82-.96.962.494-1.007.203-1.785-.32-2.562-1.095-.15-1.792.134-2.55.327zM71.55 82.9h.96c-.132-2.736.31-5.122-1.28-6.71-.15 2.076-2.332 5.63.32 6.71zm1.596-20.114c.646.733.256 2.51 1.597 2.553-.228-.98.547-.938.32-1.918-1.104.255-1.35-.355-1.917-.636zm-2.878 7.663V68.53c-1.493-1.51-4.29-.017-4.468 1.917.795.414 1.545-.716 1.6 0 .166 1.103-.48 3.02.635 3.187.29-1.404.917-2.35 2.233-3.188zm-3.832 27.453c2.048-.797 3.975-.063 4.794 1.277 1.202-1.597 2.12.267 3.834-.636-1.264-2.947-3.056-4.023-6.067-2.568-.61-1.202-.557-1.818 0-2.86-.697.052-1.015-.265-.96-.97-.902.335-1.336.335-2.236 0-.263.81-.874 1.27-.962 2.25 1.324-.248 1.827 1.353 1.598 3.507zm1.28 7.03c-.425 1.878-1.05 3.283-.637 4.782.707-.503 1.475-.22 2.234 0-.44-1.475 1.634-1.288 1.28-3.505-1.218-.168-2.19-.582-2.88-1.278zm-11.496 4.15c.645-.1.626-.867 1.27-.956-.777-.715-.132-2.844-1.588-2.88-.812.213 1.146 1.06-.328 1.282-1.888-.03-2.012-1.82-3.514-2.234.345 1.633.645 1.544.645 3.186.742.107 1.228-.05 1.598-.316.108 1.173.892 1.66 1.917 1.916zm2.553-2.554c.06-.922.042-1.75-.956-1.6-.025.555.07.988.32 1.28-.39.034-.76.088-.646.635.61.073.707-.36 1.283-.316zm.96-1.918c.02-.98.962-2.844-.325-3.194-.372.582-1.66.256-2.235.636-.15 1.863 1.926 1.483 2.56 2.558zm-4.158-32.247c1.898-.556 4.16-.742 4.478-2.88-1.44-.88-3.876-.687-5.75-.317-.3 1.696 2.13 1.944 1.272 3.197zm5.43-5.112c-.847 1.642.257 3.09 1.28 3.823-.14 1.493-2.057 4.18.32 4.48.123-1.75 1.465-1.054 2.877-.956.15-1.89-1.51-1.678-2.233-1.925-.064-.796.485-.998.95-1.28-.192-1.06-.934-1.078-.315-2.227-.848-.307-2.553-.802-1.6-1.915h-1.28zM59.09 83.855c1.35-.462 1.015-2.71 0-3.198.088 1.687-.336 1.9 0 3.198zm-13.73 21.712c1.04.086 1.535-.38 1.598-1.27-.61.35-1.476.438-1.6 1.27zm1.914-27.79c.487-1.138.08-1.542.32-3.178-1.026.265-.664-.83-1.282-.963-.255.874-.705 3.638.962 4.14zm.956 19.807c-.212 2.385 4.51 2.366 5.748 1.28-.98-1.122-1.757-3.894-4.15-2.56-.24.98.882.62.646 1.6-1.15.617-1.177-.124-2.244-.32zm-5.75.645c.636-.76 2.226-.55 3.197-.963-.09.838.114 1.376.954 1.277-.502-2.09-3.302-4.5-4.785-7.345-1.527 1.712-.92 5.703.635 7.03zm-.635 13.085c1.792-.345 1.007-.32 2.87-.955-.742-1.27-1.554-3.48-3.187-2.88.494 1.548-.38 2.49.317 3.835zm.635-36.396c-2.507-2.68-6.208.76-10.542-.32-.452-.434-.452-1.81 0-2.234 1.297 1.688 2.825-.087 4.476.637.424-.213.59-.682.636-1.29.952.69 3.072.84 3.515-.636 3.195 2.163 5.906.406 9.262.636-1.085.098-.697 1.65-1.917 1.606 1.335 1.138 3.753 1.053 5.75 2.87.97-.776-.24-2.073 0-3.187-1.325-.15-2.34 0-2.235 1.263-1.492-1.13-1.05-2.218-.316-3.815.9-.282.828.452 1.596.32 1.228-.328.592-1.29.954-1.935-1.404-.396-1.308 1.544-2.234.653-.626-.66-.247-2.118 0-2.87 4.036-1.11 11.708.637 15.655-1.914-.138.66.213.838.32 1.27.96-.442 1.14.15 2.55 0 .93-.45.91-1.854 1.916-2.234.222-.855-.65-.618-.952-.953-.955 2.093-5.828-.813-7.028 1.598-4.054-.46-6.26-1.712-9.262-.326-1.202.246-.7-1.22-1.6-1.272-.415.865-1.218 1.333-2.234 1.598-1.183-.873-1.71-.812-3.195-.962.124-2.164 2.967-1.237 4.15-1.28 8.952-.327 17.508.29 25.234-.953.662 1.15.564 1.616.317 3.196 1.44.266 1.598-.75 2.56-.962-.652-.618-.74-1.28-.327-2.233 1.086-.326 2.154 2.234 2.243 0 2.2.327.804 2.914.32 4.15-1.167-.546-1.193.884-2.235-.318-.848 1.306-.09 2.614-1.6 3.514 1.344.68 2.588 1.45 3.515 2.543.734-.433 1.025-1.308 1.6-1.91.6.038.22 1.053.953.955.478-.273.46-1.023.636-1.59-.76-.783-.936-.942-2.233-.643-.01-.97-.188-2.11.96-1.915-.167.256-.335.51-.318.962.767.132.688-.583 1.59-.32-.15-.73-.627-1.633 0-2.233.882-.15.3 1.183.96 1.27.744-.325.664-1.464.637-2.55 1.43.15 1.694-.865 2.242-1.6.636.424.035 2.085 1.59 1.6.15-1.88 2.675-1.378 4.157-1.916.097.75 1.103.593.955 1.6 1.518-.918 3.38-1.22 5.43-2.234-.688 1.208-1.5 5.05-.636 7.02.05.68-1.132.133-1.6.317 1.493-1.792-.9-.874-1.598-1.6-.15 1 .283 1.423 1.28 1.282-.398 1.104-.926.59-1.598.96.3 1.467 2.287.558 3.196 0 .503.876.778 1.99 2.553 1.59-.398 1.732-2.28 1.98-2.878 3.516-1.38-.432-2.023-.15-3.506 0 .22 1.44 2.1 1.953 1.27 3.506 1.033-.133 1.855-.478 1.6-1.907 1.234-.282 1.138.777 1.915.954 1.254-.452-.052-3.463 1.915-3.188-1.297-1.537.583-2.703-.636-4.168 1.35-.273 1.607.54 1.917 1.29 1.026-1.334 2.06 0 2.87.645 1.873-.054 2.208-1.634 4.16-1.6.23-.873-.636-.652-.646-1.28-.855-.22-.617.664-.952.945-1.572-.725-2.447-4.6-1.6-5.73-.317-.424-.864-.628-.962-1.28-.573 1.757-.74 2.984-.952 4.468-1.37.32-2.235.654-3.515.327-.398-1.74-.46-3.797-.636-5.75.37-.783 1.2.655 1.598-.315.99.572.167.97.318 2.233 1.36-.344 1.235-2.172 2.235-2.878.563.98.927.954 2.233.646.238.908 1.934 1.42.963 2.55 2.102-.05 3.93-1.49 2.553-3.195 1.34-.29 1.34-.08 2.553-.636-.11 1.174 1.833.29 1.278 1.917 3.25-2.094 2.34-9.29.644-12.45 1.422-.478 3.302.513 3.832 1.917 1.033-.716.185-3.71.636-5.112 1.44.564 3.187-.397 5.113-.318-.503.478-.364 1.42.636 1.28.157 1.007-.577 1.12-.32 2.234.54.09 1.723-1.202 2.553.317.725-.45 2.058-.282 1.917-1.598 2.12-.22 3.742-.247 5.112.636 1.077-.193.415-2.135 1.27-2.55 1.43.21 1.537 1.03 1.29 2.233.44.795 1.094.564 1.916.317.23-.98-.326-1.156-.326-1.915 1.89-.424 3.92-.416 4.16 1.6 1.228-.41 1.835.413 2.233-.956.997.222.415.848.316 1.59.286.248 1.415-.116 1.282 1.272 1.642-.097.742-1.087 1.28-1.906.672 2.524 6.03 2.287 6.702-.32 2.73-.176 4.715.4 5.43 2.227 1.27-1.39 3.347-.416 5.432-1.272v1.598c1.307-.194.646-.875.636-1.917 2.056-1.466 6.17-1.687 7.354.645.778-.734 4.105-1.166 4.786 0 1.228-.158 1.996-.778 2.233-1.917h2.562c.124 1.855-.054 3.285 2.552 3.188 1.06 0 .326-1.802.962-2.233 2.11-.3 3.25.36 3.83 1.598 1.927-2.04 6.13-.936 7.665 1.6.794.043 1.325-.17 1.598-.647.93 1.104.54 3.515 1.28 4.795-2.01.124-1.695 2.57-4.157 2.233-1.042-.342-1.29-1.473-2.235-1.914-.952.01-.404 1.51-.952 1.915-3.46.902-6.578-.51-8.626 1.282 1.624-.054 4.088 2.252 5.43.636.256 1.104-.477 1.228-.316 2.233 3.38 2.12 5.48-2.32 8.616-2.55.29.564 1.3.406.962 1.6 3.26-1.132 5.317.556 8.3.635 1.097-2.154 1.104-3.79-.316-5.43 1.44-3.313-2.12-3.34-1.6-7.347.876-.028.645.538 1.28 0-1.51-4.726-.66-10.287.964-14.367-.68-.96-1.19.918-1.925.962.14.857 1.2 1.636.324 2.553-1.642-3.7-2.47-10.578-.644-14.366-.963-.62-1.368-2.906-.318-3.833-2.684-1.457 1.114-9.898-1.597-11.505-.257-.142-.364.74-.32.97-.9.045.267-1.968-.635-1.916.716-1.208 2.104-1.74 2.552-3.195 1.114-.24 3.03.344 3.197 0 .802.256.81 1.315 1.278 1.917 3.312.406 2.05-2.87 2.234-4.15 1.016-.273.99.503 1.6.636-.336.723-1.104 1.033-.964 2.235.92-.036 1.52-.398 1.28-1.6 6.968-.618 2.745 10.33 4.47 14.057-.063 9.688.803 20.865 2.242 30.013-.743 1.44-.91 4.37.636 5.75.114.538-.248.6-.636.634 1.262.92 1.536 3.79.636 5.105.863.936 3.998-.152 3.515 2.878 1.21.14 2.27-.83 3.195 0 .39-2.375 3.303-2.464 6.703-2.878-.098 1.28-.02 2.356.644 2.878 1.235-.468 2.35-1.052 3.188-1.917 1.81-.317 1.774 1.21 2.878 1.598.566-.82 1.388-1.376 1.917-2.233.124-1.42-1.606-2.64-1.28-3.196-.31-1.156 1.38-.327 1.6-.954.255-1.11-.593-1.35 0-1.915.978 1.28 1.56.035 1.59-.963 1.26-.68 2.31-.09 4.158-.316-.285 1.773.636 2.337 1.598 2.858 1.255-.335 1.024-2.164 1.597-3.18 1.148-.616 1.177.124 2.236.32.263-.063.316-.32.642-.32-1.27-2.71 1.468-8.148-.642-9.58-.848-5.615 2.992-14.276 7.345-8.943-2.094 3.347-5.387 6.808-4.467 12.14-1.89.336-2.24 5.73 0 7.02 2.88-.943 6.562.54 7.982-.635 5.66 1.14 12.504.256 17.888.945.734.104.354-.91.955-.945 1.51-.237 2.2.354 3.515.32-.123 1.227 1.06 1.227.646 2.232 1.05-.54 2.293-.893 2.233-2.553 3.055-.55 4.174 1.253 6.708-.317.857-.222.62.65.955.952.74.098.352-.918.962-.952 3.115 3.302 8.76-1.784 11.18 1.588.645-.3.68-1.217.635-2.232 2.356-.115 1.907 2.568 4.15 2.56.212 1.157-.212 1.695-.636 2.234.025.812 1.07.628 1.917.636-.072 1.2.336 2.887-.635 3.196.05.257.315.318.315.636 1.386.106 1.677-.883 1.917-1.917 2.958-.952 5.906 1.944 7.03-1.597 1.296.785 1.533-.31 2.868-.318-.124.77.582.697.325 1.59 1.184.133.582-1.528 1.592-1.59 1.227-.16 1.02 1.112 2.56.636.265.91-.45.83-.317 1.6-.098.73.917.353.952.96 1.582-.316 2.8-2.223 3.834-.324.608-.778.688-2.075.644-3.507 1.31.796 1.27-.574 2.872-.318.44.407.192 1.503.642 1.908.513-1.006 3.154-.37 2.236-1.908 1.475.707.36 2.014.952 3.505.424-.855.77-1.782 1.28-2.55 1.086.512 2.984.21 2.88 1.914 2.72-.803.054-6.216.952-7.672.62-.98-.247-2.657-1.914-3.178 1.04-1.767.67-3.206 1.598-6.077.812 1.44.77-.335 1.914-.316-.042.795.17 1.325.636 1.6.708-.99.266-2.562.32-5.105-1.086.125-.4.856-1.59.318-.373-.38-.363-1.13-.328-1.917 2.147-1.297 9.06-2.727 9.262 1.6.98-.24 1.167.317 1.927.317 1.414-.177 1.537-1.65 3.514-1.28 2.578 4.953.114 12.582 1.917 18.842 1.095 1.13 2.84 1.617 3.186 3.505 1.3 1.237 3.224 1.37 2.243 4.15-.37-.696-1.104-1.023-1.924-1.27-.655.088-.637.847-.956 1.27-.97-1.297-3.61-1.27-3.83.646-1.307.15.01-.804 0-1.28-.77-.733-1.934-.053-2.563.318.09 2.366 2.616 2.287 3.515 3.83 1.873-.917 3.455-.59 6.077-1.27-.23 1.395.167 2.173.952 2.553.725-.354 1.404-.725 1.917-1.28.566.078.734.546.646 1.28 1.968-.09 2.278-.23 4.15 0 1.396-2.613 3.397-4.53 6.374-3.197-.483 1.51-.636 1.96.655 2.88-.196-1.043 1.42-1.58 2.55-.645.708-.256 1.28-.636 1.28-1.59.75-.01.937.538 1.917.318-.493 1.703-1.818 3.682-.962 5.747 2.136.09-.585-2.7 1.914-2.242-.08-2.13.797-2.65.646-4.15.955-.424 1.695-1.06 3.188-.954.272.688.83 1.087.646 2.235.212.423.68.59 1.27.635.82-.036 1.244-.46 1.28-1.27 2.693.122 6.376 1.375 5.746-1.6 2.04.432 3.173.387 4.796 1.6-.1.643-.864.625-.962 1.27.513 1.19 2.347 1.455 3.194.644-1.145-.68-.51-1.176-1.27-2.235 1.68-.67 2.508-.405 4.785-.645-.08 1.255.31 2.03.965 2.552.82-.617 2.02-1.235 1.27-2.552 1.43-.273 2.623-.785 4.157-.953.152 1.218-.095 2.04-.642 2.553.085.65 1.4.09 1.598.636 1.12-.478.184-3.002 1.28-3.507 2.076.52 2.384 1.147 4.142 1.59-.433.413-.187 1.508-.626 1.916.908 1.28 2.54.016 3.83.644.317-1.067-.442-1.052-1.28-.963.32-.848 1.29-1.05 1.917-1.598.917.512 2.49 1.138 2.878-.32.78.205.17 1.616-.644 1.28.866.434 1.246 1.124 2.242.637.212-.61.646-.863.32-2.233.686.582 1.606.945 1.913 1.917.39-.142.656-.415.637-.954 3.895 1.502 6.12-2.578 10.227-.645.557-.29.582-1.12.952-1.598 1.475 1 2.49-.547 4.48-.316v.962c.694-.742 1.05-.522 1.913 0 .372-.054.265-.582.318-.962 1.12.785 4.12-.283 3.83 1.915 1.468-4.863 6.73-.89 11.5-2.87.403 1.3 1.517 1.883 2.558 2.554-.345.917-.97 1.06-1.917.636v6.392c-.81.035-1.643.053-1.6.944-1.163-3.23.37-7.222-2.23-8.926-.982.786-.258 1.29-.656 2.552-.687.662-2.913 1.06-3.18-.316-.73.432.514 1.588.956 1.915-4.628 2.694-13.767.884-18.533 4.15.478 1.467-.202 1.112-.626 2.235.352 1.218 1.148 3.047-.645 3.515.74.39 1.686.316 1.917 2.553.66-.098.642-.857.96-1.29.603.37 1.538.39 1.282 1.606-1.024-.07-1.424.732-3.198.635.538-1.923-1.774-3.188-2.233-5.103.873-.08.725-1.192 1.272-1.6.528-4.733-6.12-4.654-7.35-2.243.18-.345.124 4.28.32 6.065.212 1.898 1.237 4.214.646 7.03.22.635.85.856 1.6.96.112 2.455-1.264 3.515.95 4.47.276 1.025-.502.987-.635 1.598.876.3 1.132 1.208 1.917 1.598 2.474-.078 2.33-2.79 2.87-4.795.865-.218.62.665.954.965.636-.22.857-.857.962-1.6-.178-.785-.267-1.643-1.272-1.598 1.326-1.04-.148-2.445 0-4.15.813.15 1.29.626 1.598 1.28.743-.527.822-1.74 1.27-2.552 1.08 1.306-.862 2.306-.315 4.15-.566.284-.813.892-1.918.635.257 1.193 1.123.02 1.598.637-.45 2.686-.572 5.28 1.6 6.066.652-.3 1.52-.398 1.6-1.29 1.862.417 3.82.892 6.062 2.252.33-.952.778-1.774.965-2.88 2.604-.37 2.815 1.652 4.14 2.563.267-.073.327-.335.647-.335.29-1.09.77-1.996 1.598-2.544 1.52 1.104 2.48 1.066 4.467 1.914.84-.547.885-1.89 1.925-2.233.66.557.937.725 1.917.32.016 1.147 1.234 1.103 1.598 1.913.945-.44 1.794-.97 1.917-2.233 2.02 1.218 2.356-.167 4.467-.316 1.837 6.25-2.588 11.548-4.15 17.242-2.1.266-1.774 1.39-2.88 2.236-2.365-.398-3.858-1.69-5.11-3.198-2.48.955-2.588 3.628-6.067 2.233-.37-.468-.37-.804 0-1.27-1.923 1.378-4.22 2.374-5.748 4.15-.734-.884-.415-2.782-1.598-3.196-.354 1.404-1.256 4.59-4.47 4.15-.114-1.512-1.21-.045-1.598-1.28-5.19 4.987-13.146 3.494-19.488 5.737-.465-.263-1.016-.47-.962-1.263-3.523 1.036-7.133 1.07-10.86 1.264.558-1.49-.274-1.854-.954-2.88-1.11.365-2.382.902-1.598 2.253-1.04-.123-.99-1.35-1.598-1.916-1.502.965-1.97-1.464-3.834-.335-.892.3-1.06 1.3-1.27 2.252-1.607.522-2.993-.183-3.515-1.597-2.718 1.632-7.962.838-11.82.96-.814-.783.67-.68.315-1.916-2.88.99-6.693 2.42-8.3-.642-2.03.025-1.643.873-1.914 2.242-2.49.168-1.725-1.97-1.917-3.197-1.98 1.132-3.975.054-5.433 2.553-1.52-.282-2.755-.725-3.83-.655-.566.1-.734.566-.646 1.3-2.4.352-2.858-.38-4.466-1.3-1.424 1.478-3.913 1.863-5.75 2.88-.997-.264-2.48-1.21-2.56.653-.557.178-1.873-.39-1.917.316-.054-.687.15-.996-.316-1.913-1.265-.424-.777 1.155-1.6.316-.892.31.468.84-.316 1.28-1.44-1.305-2.933 1.634-5.432 1.272-.537-1.06-1.755-1.43-1.28-3.505-1.904.212-.775 1.702-1.598 3.18-1.28-.408-.775-.62-1.914 0-.442-.398-.133-1.557-.955-1.6-.927.29-.36.486-.316 1.29-2.898-.734-4.012.65-7.03.635-.76-.945-1.404-1.995-3.197-1.926-.054.708.266 1.016.962.97-.425.843-1.05.98-1.914.63.696-.663.06-1.423-.328-1.916-1.677 1.606-5.507-1.202-7.345.65-3.224-.828-5.57-2.523-9.263-2.877-.496-2.058-3.056-2.048-5.747-1.915.46-1.59.263-1.016-.955-.636v-1.918c-2.164-.158-3.85 1.095-6.073.952-2.114-.13-3.747-1.52-5.752-1.588-2.948-.104-6.596 2.508-8.617-.646-1.56.61-2.197.592-3.513-.316-1.035 1.316-3.338 1.342-5.112 1.917-.848-.22-.68-1.457-1.598-1.6-.468.285-1.236.256-.964 1.28-.37-.477-1.322-.38-1.272-1.28-.615.028-.217 1.06-.96.965-.566-.39-1.854-.063-2.233-.646-2.958 2.726-7.956-.84-11.188 1.597-5.882-.316-8.617 5.103-13.404 3.495-2.453 1.828-5.952 2.588-7.672 5.12-2.834-.597-4.248-.043-6.074 1.602.123-1.335-1.033-.23-1.59-.32-.237-1.817-1.836-.68-2.553-1.597-.432.104-.265.794-.316 1.28-1.818-.22-2.62.574-4.158.637-.247-.284-.346-.715-.318-1.28-1.19-.336-.503 1.2-1.6.96-.36-.378-.36-1.138-.315-1.922-1.185.458.272 2.135-1.918 1.923.9-1.183 1.07-2.515-.646-3.188-1.42.02-.396.718-.952 1.266-.97.025-1.246-.664-1.917-.946-.848.646-2.083.893-2.233 2.224-2.666.213-3.364-1.526-4.15-3.193-2.03.66-2.905.493-4.16 1.917-1.074.025-1.385-.734-1.914-1.266-.91.257-.495 1.838-1.916 1.59.3-1.64-.68-2.055-1.917-2.867-.892.168-1.66.47-2.552.627.17-.46.468-.804.636-1.263-1.395.237-.537.873-1.28 1.914-2.806-.89-3.733 3.005-6.7.636-.325.206-.335.734-.96.63 1.074-1.73-.824-2.907-1.6-3.824-.205 2.135-2.44 2.224-3.188 3.824-1.528-.77-3.727-1.44-5.432-.31-.547.838-.424 2.34-2.243 1.916-.873-.77-.088-1.768-.636-3.207-2.85.15-2.507 1.996-3.195 3.843-1.518.257-2.95-1.404-3.187.316-.875-.29.44-.996 0-1.917-1.025.045-1.414.725-1.28 1.917h-3.832c-.17-1.44-2.13-1.07-1.917-2.87-1.035-.068-.778 1.14-1.28 1.59-4.187-.387-8.522-.637-10.544-3.195-2.93.582-4.856-.196-7.03-1.598-1.198.122-1.833 2.01-3.186.97-.432-1.404.76-1.157.954-1.936-.405-.848-.997-1.534-1.28-2.533-1.042.33-1.404.966-2.234 0-.468.275-1.006.48-.952 1.272.272.478.804.67 1.598.646.23.97-.557.936-.328 1.916-1.51-.557-1.555.035-2.87.316.187-1.04-.22-1.483-.317-2.232-1.27 2.686-3.31 1.33-6.074 2.232-.6-.803.264-1.252-.318-2.232-1.562-.66-3.18 1.483-3.515 0-2.755 1.12-4.017 1.625-7.346 1.916-.362-2.562-4.193-1.642-4.468.316-.698.054-.15-1.14-.32-1.616-.59.39-1.085.842-1.598 1.3-.723-.67-1.14-1.635-1.597-2.562-1.81 1.44-3.32 1.395-5.112 2.562-.6-.565.38-.936-.318-1.6-.565-.193-1.88.382-1.916-.316-.41.76-1.405.936-1.282 2.232-.406-.45-1.51-.192-1.917-.65-.9.616-.803 2.745-1.915 2.248-.865-.297.848-.598.318-1.598-1.404-.45-.865 1.05-.954 1.917-1.458.778-2.88 1.588-4.48 2.224.4-.88-1.03-.88-.635 0-.528-.74-.37-2.178-1.28-2.542-1.183.294-.882 2.094-2.235 2.228.734-.7-.08-1.272-.96-1.272-.662.187.467 1.21.325 1.917-1.49-.707-2.534-.61-3.514-1.28-1.234-.274-.518 1.386-1.913.952.203 1.725.158 2.35.316 4.48-1.04-.24-.97-1.583-1.597-2.237-1.262.335-1.06 2.14-2.88 1.917-1.157.31-.265-1.44-1.27-1.28-.266.053-.318.328-.645.31-.404.088-.414.96 0 .97-.89 1.38-2.506.07-2.868-.97-.715.062.414.812 0 1.606-1.193-.335-.91.794-1.917.636.088-.52-.3-.547-.316-.952-.938-.082-.99.715-1.918.636-5.042-3.224-13.183 1.766-16.936-2.236-.75-.006-.936.557-1.915.31-.43.114-.263.813-.317 1.29-2.772-.53-7.91-.97-7.347 2.88 1.387-.063.583-.557.636-1.6 2.86.432 3.894 1.378 4.794 4.148-1.465-.133-3.143-.66-4.466 0 .335-2.046-1.563-1.844-2.243-2.878-1.202.6-.98 2.5-.636 3.834-.61.133-.802.68-1.598.645.82-1.703.397-2.305 0-4.148 1.21-.408 2.48-.72 2.878-1.927-.698-.696-1.952-.812-2.56-1.588-6.5.484-10.357 5.792-16.61 3.515.168-.266.335-.522.318-.965-3.69.044-7.275 1.167-8.936-2.233 2.154.15 3.505-.054 6.067.636.818-.025.51-1.183.95-1.607 1.927.425 3.445.31 4.48.972 1.766-1.113 3.67-1.493 4.783-2.56 1.007-.142.9.81 1.28 1.278 1.475-.228 1.67-1.74 2.562-2.55 8.24-.69 12.99-2.296 22.356-1.606.637.942 1.592 1.164 2.236.325 2.18.908 4.124 2.057 6.385 2.88.645-.637 1.263-1.298 2.56-1.282.75 1.43 1.503.883 2.553 1.907 1.297-.08 1.757-1.006 3.515-.626v1.6h1.28c-.062-2.826-3.577-2.19-4.795-3.84-.414.314-1.173.314-1.597.644-3.214-1.996-8.416-2.015-11.18-4.47-13.228-.36-26.603.487-38.965 5.74-3.717-4.39-1.924-13.192-1.915-18.196-1.803 1.02-3.7-.557-6.067.642-.998-1.657 1.21-4.018-.326-4.792 3.69-2.243 6.975.996 8.944 2.56 2.366-3.62 10.243-.203 8.944-6.72.91-4.115.063-9.907 0-14.993.443-.636 1.96-.178 2.56-.646-.53 1.103 2.005 1.502 2.552 2.552.212-1.164-.688-1.218-.636-2.224.795-.054.99.493 1.6.636-.237-2.055 1.07-2.567 1.264-4.165zm403.743 29.376c-.063-.9-.557-1.36-1.598-1.28-.044 1.005.82 1.093 1.598 1.28zm-1.927-12.15c1.184.695 1.45-1.617.33-1.266.068.6-.364.71-.33 1.266zm-13.73 14.7c.134-1.616-2.073-.838-2.23 0h2.23zm-2.23-9.898c.068 1.686 1.444.39 2.23.955-.194-1.562-1.077-.477-2.23-.955zm-10.864 12.767c-.246-.08-.37-.263-.316-.633h-1.28v1.278c.793.044 1.33-.168 1.596-.645zm-4.466 3.18c0-.617.854-.387.636-1.263-.408-.016-.443-.405-.955-.316-.168.82-.425 1.12.32 1.578zm-3.198-19.152c0-.626.876-.398.636-1.262-.9.264-.82-.45-1.588-.334.104.76.326 1.376.952 1.597zm-2.55-25.21v-.96c-.61-.072-.708.36-1.28.316-.32.943.713.564 1.28.643zm-1.28 29.05c.113-1.103-1.503-1.33-1.918-.96-.01.97 1.123.803 1.917.96zm-.637 3.835c-.413-1.256-2.103-1.123-1.916.636.813-.03 1.518-.178 1.917-.636zm-7.347-31.622c.212-1.068-.538-1.174-1.278-1.263.035.813.468 1.237 1.278 1.263zm-11.185 32.574c1.14.246 3.07.848 2.88-.952-1.48-.212-2.308.246-2.88.952zm-14.048-2.553c.307-1.278-1.907-1.278-1.6 0 .796-.045.99-.59 1.6 0zm-7.35-42.463c1.15.09 2.21.08 1.918-1.28-1.192-.122-1.872.257-1.917 1.28zm-1.915 45.977c.02-.96-.943-1.62-1.598-.96-.148 1.006.68 1.025 1.598.96zm-9.588-5.1c.493-.46.316-1.672-.636-1.608-.043.794-.062 1.553.637 1.607zm-.32-53.324c-.006-.44.152-.707.32-.964-.75-.404-.592.045-1.588-.316-.084.6.35.706.315 1.28h.953zm-5.757 58.425c.24-1.197-.35-1.552-1.262-1.597-.414.425-.414 1.184 0 1.598h1.262zm-8.933-31.936c.06-.91.044-1.73-.955-1.598-.512.513.152 1.475.955 1.598zm-1.6-.945c.15-1.008-.272-1.432-1.27-1.282.036.813.46 1.237 1.27 1.28zm0 40.23c.187-1.607-1.695-1.52-1.923-.32.38.364 1.14.364 1.923.32zm-37.684-37.362c.28.778.28 1.848 1.27 1.917-.115-.945-.545-1.572-1.27-1.917zm-9.58 27.78c-.273 1.04.536 2.623 1.27 1.598-.705-.257-.414-1.5-1.27-1.598zm-2.244-42.463c.502-1.448-1.37-2.137-1.6-.962.575.283.416 1.297 1.6.962zM262.88 99.49c-1.414.238-2.72-1.074-2.562.972 1.385.212 1.977-.37 2.562-.97zm-19.488-33.2c-.098-.73.928-.352.962-.95-.6-.257-1.173-.532-1.917-.637.106.74.327 1.368.954 1.588zm-9.58 45.025c-1.23-1.3-2.78-.24-4.15-.636-.238.862.626.645.635 1.27 1.305-.072 2.612-.15 3.513-.635zm-8.945-4.786c.078-1.045-.382-1.538-1.28-1.6-.133.6-.91.574-.636 1.6h1.915zM209.857 6.91c-.414 2.04 2.33 2.375 2.87.946-.82-.443-1.995-.547-2.87-.946zm-31.63 51.08c-.783-.626-2.4-.044-2.55.964 1.14-.036 2.19-.15 2.55-.964zm-1.27 7.348v-1.28h-.962c-.09.837-.106 1.597.962 1.28zm-2.88 44.06c-.37-.266-.854-.424-1.597-.316-.44 1.553 1.44.89 1.6.316zm-4.148-57.155c-.194 1.016 2.366 2.065 2.233.962-.547-.52-1.165-.972-2.233-.962zm-10.86 63.53c.21-1.352-.857-2.49-1.598-1.915.264.917.724 1.633 1.597 1.914zm-4.477-7.646c-.143-.617.44-1.924-.636-1.598-.68.645-.167 1.518.636 1.597zm-15.33-7.03c.098-.837-.442-1.06-1.28-.95.027.847.734 1.527 1.28.95zm-3.83-46.612c.722.09 1.2-.08 1.278-.645-.43-.096-.608-.45-1.278-.316v.96zm-9.58 50.763c-.63.592-.188 1.537.95 1.28-.13-.61-.113-1.378-.95-1.28zm-1.282-39.274h-.953c.07.607-.362.705-.327 1.28 1.08.22 1.175-.547 1.28-1.28zm-1.28 45.022c1.582.072 1.06-.46.963-1.598h-.963v1.598zm-9.262-5.112c1.104-.715 1.996-.187 2.88-.636-.982-.857-1.6-.09-2.88-.636v1.272zm-.316-22.03c-.61-.132-.804-.688-1.6-.635-.406.413-.406 1.172 0 1.597.822-.035 1.122-.59 1.6-.962zm-11.815 27.46c.696.45 1.71.98 2.233 0-.574 0-1.863-.856-2.233 0zM91.354 80.658c.273-.794.415-1.705-.963-1.588.045.81.063 1.64.964 1.587zm-5.43 24.59c.274.302 2.04.682 2.234 0-.93-.246-.83-1.508-2.235-1.28v1.28zM80.81 73.955c.107-.74-.053-1.227-.317-1.59-.9-.264-.83.45-1.6.31-.103 1.176 1.17.964 1.918 1.28zm-2.232 26.192c-.036-.822-.468-1.246-1.28-1.28.043.802.467 1.226 1.28 1.28zM75.38 70.122c.098-.75 1.113-.592.963-1.59-.476.055-1.183-.122-1.28.302 1.12.106-.575 1.43.317 1.288zm-3.195 35.762c.104-.733-.044-1.218-.32-1.588-.775.168-1.642.263-1.597 1.27.653.644.626-.15 1.28-.318.036.38.098.76.637.636zm-7.35-7.02c.25-1.315-1.084-2.015-1.914-1.28.098.96 1.362 1.75 1.916 1.28zm-1.914 8.3c-.007-.44.15-.698.328-.954-.724-.68-2.11-.228-2.243.636.76-.01.945.54 1.916.32zm-.952-9.26c-.45-.083-.36-.7-.636-.956-.908.256-1.625.715-1.923 1.597.97-.104 2.488.354 2.558-.642zm-17.253 6.708c1.235.247 1.235-1.537 0-1.28.035.866-.53.645 0 1.28zm-3.834 1.917c.346-1.494-1.42-1.937-1.914-1.6-.07 1.245 1.193 1.157 1.915 1.6zm-3.83 5.102c.194-1.455-.714-1.307-1.598-.952-.043.882.786.917 1.6.952zm0-12.767c-.034-.813-.457-1.237-1.27-1.28-.415 1.26.872.83 1.27 1.28z"/><path d="M37.367 132.392c-.696-3.11 1.096-4.337 3.514-5.11.197 1.482 1.583-.09 2.244.635.15-1.01-.582-1.123-.326-2.236.742.23.823 2.775 1.598 1.918.46.39.61 1.085.645 1.917-1.217.256-.98-.937-1.916-.956-2.356.836-3.328 3.053-5.757 3.832zM35.452 130.475c.644 2.89-3.408 5.27-4.468 2.553 1.21-1.132 2.375-2.306 4.468-2.553zM30.667 73.638c-1.335.66-2.74.405-3.834.627-.784-.706-2.472-1.828-1.915-2.87 1.74 1.582 5.81-1.13 5.75 2.243zM29.068 132.072c-.628.54-1.36.972-1.6 1.917-.483-.257-2.25-1.8-1.914 0-1.264-.336-.195-2.086 0-2.88.663-.187 2.102.4 2.235-.316.562.29.527 1.174 1.278 1.278zM23.32 132.072c-1.537 1.016-1.793 3.312-4.16 3.505-1.022-1.977 1.847-1.977 1.926-3.84.653.202 2.093-.39 2.233.335zM20.125 123.446c-.646-.104-1 .063-.963.636-1.757-.424-2.428.054-4.468 0 .882-2.243 3.965-2.71 5.43-1.907v1.27zM11.814 126.01c-4.53-1.662-7.17.536-11.814 0 3.002-3.5 9.572-.39 12.46-3.835.794-.054.988.493 1.598.636-.222.627-.857.85-1.598.956.415 1.41-.02 1.312-.646 2.243z"/></g><path fill="#FED100" d="M226.773 88.303c-1.048.946.638 2.464-.634 4.153-1.75-.715-2.11.81-2.88 1.917-1.37-.23-.54-2.66-1.28-3.515-3.214.687-5.73 2.136-9.9 2.55v1.598c-1.94.345-2.054-1.136-1.915-2.88-2.09-1.817-5.216.42-6.712 1.282-.156-.784-.342-1.527-1.27-2.233-1.37 1.51-2.754 3.002-4.795 3.83-1.774-1.324.054-2.7-1.917-3.194-.015 1.643-.758 1.846-1.596 3.196-1.182-2.18-3.224-1.623-4.467-3.515-.566.292-.937.77-1.6.966.284.934.284.978 0 1.917-1.246-.62-1.844-1.335-3.196-.33-.21-1.862-3.193-.043-3.513.963-.706.17-1.766-1.607-1.917 0-1.174-.212-1.677-1.095-1.914-2.233-.866.405-1.608.945-1.6 2.233-2.437-.364-3.77-.37-4.793-3.195.925-.92 1.006.628 2.242.317.457-.054-.205-2.05 1.272-1.907.476-1.863-.99-1.78-.636-3.515 1.272.23 1.28.23 2.55 0 .56.655-.237.63.33 1.275.75-.102.183-1.513 1.27-1.275.37 1.65.538 3.505 1.278 4.786.503.026 1.218-.147 1.28.32.956-1.27 2.995-1.474 4.47-2.236-.522 1.095.034.965.633 1.6.16 1.007-.57 1.13-.314 2.234.325-1.65 1.51-.46 1.916-1.917-.202-.95-.68.312-1.27 0 .228-.936.988-1.34 2.232-1.27-.66-1.278-.098-2.727 0-4.156 1.74-.035 2.103 1.307 3.196 1.917-.01 1.5-.283 3.265 1.27 3.195.71-.575.7-1.863 1.282-2.553 1.72 1.275 3.188 1.297 5.114 1.917.396-2.085 2.047-2.076 1.597-4.796 2.022 1.21 2.11-.09 4.15.96.397 1.036-1.033.24-.637 1.276.885.633 4.24 2.145 4.47-.323.31.013.245.402.314.646.1.437.806.27 1.28.32v1.274c1.917-.216 2.81-1.408 2.554-4.47h1.6c.184 1.04-.214 1.48-.32 2.23.99.037.91-1.004 2.235-.634-.1.74.053 1.228.315 1.598 1.133.17 1.406-.518 1.917-.964 1.034-.28.45 1.044.963 1.284 1.264-.882 2.473-.225 3.196-1.917 1.036-.398.238 1.035 1.272.633.434-.307.415-1.075.964-1.27 1.793-.334 2.055 1.213 3.516.317.534.744 1.197 1.354 1.595 2.236.69.053.142-1.133.317-1.602 1.3 1.04 2.534 2.148 3.832 3.198 1.326-.452-.098-1.65.636-2.56 1.194.08.902 1.14.646 1.918 1.455-1.114.918-2.42 2.87-3.192.81 1.316 1.597 1.23 2.56 1.917 1.212-.282 1.212-1.775 3.188-1.282.76-.28-.732-1.78.964-1.597.6.61.033.804 0 1.598.457.852 2.056.168 1.915-.636.156.778 1.42 2.085 1.917.636.917 1.563 2.436 3.755 1.915 5.75-1.034-.495-2.23-1.296-3.515-.635 1.37-1.36-.882-.965-.636-2.882-2.138 1.706-3.618.365-6.066 1.285-.1-.52.304-.55.32-.96-.922-.067-1.627.074-1.918.64 1.095 1.07.098 3.063-.965 3.835-1.427-.313-1.386-1.803-3.195-.965.124-2.09-5.798-3.145-5.747-.316-.626-.44-.554-2.544-1.598-1.602-.075-.367.94-2.75-.634-3.185z"/></svg>