<svg xmlns="http://www.w3.org/2000/svg" width="505" height="137"><g fill="#FED100"><path d="M45.828 58.178h6.1v6.1h-6.1zM53.1 58.178h6.1v6.1h-6.1zM67.646 58.178h6.1v6.1h-6.1zM82.19 58.178h6.1v6.1h-6.1zM96.734 58.178h6.1v6.1h-6.1zM111.277 58.178h6.102v6.1h-6.103zM125.822 58.178h6.1v6.1h-6.1zM140.366 58.178h6.1v6.1h-6.1zM154.91 58.178h6.1v6.1h-6.1zM169.455 58.178h6.1v6.1h-6.1zM184 58.178h6.1v6.1H184zM198.543 58.178h6.102v6.1h-6.102zM213.088 58.178h6.1v6.1h-6.1zM227.632 58.178h6.1v6.1h-6.1zM271.264 58.178h6.104v6.1h-6.104zM285.81 58.178h6.1v6.1h-6.1zM300.354 58.178h6.1v6.1h-6.1zM314.898 58.178h6.1v6.1h-6.1zM329.443 58.178h6.102v6.1h-6.102zM343.986 58.178h6.104v6.1h-6.104zM358.53 58.178h6.1v6.1h-6.1zM373.076 58.178h6.1v6.1h-6.1zM380.346 58.178h6.104v6.1h-6.104zM394.89 58.178h6.1v6.1h-6.1zM409.438 58.178h6.098v6.1h-6.098zM423.98 58.178h6.102v6.1h-6.102zM438.525 58.178h6.102v6.1h-6.102zM445.797 58.178h6.1v6.1h-6.1zM53.1 65.447h6.1v6.1h-6.1zM60.373 65.447h6.1v6.1h-6.1zM67.646 65.447h6.1v6.1h-6.1zM74.917 65.447h6.102v6.1h-6.103zM82.19 65.447h6.1v6.1h-6.1zM89.46 65.447h6.102v6.1h-6.1zM96.734 65.447h6.1v6.1h-6.1zM104.006 65.447h6.1v6.1h-6.1zM111.277 65.447h6.102v6.1h-6.103zM118.55 65.447h6.1v6.1h-6.1zM125.822 65.447h6.1v6.1h-6.1zM133.094 65.447h6.1v6.1h-6.1zM140.366 65.447h6.1v6.1h-6.1zM147.638 65.447h6.102v6.1h-6.102zM154.91 65.447h6.1v6.1h-6.1zM162.183 65.447h6.1v6.1h-6.1zM169.455 65.447h6.1v6.1h-6.1zM176.726 65.447h6.102v6.1h-6.102zM184 65.447h6.1v6.1H184zM191.27 65.447h6.102v6.1h-6.1zM198.543 65.447h6.102v6.1h-6.102zM205.814 65.447h6.103v6.1h-6.103zM213.088 65.447h6.1v6.1h-6.1zM220.36 65.447h6.1v6.1h-6.1zM227.632 65.447h6.1v6.1h-6.1zM234.905 65.447h6.102v6.1h-6.102zM263.992 65.447h6.102v6.1h-6.102zM271.264 65.447h6.104v6.1h-6.104zM278.54 65.447h6.1v6.1h-6.1zM285.81 65.447h6.1v6.1h-6.1zM293.084 65.447h6.1v6.1h-6.1zM300.354 65.447h6.1v6.1h-6.1zM307.625 65.447h6.104v6.1h-6.105zM314.898 65.447h6.1v6.1h-6.1zM322.17 65.447h6.1v6.1h-6.1zM329.443 65.447h6.102v6.1h-6.102zM336.715 65.447h6.1v6.1h-6.1zM343.986 65.447h6.104v6.1h-6.104zM351.26 65.447h6.1v6.1h-6.1zM358.53 65.447h6.1v6.1h-6.1zM365.805 65.447h6.1v6.1h-6.1zM373.076 65.447h6.1v6.1h-6.1zM380.346 65.447h6.104v6.1h-6.104zM387.62 65.447h6.1v6.1h-6.1zM394.89 65.447h6.1v6.1h-6.1zM402.166 65.447h6.1v6.1h-6.1zM409.438 65.447h6.098v6.1h-6.098zM416.71 65.447h6.097v6.1h-6.096zM423.98 65.447h6.102v6.1h-6.102zM431.252 65.447h6.1v6.1h-6.1zM53.1 72.722h6.1v6.102h-6.1zM67.646 72.722h6.1v6.102h-6.1zM82.19 72.722h6.1v6.102h-6.1zM96.734 72.722h6.1v6.102h-6.1zM111.277 72.722h6.102v6.102h-6.103zM125.822 72.722h6.1v6.102h-6.1zM140.366 72.722h6.1v6.102h-6.1zM147.638 72.722h6.102v6.102h-6.102zM154.91 72.722h6.1v6.102h-6.1zM162.183 72.722h6.1v6.102h-6.1zM169.455 72.722h6.1v6.102h-6.1zM176.726 72.722h6.102v6.102h-6.102zM184 72.722h6.1v6.102H184zM191.27 72.722h6.102v6.102h-6.1zM198.543 72.722h6.102v6.102h-6.102zM205.814 72.722h6.103v6.102h-6.103zM213.088 72.722h6.1v6.102h-6.1zM220.36 72.722h6.1v6.102h-6.1zM227.632 72.722h6.1v6.102h-6.1zM234.905 72.722h6.102v6.102h-6.102zM263.992 72.722h6.102v6.102h-6.102zM271.264 72.722h6.104v6.102h-6.104zM278.54 72.722h6.1v6.102h-6.1zM285.81 72.722h6.1v6.102h-6.1zM293.084 72.722h6.1v6.102h-6.1zM300.354 72.722h6.1v6.102h-6.1zM307.625 72.722h6.104v6.102h-6.105zM314.898 72.722h6.1v6.102h-6.1zM322.17 72.722h6.1v6.102h-6.1zM329.443 72.722h6.102v6.102h-6.102zM336.715 72.722h6.1v6.102h-6.1zM343.986 72.722h6.104v6.102h-6.104zM351.26 72.722h6.1v6.102h-6.1zM358.53 72.722h6.1v6.102h-6.1zM365.805 72.722h6.1v6.102h-6.1zM373.076 72.722h6.1v6.102h-6.1zM380.346 72.722h6.104v6.102h-6.104zM394.89 72.722h6.1v6.102h-6.1zM409.438 72.722h6.098v6.102h-6.098zM423.98 72.722h6.102v6.102h-6.102zM53.1 79.994h6.1v6.1h-6.1zM67.646 79.994h6.1v6.1h-6.1zM82.19 79.994h6.1v6.1h-6.1zM96.734 79.994h6.1v6.1h-6.1zM111.277 79.994h6.102v6.1h-6.103zM125.822 79.994h6.1v6.1h-6.1zM140.366 79.994h6.1v6.1h-6.1zM154.91 79.994h6.1v6.1h-6.1zM169.455 79.994h6.1v6.1h-6.1zM184 79.994h6.1v6.1H184zM198.543 79.994h6.102v6.1h-6.102zM213.088 79.994h6.1v6.1h-6.1zM227.632 79.994h6.1v6.1h-6.1zM271.264 79.994h6.104v6.1h-6.104zM285.81 79.994h6.1v6.1h-6.1zM300.354 79.994h6.1v6.1h-6.1zM314.898 79.994h6.1v6.1h-6.1zM329.443 79.994h6.102v6.1h-6.102zM343.986 79.994h6.104v6.1h-6.104zM358.53 79.994h6.1v6.1h-6.1zM373.076 79.994h6.1v6.1h-6.1zM380.346 79.994h6.104v6.1h-6.104zM387.62 79.994h6.1v6.1h-6.1zM394.89 79.994h6.1v6.1h-6.1zM402.166 79.994h6.1v6.1h-6.1zM409.438 79.994h6.098v6.1h-6.098zM416.71 79.994h6.097v6.1h-6.096zM423.98 79.994h6.102v6.1h-6.102zM438.525 79.994h6.102v6.1h-6.102zM45.828 87.27h6.1v6.096h-6.1zM38.556 87.27h6.102v6.096h-6.102zM53.1 87.27h6.1v6.096h-6.1zM60.373 87.27h6.1v6.096h-6.1zM67.646 87.27h6.1v6.096h-6.1zM74.917 87.27h6.102v6.096h-6.103zM82.19 87.27h6.1v6.096h-6.1zM89.46 87.27h6.102v6.096h-6.1zM96.734 87.27h6.1v6.096h-6.1zM104.006 87.27h6.1v6.096h-6.1zM111.277 87.27h6.102v6.096h-6.103zM118.55 87.27h6.1v6.096h-6.1zM125.822 87.27h6.1v6.096h-6.1zM133.094 87.27h6.1v6.096h-6.1zM140.366 87.27h6.1v6.096h-6.1zM147.638 87.27h6.102v6.096h-6.102zM154.91 87.27h6.1v6.096h-6.1zM162.183 87.27h6.1v6.096h-6.1zM169.455 87.27h6.1v6.096h-6.1zM176.726 87.27h6.102v6.096h-6.102zM184 87.27h6.1v6.096H184zM191.27 87.27h6.102v6.096h-6.1zM198.543 87.27h6.102v6.096h-6.102zM205.814 87.27h6.103v6.096h-6.103zM213.088 87.27h6.1v6.096h-6.1zM220.36 87.27h6.1v6.096h-6.1zM227.632 87.27h6.1v6.096h-6.1zM234.905 87.27h6.102v6.096h-6.102zM263.992 87.27h6.102v6.096h-6.102zM271.264 87.27h6.104v6.096h-6.104zM278.54 87.27h6.1v6.096h-6.1zM285.81 87.27h6.1v6.096h-6.1zM293.084 87.27h6.1v6.096h-6.1zM300.354 87.27h6.1v6.096h-6.1zM307.625 87.27h6.104v6.096h-6.105zM314.898 87.27h6.1v6.096h-6.1zM322.17 87.27h6.1v6.096h-6.1zM329.443 87.27h6.102v6.096h-6.102zM336.715 87.27h6.1v6.096h-6.1zM343.986 87.27h6.104v6.096h-6.104zM351.26 87.27h6.1v6.096h-6.1zM358.53 87.27h6.1v6.096h-6.1zM365.805 87.27h6.1v6.096h-6.1zM373.076 87.27h6.1v6.096h-6.1zM380.346 87.27h6.104v6.096h-6.104zM394.89 87.27h6.1v6.096h-6.1zM409.438 87.27h6.098v6.096h-6.098zM423.98 87.27h6.102v6.096h-6.102zM431.252 87.27h6.1v6.096h-6.1zM438.525 87.27h6.102v6.096h-6.102zM445.797 87.27h6.1v6.096h-6.1zM453.07 87.27h6.1v6.096h-6.1zM45.828 94.54h6.1v6.1h-6.1zM38.556 94.54h6.102v6.1h-6.102zM53.1 94.54h6.1v6.1h-6.1zM60.373 94.54h6.1v6.1h-6.1zM67.646 94.54h6.1v6.1h-6.1zM74.917 94.54h6.102v6.1h-6.103zM82.19 94.54h6.1v6.1h-6.1zM89.46 94.54h6.102v6.1h-6.1zM96.734 94.54h6.1v6.1h-6.1zM104.006 94.54h6.1v6.1h-6.1zM111.277 94.54h6.102v6.1h-6.103zM118.55 94.54h6.1v6.1h-6.1zM125.822 94.54h6.1v6.1h-6.1zM133.094 94.54h6.1v6.1h-6.1zM140.366 94.54h6.1v6.1h-6.1zM147.638 94.54h6.102v6.1h-6.102zM154.91 94.54h6.1v6.1h-6.1zM162.183 94.54h6.1v6.1h-6.1zM169.455 94.54h6.1v6.1h-6.1zM176.726 94.54h6.102v6.1h-6.102zM184 94.54h6.1v6.1H184zM191.27 94.54h6.102v6.1h-6.1zM198.543 94.54h6.102v6.1h-6.102zM205.814 94.54h6.103v6.1h-6.103zM213.088 94.54h6.1v6.1h-6.1zM220.36 94.54h6.1v6.1h-6.1zM227.632 94.54h6.1v6.1h-6.1zM234.905 94.54h6.102v6.1h-6.102zM263.992 94.54h6.102v6.1h-6.102zM271.264 94.54h6.104v6.1h-6.104zM278.54 94.54h6.1v6.1h-6.1zM285.81 94.54h6.1v6.1h-6.1zM293.084 94.54h6.1v6.1h-6.1zM300.354 94.54h6.1v6.1h-6.1zM307.625 94.54h6.104v6.1h-6.105zM314.898 94.54h6.1v6.1h-6.1zM322.17 94.54h6.1v6.1h-6.1zM329.443 94.54h6.102v6.1h-6.102zM336.715 94.54h6.1v6.1h-6.1zM343.986 94.54h6.104v6.1h-6.104zM351.26 94.54h6.1v6.1h-6.1zM358.53 94.54h6.1v6.1h-6.1zM365.805 94.54h6.1v6.1h-6.1zM373.076 94.54h6.1v6.1h-6.1zM380.346 94.54h6.104v6.1h-6.104zM387.62 94.54h6.1v6.1h-6.1zM394.89 94.54h6.1v6.1h-6.1zM402.166 94.54h6.1v6.1h-6.1zM409.438 94.54h6.098v6.1h-6.098zM416.71 94.54h6.097v6.1h-6.096zM423.98 94.54h6.102v6.1h-6.102zM431.252 94.54h6.1v6.1h-6.1zM438.525 94.54h6.102v6.1h-6.102zM445.797 94.54h6.1v6.1h-6.1zM453.07 94.54h6.1v6.1h-6.1zM53.1 101.81h6.1v6.104h-6.1zM60.373 101.81h6.1v6.104h-6.1zM67.646 101.81h6.1v6.104h-6.1zM74.917 101.81h6.102v6.104h-6.103zM82.19 101.81h6.1v6.104h-6.1zM89.46 101.81h6.102v6.104h-6.1zM96.734 101.81h6.1v6.104h-6.1zM104.006 101.81h6.1v6.104h-6.1zM111.277 101.81h6.102v6.104h-6.103zM118.55 101.81h6.1v6.104h-6.1zM125.822 101.81h6.1v6.104h-6.1zM133.094 101.81h6.1v6.104h-6.1zM140.366 101.81h6.1v6.104h-6.1zM147.638 101.81h6.102v6.104h-6.102zM154.91 101.81h6.1v6.104h-6.1zM162.183 101.81h6.1v6.104h-6.1zM169.455 101.81h6.1v6.104h-6.1zM176.726 101.81h6.102v6.104h-6.102zM184 101.81h6.1v6.104H184zM191.27 101.81h6.102v6.104h-6.1zM198.543 101.81h6.102v6.104h-6.102zM205.814 101.81h6.103v6.104h-6.103zM213.088 101.81h6.1v6.104h-6.1zM220.36 101.81h6.1v6.104h-6.1zM227.632 101.81h6.1v6.104h-6.1zM234.905 101.81h6.102v6.104h-6.102zM263.992 101.81h6.102v6.104h-6.102zM271.264 101.81h6.104v6.104h-6.104zM278.54 101.81h6.1v6.104h-6.1zM285.81 101.81h6.1v6.104h-6.1zM293.084 101.81h6.1v6.104h-6.1zM300.354 101.81h6.1v6.104h-6.1zM307.625 101.81h6.104v6.104h-6.105zM314.898 101.81h6.1v6.104h-6.1zM322.17 101.81h6.1v6.104h-6.1zM329.443 101.81h6.102v6.104h-6.102zM336.715 101.81h6.1v6.104h-6.1zM343.986 101.81h6.104v6.104h-6.104zM351.26 101.81h6.1v6.104h-6.1zM358.53 101.81h6.1v6.104h-6.1zM365.805 101.81h6.1v6.104h-6.1zM373.076 101.81h6.1v6.104h-6.1zM380.346 101.81h6.104v6.104h-6.104zM387.62 101.81h6.1v6.104h-6.1zM394.89 101.81h6.1v6.104h-6.1zM402.166 101.81h6.1v6.104h-6.1zM409.438 101.81h6.098v6.104h-6.098zM416.71 101.81h6.097v6.104h-6.096zM423.98 101.81h6.102v6.104h-6.102zM431.252 101.81h6.1v6.104h-6.1zM438.525 101.81h6.102v6.104h-6.102zM45.828 116.354h6.1v6.1h-6.1zM60.373 116.354h6.1v6.1h-6.1zM74.917 116.354h6.102v6.1h-6.103zM89.46 116.354h6.102v6.1h-6.1zM104.006 116.354h6.1v6.1h-6.1zM118.55 116.354h6.1v6.1h-6.1zM140.366 116.354h6.1v6.1h-6.1zM154.91 116.354h6.1v6.1h-6.1zM169.455 116.354h6.1v6.1h-6.1zM38.556 123.63h6.102v6.1h-6.102zM53.1 123.63h6.1v6.1h-6.1zM67.646 123.63h6.1v6.1h-6.1zM133.094 123.63h6.1v6.1h-6.1zM147.638 123.63h6.102v6.1h-6.102zM162.183 123.63h6.1v6.1h-6.1zM31.283 130.9h6.1v6.1h-6.1zM82.19 130.9h6.1v6.1h-6.1zM96.734 130.9h6.1v6.1h-6.1zM111.277 130.9h6.102v6.1h-6.103zM125.822 130.9h6.1v6.1h-6.1zM60.373 50.905h6.1v6.1h-6.1zM67.646 50.905h6.1v6.1h-6.1zM74.917 50.905h6.102v6.1h-6.103zM82.19 50.905h6.1v6.1h-6.1zM89.46 50.905h6.102v6.1h-6.1zM96.734 50.905h6.1v6.1h-6.1zM104.006 50.905h6.1v6.1h-6.1zM111.277 50.905h6.102v6.1h-6.103zM118.55 50.905h6.1v6.1h-6.1zM125.822 50.905h6.1v6.1h-6.1zM133.094 50.905h6.1v6.1h-6.1zM140.366 50.905h6.1v6.1h-6.1zM147.638 50.905h6.102v6.1h-6.102zM154.91 50.905h6.1v6.1h-6.1zM162.183 50.905h6.1v6.1h-6.1zM169.455 50.905h6.1v6.1h-6.1zM176.726 50.905h6.102v6.1h-6.102zM184 50.905h6.1v6.1H184zM191.27 50.905h6.102v6.1h-6.1zM198.543 50.905h6.102v6.1h-6.102zM205.814 50.905h6.103v6.1h-6.103zM213.088 50.905h6.1v6.1h-6.1zM220.36 50.905h6.1v6.1h-6.1zM227.632 50.905h6.1v6.1h-6.1zM234.905 50.905h6.102v6.1h-6.102zM263.992 50.905h6.102v6.1h-6.102zM271.264 50.905h6.104v6.1h-6.104zM278.54 50.905h6.1v6.1h-6.1zM285.81 50.905h6.1v6.1h-6.1zM293.084 50.905h6.1v6.1h-6.1zM300.354 50.905h6.1v6.1h-6.1zM307.625 50.905h6.104v6.1h-6.105zM314.898 50.905h6.1v6.1h-6.1zM322.17 50.905h6.1v6.1h-6.1zM329.443 50.905h6.102v6.1h-6.102zM336.715 50.905h6.1v6.1h-6.1zM343.986 50.905h6.104v6.1h-6.104zM351.26 50.905h6.1v6.1h-6.1zM358.53 50.905h6.1v6.1h-6.1zM365.805 50.905h6.1v6.1h-6.1zM373.076 50.905h6.1v6.1h-6.1zM380.346 50.905h6.104v6.1h-6.104zM387.62 50.905h6.1v6.1h-6.1zM394.89 50.905h6.1v6.1h-6.1zM402.166 50.905h6.1v6.1h-6.1zM409.438 50.905h6.098v6.1h-6.098zM416.71 50.905h6.097v6.1h-6.096zM423.98 50.905h6.102v6.1h-6.102zM431.252 50.905h6.1v6.1h-6.1zM133.094 43.632h6.1v6.102h-6.1zM147.638 43.632h6.102v6.102h-6.102zM162.183 43.632h6.1v6.102h-6.1zM198.543 43.632h6.102v6.102h-6.102zM234.905 43.632h6.102v6.102h-6.102zM271.264 43.632h6.104v6.102h-6.104zM300.354 43.632h6.1v6.102h-6.1zM307.625 43.632h6.104v6.102h-6.105zM314.898 43.632h6.1v6.102h-6.1zM322.17 43.632h6.1v6.102h-6.1zM329.443 43.632h6.102v6.102h-6.102zM336.715 43.632h6.1v6.102h-6.1zM343.986 43.632h6.104v6.102h-6.104zM358.53 43.632h6.1v6.102h-6.1zM365.805 43.632h6.1v6.102h-6.1zM380.346 43.632h6.104v6.102h-6.104zM394.89 43.632h6.1v6.102h-6.1zM409.438 43.632h6.098v6.102h-6.098zM423.98 43.632h6.102v6.102h-6.102zM453.07 58.178h6.1v6.1h-6.1zM438.525 65.447h6.102v6.1h-6.102zM438.525 72.722h6.102v6.102h-6.102zM460.342 87.27h6.1v6.096h-6.1zM460.342 94.54h6.1v6.1h-6.1zM467.613 87.27h6.104v6.096h-6.104zM467.613 94.54h6.104v6.1h-6.104zM445.797 101.81h6.1v6.104h-6.1zM453.07 101.81h6.1v6.104h-6.1zM438.525 50.905h6.102v6.1h-6.102zM438.525 43.632h6.102v6.102h-6.102zM133.094 36.36h6.1v6.103h-6.1zM140.366 36.36h6.1v6.103h-6.1zM147.638 36.36h6.102v6.103h-6.102zM154.91 36.36h6.1v6.103h-6.1zM162.183 36.36h6.1v6.103h-6.1zM169.455 36.36h6.1v6.103h-6.1zM176.726 43.632h6.102v6.102h-6.102zM176.726 36.36h6.102v6.103h-6.102zM198.543 36.36h6.102v6.103h-6.102zM205.814 36.36h6.103v6.103h-6.103zM234.905 36.36h6.102v6.103h-6.102zM271.264 36.36h6.104v6.103h-6.104zM278.54 36.36h6.1v6.103h-6.1zM322.17 36.36h6.1v6.103h-6.1zM358.53 36.36h6.1v6.103h-6.1zM365.805 36.36h6.1v6.103h-6.1zM133.094 29.088h6.1v6.102h-6.1zM234.905 29.088h6.102v6.102h-6.102zM322.17 29.088h6.1v6.102h-6.1zM329.443 29.088h6.102v6.102h-6.102zM358.53 29.088h6.1v6.102h-6.1zM118.55 21.817h6.1v6.1h-6.1zM125.822 21.817h6.1v6.1h-6.1zM133.094 21.817h6.1v6.1h-6.1zM234.905 21.817h6.102v6.1h-6.102zM343.986 21.817h6.104v6.1h-6.104zM351.26 21.817h6.1v6.1h-6.1zM358.53 21.817h6.1v6.1h-6.1zM125.822 14.545h6.1v6.1h-6.1zM133.094 14.545h6.1v6.1h-6.1zM234.905 14.545h6.102v6.1h-6.102zM351.26 14.545h6.1v6.1h-6.1zM358.53 14.545h6.1v6.1h-6.1zM234.905 7.272h6.102v6.1h-6.102zM234.905 0h6.102v6.102h-6.102zM242.176 50.905h6.1v6.1h-6.1zM242.176 43.632h6.1v6.102h-6.1zM242.176 36.36h6.1v6.103h-6.1zM242.176 29.088h6.1v6.102h-6.1zM242.176 21.817h6.1v6.1h-6.1zM242.176 14.545h6.1v6.1h-6.1zM242.176 7.272h6.1v6.1h-6.1zM242.176 0h6.1v6.102h-6.1zM249.45 50.905h6.1v6.1h-6.1zM249.45 43.632h6.1v6.102h-6.1zM249.45 36.36h6.1v6.103h-6.1zM249.45 29.088h6.1v6.102h-6.1zM249.45 21.817h6.1v6.1h-6.1zM249.45 14.545h6.1v6.1h-6.1zM249.45 7.272h6.1v6.1h-6.1zM249.45 0h6.1v6.102h-6.1zM242.176 58.178h6.1v6.1h-6.1zM256.723 58.178h6.1v6.1h-6.1zM242.176 65.447h6.1v6.1h-6.1zM249.45 65.447h6.1v6.1h-6.1zM256.723 65.447h6.1v6.1h-6.1zM242.176 72.722h6.1v6.102h-6.1zM249.45 72.722h6.1v6.102h-6.1zM256.723 72.722h6.1v6.102h-6.1zM242.176 79.994h6.1v6.1h-6.1zM256.723 79.994h6.1v6.1h-6.1zM242.176 87.27h6.1v6.096h-6.1zM249.45 87.27h6.1v6.096h-6.1zM256.723 87.27h6.1v6.096h-6.1zM242.176 94.54h6.1v6.1h-6.1zM249.45 94.54h6.1v6.1h-6.1zM256.723 94.54h6.1v6.1h-6.1zM242.176 101.81h6.1v6.104h-6.1zM249.45 101.81h6.1v6.104h-6.1zM256.723 101.81h6.1v6.104h-6.1zM256.723 50.905h6.1v6.1h-6.1zM191.27 116.354h6.102v6.1h-6.1zM205.814 116.354h6.103v6.1h-6.103zM220.36 116.354h6.1v6.1h-6.1zM242.176 116.354h6.1v6.1h-6.1zM256.723 116.354h6.1v6.1h-6.1zM271.264 116.354h6.104v6.1h-6.104zM293.084 116.354h6.1v6.1h-6.1zM307.625 116.354h6.104v6.1h-6.105zM322.17 116.354h6.1v6.1h-6.1zM343.986 116.354h6.104v6.1h-6.104zM358.53 116.354h6.1v6.1h-6.1zM373.076 116.354h6.1v6.1h-6.1zM394.89 116.354h6.1v6.1h-6.1zM409.438 116.354h6.098v6.1h-6.098zM423.98 116.354h6.102v6.1h-6.102zM184 123.63h6.1v6.1H184zM198.543 123.63h6.102v6.1h-6.102zM213.088 123.63h6.1v6.1h-6.1zM234.905 123.63h6.102v6.1h-6.102zM249.45 123.63h6.1v6.1h-6.1zM263.992 123.63h6.102v6.1h-6.102zM285.81 123.63h6.1v6.1h-6.1zM300.354 123.63h6.1v6.1h-6.1zM314.898 123.63h6.1v6.1h-6.1zM336.715 123.63h6.1v6.1h-6.1zM351.26 123.63h6.1v6.1h-6.1zM365.805 123.63h6.1v6.1h-6.1zM387.62 123.63h6.1v6.1h-6.1zM402.166 123.63h6.1v6.1h-6.1zM416.71 123.63h6.097v6.1h-6.096zM176.726 130.9h6.102v6.1h-6.102zM227.632 130.9h6.1v6.1h-6.1zM278.54 130.9h6.1v6.1h-6.1zM329.443 130.9h6.102v6.1h-6.102zM380.346 130.9h6.104v6.1h-6.104z"/></g></svg>